STARTFONT 2.1
COMMENT Generated BDF for KSC5601 (Unicode Encoding)
FONT -MingTi-R-Normal--12-100-96-96-m-144-KSC5601-2005-0
SIZE 12 96 96
FONTBOUNDINGBOX 12 12 0 -2
STARTPROPERTIES 12
FONT_ASCENT 10
FONT_DESCENT 2
DEFAULT_CHAR 12288
Copyright "Copyright (c) 2005 DynaComware Corp."
POINT_SIZE 120
FONT "-MingTi-R-Normal--12-100-96-96-m-144-KSC5601-2005-0"
WEIGHT 10
RESOLUTION 100
RESOLUTION_X 96
RESOLUTION_Y 96
X_HEIGHT 4294967295
QUAD_WIDTH 12
ENDPROPERTIES
CHARS 8422
STARTCHAR space
ENCODING 32
SWIDTH 240 0
DWIDTH 3 0
BBX 0 0 0 0
BITMAP
ENDCHAR
STARTCHAR p21
ENCODING 33
SWIDTH 240 0
DWIDTH 6 0
BBX 6 12 0 -2
BITMAP
00
00
60
60
60
60
20
20
00
60
00
00
ENDCHAR
STARTCHAR p22
ENCODING 34
SWIDTH 240 0
DWIDTH 6 0
BBX 6 12 0 -2
BITMAP
00
50
50
50
50
00
00
00
00
00
00
00
ENDCHAR
STARTCHAR p23
ENCODING 35
SWIDTH 240 0
DWIDTH 6 0
BBX 6 12 0 -2
BITMAP
00
00
50
50
F8
50
50
F8
50
50
00
00
ENDCHAR
STARTCHAR p24
ENCODING 36
SWIDTH 240 0
DWIDTH 6 0
BBX 6 12 0 -2
BITMAP
00
00
88
88
50
50
20
F8
20
20
00
00
ENDCHAR
STARTCHAR p25
ENCODING 37
SWIDTH 240 0
DWIDTH 6 0
BBX 6 12 0 -2
BITMAP
00
E8
A8
B0
F0
20
78
68
A8
B8
00
00
ENDCHAR
STARTCHAR p26
ENCODING 38
SWIDTH 240 0
DWIDTH 6 0
BBX 6 12 0 -2
BITMAP
00
00
70
50
50
60
A8
90
90
68
00
00
ENDCHAR
STARTCHAR p27
ENCODING 39
SWIDTH 240 0
DWIDTH 6 0
BBX 6 12 0 -2
BITMAP
00
20
20
40
40
00
00
00
00
00
00
00
ENDCHAR
STARTCHAR p28
ENCODING 40
SWIDTH 240 0
DWIDTH 6 0
BBX 6 12 0 -2
BITMAP
08
10
10
20
20
20
20
20
20
10
10
08
ENDCHAR
STARTCHAR p29
ENCODING 41
SWIDTH 240 0
DWIDTH 6 0
BBX 6 12 0 -2
BITMAP
80
40
40
20
20
20
20
20
20
40
40
80
ENDCHAR
STARTCHAR p2A
ENCODING 42
SWIDTH 240 0
DWIDTH 6 0
BBX 6 12 0 -2
BITMAP
00
20
A8
70
70
A8
20
00
00
00
00
00
ENDCHAR
STARTCHAR p2B
ENCODING 43
SWIDTH 240 0
DWIDTH 6 0
BBX 6 12 0 -2
BITMAP
00
00
00
20
20
F8
20
20
00
00
00
00
ENDCHAR
STARTCHAR p2C
ENCODING 44
SWIDTH 240 0
DWIDTH 3 0
BBX 3 12 0 -2
BITMAP
00
00
00
00
00
00
00
00
C0
C0
40
80
ENDCHAR
STARTCHAR p2D
ENCODING 45
SWIDTH 240 0
DWIDTH 6 0
BBX 6 12 0 -2
BITMAP
00
00
00
00
00
78
00
00
00
00
00
00
ENDCHAR
STARTCHAR p2E
ENCODING 46
SWIDTH 240 0
DWIDTH 3 0
BBX 3 12 0 -2
BITMAP
00
00
00
00
00
00
00
C0
C0
00
00
00
ENDCHAR
STARTCHAR p2F
ENCODING 47
SWIDTH 240 0
DWIDTH 6 0
BBX 6 12 0 -2
BITMAP
00
08
08
10
10
20
20
40
40
80
80
00
ENDCHAR
STARTCHAR p30
ENCODING 48
SWIDTH 240 0
DWIDTH 6 0
BBX 6 12 0 -2
BITMAP
00
70
88
88
88
88
88
88
88
70
00
00
ENDCHAR
STARTCHAR p31
ENCODING 49
SWIDTH 240 0
DWIDTH 6 0
BBX 6 12 0 -2
BITMAP
00
10
30
50
10
10
10
10
10
10
00
00
ENDCHAR
STARTCHAR p32
ENCODING 50
SWIDTH 240 0
DWIDTH 6 0
BBX 6 12 0 -2
BITMAP
00
70
88
08
08
10
20
40
80
F8
00
00
ENDCHAR
STARTCHAR p33
ENCODING 51
SWIDTH 240 0
DWIDTH 6 0
BBX 6 12 0 -2
BITMAP
00
70
88
08
08
30
08
08
88
70
00
00
ENDCHAR
STARTCHAR p34
ENCODING 52
SWIDTH 240 0
DWIDTH 6 0
BBX 6 12 0 -2
BITMAP
00
10
10
30
50
50
90
F8
10
10
00
00
ENDCHAR
STARTCHAR p35
ENCODING 53
SWIDTH 240 0
DWIDTH 6 0
BBX 6 12 0 -2
BITMAP
00
F8
80
80
F0
88
08
08
88
70
00
00
ENDCHAR
STARTCHAR p36
ENCODING 54
SWIDTH 240 0
DWIDTH 6 0
BBX 6 12 0 -2
BITMAP
00
70
88
80
F0
88
88
88
88
70
00
00
ENDCHAR
STARTCHAR p37
ENCODING 55
SWIDTH 240 0
DWIDTH 6 0
BBX 6 12 0 -2
BITMAP
00
F8
08
08
10
10
20
20
40
40
00
00
ENDCHAR
STARTCHAR p38
ENCODING 56
SWIDTH 240 0
DWIDTH 6 0
BBX 6 12 0 -2
BITMAP
00
70
88
88
88
70
88
88
88
70
00
00
ENDCHAR
STARTCHAR p39
ENCODING 57
SWIDTH 240 0
DWIDTH 6 0
BBX 6 12 0 -2
BITMAP
00
70
88
88
88
88
78
08
88
70
00
00
ENDCHAR
STARTCHAR p3A
ENCODING 58
SWIDTH 240 0
DWIDTH 4 0
BBX 4 12 0 -2
BITMAP
00
00
00
00
C0
C0
00
00
00
C0
C0
00
ENDCHAR
STARTCHAR p3B
ENCODING 59
SWIDTH 240 0
DWIDTH 4 0
BBX 4 12 0 -2
BITMAP
00
00
00
00
C0
C0
00
00
C0
C0
40
80
ENDCHAR
STARTCHAR p3C
ENCODING 60
SWIDTH 240 0
DWIDTH 6 0
BBX 6 12 0 -2
BITMAP
00
08
10
20
40
80
40
20
10
08
00
00
ENDCHAR
STARTCHAR p3D
ENCODING 61
SWIDTH 240 0
DWIDTH 6 0
BBX 6 12 0 -2
BITMAP
00
00
00
00
78
00
78
00
00
00
00
00
ENDCHAR
STARTCHAR p3E
ENCODING 62
SWIDTH 240 0
DWIDTH 6 0
BBX 6 12 0 -2
BITMAP
00
80
40
20
10
08
10
20
40
80
00
00
ENDCHAR
STARTCHAR p3F
ENCODING 63
SWIDTH 240 0
DWIDTH 6 0
BBX 6 12 0 -2
BITMAP
00
70
88
88
08
10
20
20
00
20
00
00
ENDCHAR
STARTCHAR p40
ENCODING 64
SWIDTH 240 0
DWIDTH 6 0
BBX 6 12 0 -2
BITMAP
00
70
88
98
A8
A8
A8
98
80
78
00
00
ENDCHAR
STARTCHAR p41
ENCODING 65
SWIDTH 240 0
DWIDTH 6 0
BBX 6 12 0 -2
BITMAP
00
20
20
50
50
88
88
F8
88
88
00
00
ENDCHAR
STARTCHAR p42
ENCODING 66
SWIDTH 240 0
DWIDTH 6 0
BBX 6 12 0 -2
BITMAP
00
F0
88
88
88
F0
88
88
88
F0
00
00
ENDCHAR
STARTCHAR p43
ENCODING 67
SWIDTH 240 0
DWIDTH 6 0
BBX 6 12 0 -2
BITMAP
00
70
88
88
80
80
80
88
88
70
00
00
ENDCHAR
STARTCHAR p44
ENCODING 68
SWIDTH 240 0
DWIDTH 6 0
BBX 6 12 0 -2
BITMAP
00
F0
88
88
88
88
88
88
88
F0
00
00
ENDCHAR
STARTCHAR p45
ENCODING 69
SWIDTH 240 0
DWIDTH 6 0
BBX 6 12 0 -2
BITMAP
00
F0
80
80
80
F0
80
80
80
F0
00
00
ENDCHAR
STARTCHAR p46
ENCODING 70
SWIDTH 240 0
DWIDTH 6 0
BBX 6 12 0 -2
BITMAP
00
F0
80
80
80
F0
80
80
80
80
00
00
ENDCHAR
STARTCHAR p47
ENCODING 71
SWIDTH 240 0
DWIDTH 6 0
BBX 6 12 0 -2
BITMAP
00
70
88
88
80
80
98
88
88
70
00
00
ENDCHAR
STARTCHAR p48
ENCODING 72
SWIDTH 240 0
DWIDTH 6 0
BBX 6 12 0 -2
BITMAP
00
88
88
88
88
F8
88
88
88
88
00
00
ENDCHAR
STARTCHAR p49
ENCODING 73
SWIDTH 240 0
DWIDTH 6 0
BBX 6 12 0 -2
BITMAP
00
20
20
20
20
20
20
20
20
20
00
00
ENDCHAR
STARTCHAR p4A
ENCODING 74
SWIDTH 240 0
DWIDTH 6 0
BBX 6 12 0 -2
BITMAP
00
20
20
20
20
20
20
20
20
20
C0
00
ENDCHAR
STARTCHAR p4B
ENCODING 75
SWIDTH 240 0
DWIDTH 6 0
BBX 6 12 0 -2
BITMAP
00
90
90
A0
A0
C0
A0
A0
90
90
00
00
ENDCHAR
STARTCHAR p4C
ENCODING 76
SWIDTH 240 0
DWIDTH 6 0
BBX 6 12 0 -2
BITMAP
00
40
40
40
40
40
40
40
40
78
00
00
ENDCHAR
STARTCHAR p4D
ENCODING 77
SWIDTH 240 0
DWIDTH 6 0
BBX 6 12 0 -2
BITMAP
00
88
88
D8
F8
A8
88
88
88
88
00
00
ENDCHAR
STARTCHAR p4E
ENCODING 78
SWIDTH 240 0
DWIDTH 6 0
BBX 6 12 0 -2
BITMAP
00
88
88
88
C8
A8
98
88
88
88
00
00
ENDCHAR
STARTCHAR p4F
ENCODING 79
SWIDTH 240 0
DWIDTH 6 0
BBX 6 12 0 -2
BITMAP
00
70
88
88
88
88
88
88
88
70
00
00
ENDCHAR
STARTCHAR p50
ENCODING 80
SWIDTH 240 0
DWIDTH 6 0
BBX 6 12 0 -2
BITMAP
00
F0
88
88
88
88
F0
80
80
80
00
00
ENDCHAR
STARTCHAR p51
ENCODING 81
SWIDTH 240 0
DWIDTH 6 0
BBX 6 12 0 -2
BITMAP
00
70
88
88
88
88
88
88
88
70
18
00
ENDCHAR
STARTCHAR p52
ENCODING 82
SWIDTH 240 0
DWIDTH 6 0
BBX 6 12 0 -2
BITMAP
00
F0
88
88
88
90
E0
90
88
88
00
00
ENDCHAR
STARTCHAR p53
ENCODING 83
SWIDTH 240 0
DWIDTH 6 0
BBX 6 12 0 -2
BITMAP
00
70
88
88
80
60
10
88
88
70
00
00
ENDCHAR
STARTCHAR p54
ENCODING 84
SWIDTH 240 0
DWIDTH 6 0
BBX 6 12 0 -2
BITMAP
00
F8
20
20
20
20
20
20
20
20
00
00
ENDCHAR
STARTCHAR p55
ENCODING 85
SWIDTH 240 0
DWIDTH 6 0
BBX 6 12 0 -2
BITMAP
00
88
88
88
88
88
88
88
88
70
00
00
ENDCHAR
STARTCHAR p56
ENCODING 86
SWIDTH 240 0
DWIDTH 6 0
BBX 6 12 0 -2
BITMAP
00
88
88
88
50
50
50
20
20
20
00
00
ENDCHAR
STARTCHAR p57
ENCODING 87
SWIDTH 240 0
DWIDTH 6 0
BBX 6 12 0 -2
BITMAP
00
88
88
A8
A8
A8
A8
50
50
50
00
00
ENDCHAR
STARTCHAR p58
ENCODING 88
SWIDTH 240 0
DWIDTH 6 0
BBX 6 12 0 -2
BITMAP
00
88
88
50
50
20
50
50
88
88
00
00
ENDCHAR
STARTCHAR p59
ENCODING 89
SWIDTH 240 0
DWIDTH 6 0
BBX 6 12 0 -2
BITMAP
00
88
88
50
50
20
20
20
20
20
00
00
ENDCHAR
STARTCHAR p5A
ENCODING 90
SWIDTH 240 0
DWIDTH 6 0
BBX 6 12 0 -2
BITMAP
00
F8
08
10
10
20
40
40
80
F8
00
00
ENDCHAR
STARTCHAR p5B
ENCODING 91
SWIDTH 240 0
DWIDTH 6 0
BBX 6 12 0 -2
BITMAP
38
20
20
20
20
20
20
20
20
20
20
38
ENDCHAR
STARTCHAR p5C
ENCODING 92
SWIDTH 240 0
DWIDTH 6 0
BBX 6 12 0 -2
BITMAP
00
80
80
40
40
20
20
10
10
08
08
00
ENDCHAR
STARTCHAR p5D
ENCODING 93
SWIDTH 240 0
DWIDTH 6 0
BBX 6 12 0 -2
BITMAP
E0
20
20
20
20
20
20
20
20
20
20
E0
ENDCHAR
STARTCHAR p5E
ENCODING 94
SWIDTH 240 0
DWIDTH 6 0
BBX 6 12 0 -2
BITMAP
00
20
50
88
00
00
00
00
00
00
00
00
ENDCHAR
STARTCHAR p5F
ENCODING 95
SWIDTH 240 0
DWIDTH 6 0
BBX 6 12 0 -2
BITMAP
00
00
00
00
00
00
00
00
00
78
00
00
ENDCHAR
STARTCHAR p60
ENCODING 96
SWIDTH 240 0
DWIDTH 6 0
BBX 6 12 0 -2
BITMAP
00
10
10
08
08
00
00
00
00
00
00
00
ENDCHAR
STARTCHAR p61
ENCODING 97
SWIDTH 240 0
DWIDTH 6 0
BBX 6 12 0 -2
BITMAP
00
00
00
70
88
08
78
88
88
74
00
00
ENDCHAR
STARTCHAR p62
ENCODING 98
SWIDTH 240 0
DWIDTH 6 0
BBX 6 12 0 -2
BITMAP
00
80
80
B0
C8
88
88
88
C8
B0
00
00
ENDCHAR
STARTCHAR p63
ENCODING 99
SWIDTH 240 0
DWIDTH 6 0
BBX 6 12 0 -2
BITMAP
00
00
00
70
88
88
80
80
88
70
00
00
ENDCHAR
STARTCHAR p64
ENCODING 100
SWIDTH 240 0
DWIDTH 6 0
BBX 6 12 0 -2
BITMAP
00
08
08
68
98
88
88
88
98
68
00
00
ENDCHAR
STARTCHAR p65
ENCODING 101
SWIDTH 240 0
DWIDTH 6 0
BBX 6 12 0 -2
BITMAP
00
00
00
70
88
88
F8
80
88
70
00
00
ENDCHAR
STARTCHAR p66
ENCODING 102
SWIDTH 240 0
DWIDTH 6 0
BBX 6 12 0 -2
BITMAP
00
18
20
20
70
20
20
20
20
20
00
00
ENDCHAR
STARTCHAR p67
ENCODING 103
SWIDTH 240 0
DWIDTH 6 0
BBX 6 12 0 -2
BITMAP
00
00
00
74
88
88
88
98
68
08
88
70
ENDCHAR
STARTCHAR p68
ENCODING 104
SWIDTH 240 0
DWIDTH 6 0
BBX 6 12 0 -2
BITMAP
00
80
80
B0
C8
88
88
88
88
88
00
00
ENDCHAR
STARTCHAR p69
ENCODING 105
SWIDTH 240 0
DWIDTH 6 0
BBX 6 12 0 -2
BITMAP
00
20
20
00
20
20
20
20
20
20
00
00
ENDCHAR
STARTCHAR p6A
ENCODING 106
SWIDTH 240 0
DWIDTH 6 0
BBX 6 12 0 -2
BITMAP
00
20
20
00
20
20
20
20
20
20
20
C0
ENDCHAR
STARTCHAR p6B
ENCODING 107
SWIDTH 240 0
DWIDTH 6 0
BBX 6 12 0 -2
BITMAP
00
80
80
88
90
A0
C0
A0
90
88
00
00
ENDCHAR
STARTCHAR p6C
ENCODING 108
SWIDTH 240 0
DWIDTH 6 0
BBX 6 12 0 -2
BITMAP
00
20
20
20
20
20
20
20
20
20
00
00
ENDCHAR
STARTCHAR p6D
ENCODING 109
SWIDTH 240 0
DWIDTH 6 0
BBX 6 12 0 -2
BITMAP
00
00
00
D8
A4
A4
A4
A4
A4
A4
00
00
ENDCHAR
STARTCHAR p6E
ENCODING 110
SWIDTH 240 0
DWIDTH 6 0
BBX 6 12 0 -2
BITMAP
00
00
00
B0
C8
88
88
88
88
88
00
00
ENDCHAR
STARTCHAR p6F
ENCODING 111
SWIDTH 240 0
DWIDTH 6 0
BBX 6 12 0 -2
BITMAP
00
00
00
70
88
88
88
88
88
70
00
00
ENDCHAR
STARTCHAR p70
ENCODING 112
SWIDTH 240 0
DWIDTH 6 0
BBX 6 12 0 -2
BITMAP
00
00
00
B0
C8
88
88
88
C8
B0
80
80
ENDCHAR
STARTCHAR p71
ENCODING 113
SWIDTH 240 0
DWIDTH 6 0
BBX 6 12 0 -2
BITMAP
00
00
00
68
98
88
88
88
98
68
08
08
ENDCHAR
STARTCHAR p72
ENCODING 114
SWIDTH 240 0
DWIDTH 6 0
BBX 6 12 0 -2
BITMAP
00
00
00
58
60
40
40
40
40
40
00
00
ENDCHAR
STARTCHAR p73
ENCODING 115
SWIDTH 240 0
DWIDTH 6 0
BBX 6 12 0 -2
BITMAP
00
00
00
70
88
80
70
08
88
70
00
00
ENDCHAR
STARTCHAR p74
ENCODING 116
SWIDTH 240 0
DWIDTH 6 0
BBX 6 12 0 -2
BITMAP
00
00
20
20
78
20
20
20
20
18
00
00
ENDCHAR
STARTCHAR p75
ENCODING 117
SWIDTH 240 0
DWIDTH 6 0
BBX 6 12 0 -2
BITMAP
00
00
00
88
88
88
88
88
98
68
00
00
ENDCHAR
STARTCHAR p76
ENCODING 118
SWIDTH 240 0
DWIDTH 6 0
BBX 6 12 0 -2
BITMAP
00
00
00
88
88
88
50
50
20
20
00
00
ENDCHAR
STARTCHAR p77
ENCODING 119
SWIDTH 240 0
DWIDTH 6 0
BBX 6 12 0 -2
BITMAP
00
00
00
88
A8
A8
A8
50
50
50
00
00
ENDCHAR
STARTCHAR p78
ENCODING 120
SWIDTH 240 0
DWIDTH 6 0
BBX 6 12 0 -2
BITMAP
00
00
00
88
88
50
20
50
88
88
00
00
ENDCHAR
STARTCHAR p79
ENCODING 121
SWIDTH 240 0
DWIDTH 6 0
BBX 6 12 0 -2
BITMAP
00
00
00
88
88
88
50
50
20
20
40
40
ENDCHAR
STARTCHAR p7A
ENCODING 122
SWIDTH 240 0
DWIDTH 6 0
BBX 6 12 0 -2
BITMAP
00
00
00
F8
08
10
20
40
80
F8
00
00
ENDCHAR
STARTCHAR p7B
ENCODING 123
SWIDTH 240 0
DWIDTH 6 0
BBX 6 12 0 -2
BITMAP
08
10
10
10
10
20
20
10
10
10
10
08
ENDCHAR
STARTCHAR p7C
ENCODING 124
SWIDTH 240 0
DWIDTH 6 0
BBX 6 12 0 -2
BITMAP
00
20
20
20
20
20
20
20
20
20
20
00
ENDCHAR
STARTCHAR p7D
ENCODING 125
SWIDTH 240 0
DWIDTH 6 0
BBX 6 12 0 -2
BITMAP
80
40
40
40
40
20
20
40
40
40
40
80
ENDCHAR
STARTCHAR p7E
ENCODING 126
SWIDTH 240 0
DWIDTH 6 0
BBX 6 12 0 -2
BITMAP
FC
00
00
00
00
00
00
00
00
00
00
00
ENDCHAR
STARTCHAR pA1
ENCODING 161
SWIDTH 480 0
DWIDTH 13 0
BBX 12 12 0 -2
BITMAP
0000
0200
0200
0000
0000
0200
0200
0200
0200
0200
0200
0000
ENDCHAR
STARTCHAR pA2
ENCODING 162
SWIDTH 480 0
DWIDTH 13 0
BBX 12 12 0 -2
BITMAP
0000
0100
0100
0F00
1280
1200
1400
1480
0F00
0800
0800
0000
ENDCHAR
STARTCHAR pA3
ENCODING 163
SWIDTH 480 0
DWIDTH 13 0
BBX 12 12 0 -2
BITMAP
0000
0E00
1100
1000
1000
3E00
0800
0800
3800
4C40
3380
0000
ENDCHAR
STARTCHAR pA4
ENCODING 164
SWIDTH 480 0
DWIDTH 13 0
BBX 12 12 0 -2
BITMAP
0000
4020
2F40
1080
2040
2040
2040
2040
1080
2F40
4020
0000
ENDCHAR
STARTCHAR pA5
ENCODING 165
SWIDTH 480 0
DWIDTH 13 0
BBX 12 12 0 -2
BITMAP
0000
18C0
0880
0500
0500
1FC0
0200
1FC0
0200
0200
0200
0000
ENDCHAR
STARTCHAR pA7
ENCODING 167
SWIDTH 480 0
DWIDTH 13 0
BBX 12 12 0 -2
BITMAP
0000
0700
0880
0800
0700
0880
0880
0700
0080
0880
0700
0000
ENDCHAR
STARTCHAR pA8
ENCODING 168
SWIDTH 480 0
DWIDTH 13 0
BBX 12 12 0 -2
BITMAP
1980
1980
0000
0000
0000
0000
0000
0000
0000
0000
0000
0000
ENDCHAR
STARTCHAR pA9
ENCODING 169
SWIDTH 480 0
DWIDTH 13 0
BBX 12 12 0 -2
BITMAP
1F80
2040
4020
8710
8890
8810
8810
8890
8710
4020
2040
1F80
ENDCHAR
STARTCHAR pAA
ENCODING 170
SWIDTH 480 0
DWIDTH 13 0
BBX 12 12 0 -2
BITMAP
0000
0000
0E00
1100
0F00
1100
1100
0E80
0000
1F80
0000
0000
ENDCHAR
STARTCHAR pAB
ENCODING 171
SWIDTH 480 0
DWIDTH 13 0
BBX 12 12 0 -2
BITMAP
0000
0000
0480
0900
1200
2400
1200
0900
0480
0000
0000
0000
ENDCHAR
STARTCHAR pAC
ENCODING 172
SWIDTH 480 0
DWIDTH 13 0
BBX 12 12 0 -2
BITMAP
0000
0000
0000
0000
0000
0000
0000
0000
7FF0
0010
0010
0010
ENDCHAR
STARTCHAR pAD
ENCODING 173
SWIDTH 480 0
DWIDTH 13 0
BBX 12 12 0 -2
BITMAP
0000
0000
0000
0000
0000
0000
0F00
0000
0000
0000
0000
0000
ENDCHAR
STARTCHAR pB0
ENCODING 176
SWIDTH 480 0
DWIDTH 13 0
BBX 12 12 0 -2
BITMAP
3000
4800
4800
3000
0000
0000
0000
0000
0000
0000
0000
0000
ENDCHAR
STARTCHAR pB1
ENCODING 177
SWIDTH 480 0
DWIDTH 13 0
BBX 12 12 0 -2
BITMAP
0000
0400
0400
0400
7FC0
0400
0400
0400
0000
7FC0
0000
0000
ENDCHAR
STARTCHAR pB2
ENCODING 178
SWIDTH 480 0
DWIDTH 13 0
BBX 12 12 0 -2
BITMAP
00C0
0020
0040
0080
00E0
0000
0000
0000
0000
0000
0000
0000
ENDCHAR
STARTCHAR pB3
ENCODING 179
SWIDTH 480 0
DWIDTH 13 0
BBX 12 12 0 -2
BITMAP
00C0
0020
0040
0020
00C0
0000
0000
0000
0000
0000
0000
0000
ENDCHAR
STARTCHAR pB4
ENCODING 180
SWIDTH 480 0
DWIDTH 13 0
BBX 12 12 0 -2
BITMAP
0200
0400
0800
0000
0000
0000
0000
0000
0000
0000
0000
0000
ENDCHAR
STARTCHAR pB5
ENCODING 181
SWIDTH 480 0
DWIDTH 13 0
BBX 12 12 0 -2
BITMAP
0000
0000
0000
0000
1100
1100
1100
1100
1940
1680
1000
1000
ENDCHAR
STARTCHAR pB6
ENCODING 182
SWIDTH 480 0
DWIDTH 13 0
BBX 12 12 0 -2
BITMAP
0000
0F80
1C80
3C80
3C80
1C80
0C80
0480
0480
0480
0000
0000
ENDCHAR
STARTCHAR pB7
ENCODING 183
SWIDTH 480 0
DWIDTH 13 0
BBX 12 12 0 -2
BITMAP
0000
0000
0000
0000
0000
0600
0600
0000
0000
0000
0000
0000
ENDCHAR
STARTCHAR pB8
ENCODING 184
SWIDTH 480 0
DWIDTH 13 0
BBX 12 12 0 -2
BITMAP
0000
0000
0000
0000
0000
0000
0000
0000
0400
0600
0100
0600
ENDCHAR
STARTCHAR pB9
ENCODING 185
SWIDTH 480 0
DWIDTH 13 0
BBX 12 12 0 -2
BITMAP
0040
00C0
0040
0040
0040
0000
0000
0000
0000
0000
0000
0000
ENDCHAR
STARTCHAR pBA
ENCODING 186
SWIDTH 480 0
DWIDTH 13 0
BBX 12 12 0 -2
BITMAP
0000
0000
0F00
1080
1080
1080
1080
0F00
0000
1F80
0000
0000
ENDCHAR
STARTCHAR pBB
ENCODING 187
SWIDTH 480 0
DWIDTH 13 0
BBX 12 12 0 -2
BITMAP
0000
0000
1200
0900
0480
0240
0480
0900
1200
0000
0000
0000
ENDCHAR
STARTCHAR pBC
ENCODING 188
SWIDTH 480 0
DWIDTH 13 0
BBX 12 12 0 -2
BITMAP
1000
3000
1040
1080
1100
0200
0400
0840
10C0
2140
01E0
0040
ENDCHAR
STARTCHAR pBD
ENCODING 189
SWIDTH 480 0
DWIDTH 13 0
BBX 12 12 0 -2
BITMAP
1000
3000
1040
1080
1100
0200
0400
0980
1040
2080
0100
01C0
ENDCHAR
STARTCHAR pBE
ENCODING 190
SWIDTH 480 0
DWIDTH 13 0
BBX 12 12 0 -2
BITMAP
3000
0800
1040
0880
3100
0200
0400
0840
10C0
2140
01E0
0040
ENDCHAR
STARTCHAR pBF
ENCODING 191
SWIDTH 480 0
DWIDTH 13 0
BBX 12 12 0 -2
BITMAP
0000
0200
0200
0000
0200
0200
0400
0800
0880
0880
0700
0000
ENDCHAR
STARTCHAR pC6
ENCODING 198
SWIDTH 480 0
DWIDTH 13 0
BBX 12 12 0 -2
BITMAP
0000
07E0
0A00
0A00
1200
13C0
3E00
2200
4200
43E0
0000
0000
ENDCHAR
STARTCHAR pD0
ENCODING 208
SWIDTH 480 0
DWIDTH 13 0
BBX 12 12 0 -2
BITMAP
0000
1F00
1080
1040
1040
3C40
1040
1040
1080
1F00
0000
0000
ENDCHAR
STARTCHAR pD7
ENCODING 215
SWIDTH 480 0
DWIDTH 13 0
BBX 12 12 0 -2
BITMAP
0000
2020
1040
0880
0500
0200
0500
0880
1040
2020
0000
0000
ENDCHAR
STARTCHAR pD8
ENCODING 216
SWIDTH 480 0
DWIDTH 13 0
BBX 12 12 0 -2
BITMAP
0000
0F40
1080
2140
2240
2440
2440
2840
1080
2F00
0000
0000
ENDCHAR
STARTCHAR pDE
ENCODING 222
SWIDTH 480 0
DWIDTH 13 0
BBX 12 12 0 -2
BITMAP
0000
1000
1E00
1100
1100
1100
1100
1100
1E00
1000
0000
0000
ENDCHAR
STARTCHAR pDF
ENCODING 223
SWIDTH 480 0
DWIDTH 13 0
BBX 12 12 0 -2
BITMAP
0000
0F00
1080
1080
1080
1700
1080
1080
1880
1700
0000
0000
ENDCHAR
STARTCHAR pE6
ENCODING 230
SWIDTH 480 0
DWIDTH 13 0
BBX 12 12 0 -2
BITMAP
0000
0000
0000
0000
3B80
4440
3FC0
4400
4440
3B80
0000
0000
ENDCHAR
STARTCHAR pF0
ENCODING 240
SWIDTH 480 0
DWIDTH 13 0
BBX 12 12 0 -2
BITMAP
0000
0000
0000
0000
0E80
1100
0280
1F80
1080
0F00
0000
0000
ENDCHAR
STARTCHAR pF7
ENCODING 247
SWIDTH 480 0
DWIDTH 13 0
BBX 12 12 0 -2
BITMAP
0000
0000
0400
0000
0000
7FC0
0000
0000
0400
0000
0000
0000
ENDCHAR
STARTCHAR pF8
ENCODING 248
SWIDTH 480 0
DWIDTH 13 0
BBX 12 12 0 -2
BITMAP
0000
0000
0000
0000
0680
0900
1280
1480
0900
1600
0000
0000
ENDCHAR
STARTCHAR pFE
ENCODING 254
SWIDTH 480 0
DWIDTH 13 0
BBX 12 12 0 -2
BITMAP
0000
0000
0000
0000
0400
0700
0480
0480
0700
0400
0000
0000
ENDCHAR
STARTCHAR p110
ENCODING 272
SWIDTH 480 0
DWIDTH 13 0
BBX 12 12 0 -2
BITMAP
0000
0080
0FC0
0080
0E80
1180
1080
1080
1180
0E80
0000
0000
ENDCHAR
STARTCHAR p111
ENCODING 273
SWIDTH 480 0
DWIDTH 13 0
BBX 12 12 0 -2
BITMAP
0000
0080
0FC0
0080
0E80
1180
1080
1080
1180
0E80
0000
0000
ENDCHAR
STARTCHAR p126
ENCODING 294
SWIDTH 480 0
DWIDTH 13 0
BBX 12 12 0 -2
BITMAP
0000
1080
1080
7FE0
1080
1F80
1080
1080
1080
1080
0000
0000
ENDCHAR
STARTCHAR p127
ENCODING 295
SWIDTH 480 0
DWIDTH 13 0
BBX 12 12 0 -2
BITMAP
0000
1000
3F00
1000
1700
1880
1080
1080
1080
1080
0000
0000
ENDCHAR
STARTCHAR p131
ENCODING 305
SWIDTH 480 0
DWIDTH 13 0
BBX 12 12 0 -2
BITMAP
0000
0000
0000
0000
0200
0200
0200
0200
0200
0200
0000
0000
ENDCHAR
STARTCHAR p132
ENCODING 306
SWIDTH 480 0
DWIDTH 13 0
BBX 12 12 0 -2
BITMAP
0000
1040
1040
1040
1040
1040
1040
1040
1240
1180
0000
0000
ENDCHAR
STARTCHAR p133
ENCODING 307
SWIDTH 480 0
DWIDTH 13 0
BBX 12 12 0 -2
BITMAP
0000
1100
0000
0000
1100
1100
1100
1100
1100
1100
0100
0600
ENDCHAR
STARTCHAR p138
ENCODING 312
SWIDTH 480 0
DWIDTH 13 0
BBX 12 12 0 -2
BITMAP
0000
0000
0000
0000
0880
0900
0A00
0E00
0900
0880
0000
0000
ENDCHAR
STARTCHAR p13F
ENCODING 319
SWIDTH 480 0
DWIDTH 13 0
BBX 12 12 0 -2
BITMAP
0000
1000
1000
1000
1000
1080
1000
1000
1000
1F80
0000
0000
ENDCHAR
STARTCHAR p140
ENCODING 320
SWIDTH 480 0
DWIDTH 13 0
BBX 12 12 0 -2
BITMAP
0000
0400
0400
0400
0400
0480
0400
0400
0400
0400
0000
0000
ENDCHAR
STARTCHAR p141
ENCODING 321
SWIDTH 480 0
DWIDTH 13 0
BBX 12 12 0 -2
BITMAP
0000
0800
0A00
0C00
1800
2800
0800
0800
0800
0FC0
0000
0000
ENDCHAR
STARTCHAR p142
ENCODING 322
SWIDTH 480 0
DWIDTH 13 0
BBX 12 12 0 -2
BITMAP
0000
0400
0400
0500
0600
0400
0C00
1400
0400
0400
0000
0000
ENDCHAR
STARTCHAR p149
ENCODING 329
SWIDTH 480 0
DWIDTH 13 0
BBX 12 12 0 -2
BITMAP
0000
0000
0000
0000
1700
1880
1080
1080
1080
1080
0000
0000
ENDCHAR
STARTCHAR p14A
ENCODING 330
SWIDTH 480 0
DWIDTH 13 0
BBX 12 12 0 -2
BITMAP
0000
1000
1000
1000
1E00
1100
1080
1080
1080
1100
0600
0000
ENDCHAR
STARTCHAR p14B
ENCODING 331
SWIDTH 480 0
DWIDTH 13 0
BBX 12 12 0 -2
BITMAP
0000
0000
0000
0000
1700
1880
1080
1080
1080
1080
0080
0300
ENDCHAR
STARTCHAR p152
ENCODING 338
SWIDTH 480 0
DWIDTH 13 0
BBX 12 12 0 -2
BITMAP
0000
1FE0
2400
4200
4200
43C0
4200
4200
2400
1FE0
0000
0000
ENDCHAR
STARTCHAR p153
ENCODING 339
SWIDTH 480 0
DWIDTH 13 0
BBX 12 12 0 -2
BITMAP
0000
0000
0000
0000
3B80
4440
47C0
4400
4440
3B80
0000
0000
ENDCHAR
STARTCHAR p166
ENCODING 358
SWIDTH 480 0
DWIDTH 13 0
BBX 12 12 0 -2
BITMAP
0000
1FC0
0200
0200
0200
1FC0
0200
0200
0200
0200
0000
0000
ENDCHAR
STARTCHAR p167
ENCODING 359
SWIDTH 480 0
DWIDTH 13 0
BBX 12 12 0 -2
BITMAP
0000
0000
0400
0400
1F00
0400
1F00
0400
0400
0300
0000
0000
ENDCHAR
STARTCHAR p2C7
ENCODING 711
SWIDTH 480 0
DWIDTH 13 0
BBX 12 12 0 -2
BITMAP
1080
0900
0600
0000
0000
0000
0000
0000
0000
0000
0000
0000
ENDCHAR
STARTCHAR p2D0
ENCODING 720
SWIDTH 480 0
DWIDTH 13 0
BBX 12 12 0 -2
BITMAP
0000
0000
7000
2000
0000
0000
0000
0000
2000
7000
0000
0000
ENDCHAR
STARTCHAR p2D8
ENCODING 728
SWIDTH 480 0
DWIDTH 13 0
BBX 12 12 0 -2
BITMAP
0880
0700
0000
0000
0000
0000
0000
0000
0000
0000
0000
0000
ENDCHAR
STARTCHAR p2D9
ENCODING 729
SWIDTH 480 0
DWIDTH 13 0
BBX 12 12 0 -2
BITMAP
0600
0600
0000
0000
0000
0000
0000
0000
0000
0000
0000
0000
ENDCHAR
STARTCHAR p2DA
ENCODING 730
SWIDTH 480 0
DWIDTH 13 0
BBX 12 12 0 -2
BITMAP
0600
0900
0900
0600
0000
0000
0000
0000
0000
0000
0000
0000
ENDCHAR
STARTCHAR p2DB
ENCODING 731
SWIDTH 480 0
DWIDTH 13 0
BBX 12 12 0 -2
BITMAP
0000
0000
0000
0000
0000
0000
0000
0000
0200
0600
0800
0600
ENDCHAR
STARTCHAR p2DD
ENCODING 733
SWIDTH 480 0
DWIDTH 13 0
BBX 12 12 0 -2
BITMAP
0280
0500
0A00
0000
0000
0000
0000
0000
0000
0000
0000
0000
ENDCHAR
STARTCHAR p391
ENCODING 913
SWIDTH 480 0
DWIDTH 13 0
BBX 12 12 0 -2
BITMAP
0000
0400
0400
0A00
0A00
1100
1F00
2080
2080
2080
0000
0000
ENDCHAR
STARTCHAR p392
ENCODING 914
SWIDTH 480 0
DWIDTH 13 0
BBX 12 12 0 -2
BITMAP
0000
3F00
2080
2080
2080
3F00
2080
2080
2080
3F00
0000
0000
ENDCHAR
STARTCHAR p393
ENCODING 915
SWIDTH 480 0
DWIDTH 13 0
BBX 12 12 0 -2
BITMAP
0000
1FC0
1000
1000
1000
1000
1000
1000
1000
1000
0000
0000
ENDCHAR
STARTCHAR p394
ENCODING 916
SWIDTH 480 0
DWIDTH 13 0
BBX 12 12 0 -2
BITMAP
0000
0400
0400
0A00
0A00
1100
1100
2080
2080
7FC0
0000
0000
ENDCHAR
STARTCHAR p395
ENCODING 917
SWIDTH 480 0
DWIDTH 13 0
BBX 12 12 0 -2
BITMAP
0000
1FC0
1000
1000
1000
1F80
1000
1000
1000
1FC0
0000
0000
ENDCHAR
STARTCHAR p396
ENCODING 918
SWIDTH 480 0
DWIDTH 13 0
BBX 12 12 0 -2
BITMAP
0000
3F80
0080
0100
0200
0400
0800
1000
2000
3F80
0000
0000
ENDCHAR
STARTCHAR p397
ENCODING 919
SWIDTH 480 0
DWIDTH 13 0
BBX 12 12 0 -2
BITMAP
0000
2080
2080
2080
2080
3F80
2080
2080
2080
2080
0000
0000
ENDCHAR
STARTCHAR p398
ENCODING 920
SWIDTH 480 0
DWIDTH 13 0
BBX 12 12 0 -2
BITMAP
0000
1F00
2080
4040
4040
4E40
4040
4040
2080
1F00
0000
0000
ENDCHAR
STARTCHAR p399
ENCODING 921
SWIDTH 480 0
DWIDTH 13 0
BBX 12 12 0 -2
BITMAP
0000
0400
0400
0400
0400
0400
0400
0400
0400
0400
0000
0000
ENDCHAR
STARTCHAR p39A
ENCODING 922
SWIDTH 480 0
DWIDTH 13 0
BBX 12 12 0 -2
BITMAP
0000
2080
2100
2200
2400
2C00
3200
2100
2080
2040
0000
0000
ENDCHAR
STARTCHAR p39B
ENCODING 923
SWIDTH 480 0
DWIDTH 13 0
BBX 12 12 0 -2
BITMAP
0000
0400
0400
0A00
0A00
1100
1100
2080
2080
2080
0000
0000
ENDCHAR
STARTCHAR p39C
ENCODING 924
SWIDTH 480 0
DWIDTH 13 0
BBX 12 12 0 -2
BITMAP
0000
4040
60C0
60C0
5140
5140
4A40
4A40
4440
4440
0000
0000
ENDCHAR
STARTCHAR p39D
ENCODING 925
SWIDTH 480 0
DWIDTH 13 0
BBX 12 12 0 -2
BITMAP
0000
2040
3040
2840
2440
2240
2240
2140
20C0
2040
0000
0000
ENDCHAR
STARTCHAR p39E
ENCODING 926
SWIDTH 480 0
DWIDTH 13 0
BBX 12 12 0 -2
BITMAP
0000
3FC0
0000
0000
0000
1F80
0000
0000
0000
3FC0
0000
0000
ENDCHAR
STARTCHAR p39F
ENCODING 927
SWIDTH 480 0
DWIDTH 13 0
BBX 12 12 0 -2
BITMAP
0000
0F00
1080
2040
2040
2040
2040
2040
1080
0F00
0000
0000
ENDCHAR
STARTCHAR p3A0
ENCODING 928
SWIDTH 480 0
DWIDTH 13 0
BBX 12 12 0 -2
BITMAP
0000
3F80
2080
2080
2080
2080
2080
2080
2080
2080
0000
0000
ENDCHAR
STARTCHAR p3A1
ENCODING 929
SWIDTH 480 0
DWIDTH 13 0
BBX 12 12 0 -2
BITMAP
0000
1F00
1080
1080
1080
1F00
1000
1000
1000
1000
0000
0000
ENDCHAR
STARTCHAR p3A3
ENCODING 931
SWIDTH 480 0
DWIDTH 13 0
BBX 12 12 0 -2
BITMAP
0000
3FC0
1000
0800
0400
0200
0400
0800
1000
3FC0
0000
0000
ENDCHAR
STARTCHAR p3A4
ENCODING 932
SWIDTH 480 0
DWIDTH 13 0
BBX 12 12 0 -2
BITMAP
0000
7FC0
0400
0400
0400
0400
0400
0400
0400
0400
0000
0000
ENDCHAR
STARTCHAR p3A5
ENCODING 933
SWIDTH 480 0
DWIDTH 13 0
BBX 12 12 0 -2
BITMAP
0000
2080
1100
0A00
0400
0400
0400
0400
0400
0400
0000
0000
ENDCHAR
STARTCHAR p3A6
ENCODING 934
SWIDTH 480 0
DWIDTH 13 0
BBX 12 12 0 -2
BITMAP
0000
0400
0400
3F80
4440
4440
4440
3F80
0400
0400
0000
0000
ENDCHAR
STARTCHAR p3A7
ENCODING 935
SWIDTH 480 0
DWIDTH 13 0
BBX 12 12 0 -2
BITMAP
0000
1100
1100
0A00
0A00
0400
0A00
0A00
1100
1100
0000
0000
ENDCHAR
STARTCHAR p3A8
ENCODING 936
SWIDTH 480 0
DWIDTH 13 0
BBX 12 12 0 -2
BITMAP
0000
2480
2480
2480
2480
2480
1500
0E00
0400
0400
0000
0000
ENDCHAR
STARTCHAR p3A9
ENCODING 937
SWIDTH 480 0
DWIDTH 13 0
BBX 12 12 0 -2
BITMAP
0000
0F00
1080
2040
2040
2040
2040
1080
0900
39C0
0000
0000
ENDCHAR
STARTCHAR p3B1
ENCODING 945
SWIDTH 480 0
DWIDTH 13 0
BBX 12 12 0 -2
BITMAP
0000
0000
0000
0000
0D00
1300
1100
1100
1140
0E80
0000
0000
ENDCHAR
STARTCHAR p3B2
ENCODING 946
SWIDTH 480 0
DWIDTH 13 0
BBX 12 12 0 -2
BITMAP
0000
0E00
1100
1100
1100
1600
1100
1080
1080
1F00
1000
1000
ENDCHAR
STARTCHAR p3B3
ENCODING 947
SWIDTH 480 0
DWIDTH 13 0
BBX 12 12 0 -2
BITMAP
0000
0000
0000
0000
1040
0880
0480
0500
0500
0200
0200
0200
ENDCHAR
STARTCHAR p3B4
ENCODING 948
SWIDTH 480 0
DWIDTH 13 0
BBX 12 12 0 -2
BITMAP
0000
0F00
0800
0400
0E00
1100
1080
1080
1080
0F00
0000
0000
ENDCHAR
STARTCHAR p3B5
ENCODING 949
SWIDTH 480 0
DWIDTH 13 0
BBX 12 12 0 -2
BITMAP
0000
0000
0000
0000
0780
0800
0700
0800
0880
0700
0000
0000
ENDCHAR
STARTCHAR p3B6
ENCODING 950
SWIDTH 480 0
DWIDTH 13 0
BBX 12 12 0 -2
BITMAP
0000
1F00
0200
0400
0800
0800
1000
1000
1000
0F00
0080
0100
ENDCHAR
STARTCHAR p3B7
ENCODING 951
SWIDTH 480 0
DWIDTH 13 0
BBX 12 12 0 -2
BITMAP
0000
0000
0000
0000
1700
2880
0880
0880
0880
0880
0080
0080
ENDCHAR
STARTCHAR p3B8
ENCODING 952
SWIDTH 480 0
DWIDTH 13 0
BBX 12 12 0 -2
BITMAP
0000
0F00
1080
1080
1080
1F80
1080
1080
1080
0F00
0000
0000
ENDCHAR
STARTCHAR p3B9
ENCODING 953
SWIDTH 480 0
DWIDTH 13 0
BBX 12 12 0 -2
BITMAP
0000
0000
0000
0000
0800
0800
0800
0800
0800
0600
0000
0000
ENDCHAR
STARTCHAR p3BA
ENCODING 954
SWIDTH 480 0
DWIDTH 13 0
BBX 12 12 0 -2
BITMAP
0000
0000
0000
0000
0880
0900
0A00
0E00
0900
0880
0000
0000
ENDCHAR
STARTCHAR p3BB
ENCODING 955
SWIDTH 480 0
DWIDTH 13 0
BBX 12 12 0 -2
BITMAP
0000
0C00
0200
0200
0200
0200
0500
0500
0900
08C0
0000
0000
ENDCHAR
STARTCHAR p3BC
ENCODING 956
SWIDTH 480 0
DWIDTH 13 0
BBX 12 12 0 -2
BITMAP
0000
0000
0000
0000
1100
1100
1100
1100
1940
1680
1000
1000
ENDCHAR
STARTCHAR p3BD
ENCODING 957
SWIDTH 480 0
DWIDTH 13 0
BBX 12 12 0 -2
BITMAP
0000
0000
0000
0000
1100
1100
0A00
0A00
0400
0400
0000
0000
ENDCHAR
STARTCHAR p3BE
ENCODING 958
SWIDTH 480 0
DWIDTH 13 0
BBX 12 12 0 -2
BITMAP
0000
0F00
0600
0800
0800
0700
0800
0800
0800
0700
0080
0100
ENDCHAR
STARTCHAR p3BF
ENCODING 959
SWIDTH 480 0
DWIDTH 13 0
BBX 12 12 0 -2
BITMAP
0000
0000
0000
0000
0F00
1080
1080
1080
1080
0F00
0000
0000
ENDCHAR
STARTCHAR p3C0
ENCODING 960
SWIDTH 480 0
DWIDTH 13 0
BBX 12 12 0 -2
BITMAP
0000
0000
0000
0000
1F80
0900
0900
0900
0900
0980
0000
0000
ENDCHAR
STARTCHAR p3C1
ENCODING 961
SWIDTH 480 0
DWIDTH 13 0
BBX 12 12 0 -2
BITMAP
0000
0000
0000
0000
0F00
1080
1080
1080
1880
1700
1000
1000
ENDCHAR
STARTCHAR p3C3
ENCODING 963
SWIDTH 480 0
DWIDTH 13 0
BBX 12 12 0 -2
BITMAP
0000
0000
0000
0000
0F00
1200
1100
1100
1100
0E00
0000
0000
ENDCHAR
STARTCHAR p3C4
ENCODING 964
SWIDTH 480 0
DWIDTH 13 0
BBX 12 12 0 -2
BITMAP
0000
0000
0000
0000
1F00
0400
0400
0400
0400
0300
0000
0000
ENDCHAR
STARTCHAR p3C5
ENCODING 965
SWIDTH 480 0
DWIDTH 13 0
BBX 12 12 0 -2
BITMAP
0000
0000
0000
0000
1100
1100
1100
1100
1100
0E00
0000
0000
ENDCHAR
STARTCHAR p3C6
ENCODING 966
SWIDTH 480 0
DWIDTH 13 0
BBX 12 12 0 -2
BITMAP
0000
0400
0400
0400
1F00
2480
2480
2480
2480
1F00
0400
0400
ENDCHAR
STARTCHAR p3C7
ENCODING 967
SWIDTH 480 0
DWIDTH 13 0
BBX 12 12 0 -2
BITMAP
0000
0000
0000
0000
3080
0900
0A00
0400
0400
0A00
1240
2180
ENDCHAR
STARTCHAR p3C8
ENCODING 968
SWIDTH 480 0
DWIDTH 13 0
BBX 12 12 0 -2
BITMAP
0000
0400
0400
0400
2480
2480
2480
2480
2480
1F00
0400
0400
ENDCHAR
STARTCHAR p3C9
ENCODING 969
SWIDTH 480 0
DWIDTH 13 0
BBX 12 12 0 -2
BITMAP
0000
0000
0000
0000
2080
4040
4440
4440
4440
3B80
0000
0000
ENDCHAR
STARTCHAR p401
ENCODING 1025
SWIDTH 480 0
DWIDTH 13 0
BBX 12 12 0 -2
BITMAP
0880
1FC0
1000
1000
1000
1F80
1000
1000
1000
1FC0
0000
0000
ENDCHAR
STARTCHAR p410
ENCODING 1040
SWIDTH 480 0
DWIDTH 13 0
BBX 12 12 0 -2
BITMAP
0000
0400
0400
0A00
0A00
1100
1F00
2080
2080
2080
0000
0000
ENDCHAR
STARTCHAR p411
ENCODING 1041
SWIDTH 480 0
DWIDTH 13 0
BBX 12 12 0 -2
BITMAP
0000
1F80
1000
1000
1000
1F80
1040
1040
1040
1F80
0000
0000
ENDCHAR
STARTCHAR p412
ENCODING 1042
SWIDTH 480 0
DWIDTH 13 0
BBX 12 12 0 -2
BITMAP
0000
1F80
1040
1040
1040
1F80
1040
1040
1040
1F80
0000
0000
ENDCHAR
STARTCHAR p413
ENCODING 1043
SWIDTH 480 0
DWIDTH 13 0
BBX 12 12 0 -2
BITMAP
0000
1FC0
1000
1000
1000
1000
1000
1000
1000
1000
0000
0000
ENDCHAR
STARTCHAR p414
ENCODING 1044
SWIDTH 480 0
DWIDTH 13 0
BBX 12 12 0 -2
BITMAP
0000
0F80
0880
0880
0880
0880
1080
1080
2080
7FC0
4040
4040
ENDCHAR
STARTCHAR p415
ENCODING 1045
SWIDTH 480 0
DWIDTH 13 0
BBX 12 12 0 -2
BITMAP
0000
1FC0
1000
1000
1000
1F80
1000
1000
1000
1FC0
0000
0000
ENDCHAR
STARTCHAR p416
ENCODING 1046
SWIDTH 480 0
DWIDTH 13 0
BBX 12 12 0 -2
BITMAP
0000
C460
2480
2480
1500
1F00
2480
4440
8420
8420
0000
0000
ENDCHAR
STARTCHAR p417
ENCODING 1047
SWIDTH 480 0
DWIDTH 13 0
BBX 12 12 0 -2
BITMAP
0000
1F00
2080
0080
0080
0F00
0080
0080
2080
1F00
0000
0000
ENDCHAR
STARTCHAR p418
ENCODING 1048
SWIDTH 480 0
DWIDTH 13 0
BBX 12 12 0 -2
BITMAP
0000
2040
20C0
2140
2240
2240
2440
2840
3040
2040
0000
0000
ENDCHAR
STARTCHAR p419
ENCODING 1049
SWIDTH 480 0
DWIDTH 13 0
BBX 12 12 0 -2
BITMAP
0900
2640
20C0
2140
2240
2240
2440
2840
3040
2040
0000
0000
ENDCHAR
STARTCHAR p41A
ENCODING 1050
SWIDTH 480 0
DWIDTH 13 0
BBX 12 12 0 -2
BITMAP
0000
1080
1100
1200
1400
1C00
1200
1100
1080
1040
0000
0000
ENDCHAR
STARTCHAR p41B
ENCODING 1051
SWIDTH 480 0
DWIDTH 13 0
BBX 12 12 0 -2
BITMAP
0000
1F80
1080
1080
1080
1080
1080
1080
1080
6080
0000
0000
ENDCHAR
STARTCHAR p41C
ENCODING 1052
SWIDTH 480 0
DWIDTH 13 0
BBX 12 12 0 -2
BITMAP
0000
4040
60C0
60C0
5140
5140
4A40
4A40
4440
4440
0000
0000
ENDCHAR
STARTCHAR p41D
ENCODING 1053
SWIDTH 480 0
DWIDTH 13 0
BBX 12 12 0 -2
BITMAP
0000
2080
2080
2080
2080
3F80
2080
2080
2080
2080
0000
0000
ENDCHAR
STARTCHAR p41E
ENCODING 1054
SWIDTH 480 0
DWIDTH 13 0
BBX 12 12 0 -2
BITMAP
0000
0F00
1080
2040
2040
2040
2040
2040
1080
0F00
0000
0000
ENDCHAR
STARTCHAR p41F
ENCODING 1055
SWIDTH 480 0
DWIDTH 13 0
BBX 12 12 0 -2
BITMAP
0000
3F80
2080
2080
2080
2080
2080
2080
2080
2080
0000
0000
ENDCHAR
STARTCHAR p420
ENCODING 1056
SWIDTH 480 0
DWIDTH 13 0
BBX 12 12 0 -2
BITMAP
0000
1F00
1080
1040
1040
1080
1F00
1000
1000
1000
0000
0000
ENDCHAR
STARTCHAR p421
ENCODING 1057
SWIDTH 480 0
DWIDTH 13 0
BBX 12 12 0 -2
BITMAP
0000
0F00
1080
2000
2000
2000
2000
2000
1080
0F00
0000
0000
ENDCHAR
STARTCHAR p422
ENCODING 1058
SWIDTH 480 0
DWIDTH 13 0
BBX 12 12 0 -2
BITMAP
0000
3FE0
0200
0200
0200
0200
0200
0200
0200
0200
0000
0000
ENDCHAR
STARTCHAR p423
ENCODING 1059
SWIDTH 480 0
DWIDTH 13 0
BBX 12 12 0 -2
BITMAP
0000
1040
1040
0880
0880
0500
0500
0200
0200
0C00
0000
0000
ENDCHAR
STARTCHAR p424
ENCODING 1060
SWIDTH 480 0
DWIDTH 13 0
BBX 12 12 0 -2
BITMAP
0000
0200
0200
1FC0
2220
2220
2220
1FC0
0200
0200
0000
0000
ENDCHAR
STARTCHAR p425
ENCODING 1061
SWIDTH 480 0
DWIDTH 13 0
BBX 12 12 0 -2
BITMAP
0000
4040
2080
1100
0A00
0400
0A00
1100
2080
4040
0000
0000
ENDCHAR
STARTCHAR p426
ENCODING 1062
SWIDTH 480 0
DWIDTH 13 0
BBX 12 12 0 -2
BITMAP
0000
2080
2080
2080
2080
2080
2080
2080
2080
3FC0
0040
0040
ENDCHAR
STARTCHAR p427
ENCODING 1063
SWIDTH 480 0
DWIDTH 13 0
BBX 12 12 0 -2
BITMAP
0000
2040
2040
2040
2040
2040
10C0
0F40
0040
0040
0000
0000
ENDCHAR
STARTCHAR p428
ENCODING 1064
SWIDTH 480 0
DWIDTH 13 0
BBX 12 12 0 -2
BITMAP
0000
4440
4440
4440
4440
4440
4440
4440
4440
7FC0
0000
0000
ENDCHAR
STARTCHAR p429
ENCODING 1065
SWIDTH 480 0
DWIDTH 13 0
BBX 12 12 0 -2
BITMAP
0000
4440
4440
4440
4440
4440
4440
4440
4440
7FE0
0020
0020
ENDCHAR
STARTCHAR p42A
ENCODING 1066
SWIDTH 480 0
DWIDTH 13 0
BBX 12 12 0 -2
BITMAP
0000
3800
0800
0800
0F80
0840
0840
0840
0840
0F80
0000
0000
ENDCHAR
STARTCHAR p42B
ENCODING 1067
SWIDTH 480 0
DWIDTH 13 0
BBX 12 12 0 -2
BITMAP
0000
2040
2040
2040
3C40
2240
2240
2240
2240
3C40
0000
0000
ENDCHAR
STARTCHAR p42C
ENCODING 1068
SWIDTH 480 0
DWIDTH 13 0
BBX 12 12 0 -2
BITMAP
0000
1000
1000
1000
1F00
1080
1080
1080
1080
1F00
0000
0000
ENDCHAR
STARTCHAR p42D
ENCODING 1069
SWIDTH 480 0
DWIDTH 13 0
BBX 12 12 0 -2
BITMAP
0000
1E00
2100
0080
0080
0F80
0080
0080
2100
1E00
0000
0000
ENDCHAR
STARTCHAR p42E
ENCODING 1070
SWIDTH 480 0
DWIDTH 13 0
BBX 12 12 0 -2
BITMAP
0000
2180
2240
2420
2420
3C20
2420
2420
2240
2180
0000
0000
ENDCHAR
STARTCHAR p42F
ENCODING 1071
SWIDTH 480 0
DWIDTH 13 0
BBX 12 12 0 -2
BITMAP
0000
0FC0
1040
1040
1040
0FC0
0440
0840
1040
2040
0000
0000
ENDCHAR
STARTCHAR p430
ENCODING 1072
SWIDTH 480 0
DWIDTH 13 0
BBX 12 12 0 -2
BITMAP
0000
0000
0000
0000
0E00
1100
0F00
1100
1100
0E80
0000
0000
ENDCHAR
STARTCHAR p431
ENCODING 1073
SWIDTH 480 0
DWIDTH 13 0
BBX 12 12 0 -2
BITMAP
0080
0F00
1000
1000
1700
1880
1080
1080
1080
0F00
0000
0000
ENDCHAR
STARTCHAR p432
ENCODING 1074
SWIDTH 480 0
DWIDTH 13 0
BBX 12 12 0 -2
BITMAP
0000
0000
0000
0000
1F00
1080
1F00
1080
1080
1F00
0000
0000
ENDCHAR
STARTCHAR p433
ENCODING 1075
SWIDTH 480 0
DWIDTH 13 0
BBX 12 12 0 -2
BITMAP
0000
0000
0000
0000
1F80
1000
1000
1000
1000
1000
0000
0000
ENDCHAR
STARTCHAR p434
ENCODING 1076
SWIDTH 480 0
DWIDTH 13 0
BBX 12 12 0 -2
BITMAP
0000
0000
0000
0000
0F80
0880
0880
0880
1080
3FC0
2040
2040
ENDCHAR
STARTCHAR p435
ENCODING 1077
SWIDTH 480 0
DWIDTH 13 0
BBX 12 12 0 -2
BITMAP
0000
0000
0000
0000
0F00
1080
1F80
1000
1080
0F00
0000
0000
ENDCHAR
STARTCHAR p436
ENCODING 1078
SWIDTH 480 0
DWIDTH 13 0
BBX 12 12 0 -2
BITMAP
0000
0000
0000
0000
64C0
1500
1F00
2480
4440
4440
0000
0000
ENDCHAR
STARTCHAR p437
ENCODING 1079
SWIDTH 480 0
DWIDTH 13 0
BBX 12 12 0 -2
BITMAP
0000
0000
0000
0000
0F00
1080
0700
0080
1080
0F00
0000
0000
ENDCHAR
STARTCHAR p438
ENCODING 1080
SWIDTH 480 0
DWIDTH 13 0
BBX 12 12 0 -2
BITMAP
0000
0000
0000
0000
1080
1180
1280
1480
1880
1080
0000
0000
ENDCHAR
STARTCHAR p439
ENCODING 1081
SWIDTH 480 0
DWIDTH 13 0
BBX 12 12 0 -2
BITMAP
0000
0900
0600
0000
1080
1180
1280
1480
1880
1080
0000
0000
ENDCHAR
STARTCHAR p43A
ENCODING 1082
SWIDTH 480 0
DWIDTH 13 0
BBX 12 12 0 -2
BITMAP
0000
0000
0000
0000
1100
1200
1400
1A00
1100
1080
0000
0000
ENDCHAR
STARTCHAR p43B
ENCODING 1083
SWIDTH 480 0
DWIDTH 13 0
BBX 12 12 0 -2
BITMAP
0000
0000
0000
0000
0F80
0880
0880
0880
0880
3080
0000
0000
ENDCHAR
STARTCHAR p43C
ENCODING 1084
SWIDTH 480 0
DWIDTH 13 0
BBX 12 12 0 -2
BITMAP
0000
0000
0000
0000
1040
18C0
18C0
1540
1540
1240
0000
0000
ENDCHAR
STARTCHAR p43D
ENCODING 1085
SWIDTH 480 0
DWIDTH 13 0
BBX 12 12 0 -2
BITMAP
0000
0000
0000
0000
1080
1080
1F80
1080
1080
1080
0000
0000
ENDCHAR
STARTCHAR p43E
ENCODING 1086
SWIDTH 480 0
DWIDTH 13 0
BBX 12 12 0 -2
BITMAP
0000
0000
0000
0000
0F00
1080
1080
1080
1080
0F00
0000
0000
ENDCHAR
STARTCHAR p43F
ENCODING 1087
SWIDTH 480 0
DWIDTH 13 0
BBX 12 12 0 -2
BITMAP
0000
0000
0000
0000
1F80
1080
1080
1080
1080
1080
0000
0000
ENDCHAR
STARTCHAR p440
ENCODING 1088
SWIDTH 480 0
DWIDTH 13 0
BBX 12 12 0 -2
BITMAP
0000
0000
0000
0000
1700
1880
1080
1080
1880
1700
1000
1000
ENDCHAR
STARTCHAR p441
ENCODING 1089
SWIDTH 480 0
DWIDTH 13 0
BBX 12 12 0 -2
BITMAP
0000
0000
0000
0000
0700
0880
1000
1000
0880
0700
0000
0000
ENDCHAR
STARTCHAR p442
ENCODING 1090
SWIDTH 480 0
DWIDTH 13 0
BBX 12 12 0 -2
BITMAP
0000
0000
0000
0000
1FC0
0200
0200
0200
0200
0200
0000
0000
ENDCHAR
STARTCHAR p443
ENCODING 1091
SWIDTH 480 0
DWIDTH 13 0
BBX 12 12 0 -2
BITMAP
0000
0000
0000
0000
1080
1080
0880
0900
0500
0200
0400
1800
ENDCHAR
STARTCHAR p444
ENCODING 1092
SWIDTH 480 0
DWIDTH 13 0
BBX 12 12 0 -2
BITMAP
0000
0400
0400
0400
3580
4E40
4440
4440
4E40
3580
0400
0400
ENDCHAR
STARTCHAR p445
ENCODING 1093
SWIDTH 480 0
DWIDTH 13 0
BBX 12 12 0 -2
BITMAP
0000
0000
0000
0000
1080
0900
0600
0600
0900
1080
0000
0000
ENDCHAR
STARTCHAR p446
ENCODING 1094
SWIDTH 480 0
DWIDTH 13 0
BBX 12 12 0 -2
BITMAP
0000
0000
0000
0000
1080
1080
1080
1080
1080
1FC0
0040
0040
ENDCHAR
STARTCHAR p447
ENCODING 1095
SWIDTH 480 0
DWIDTH 13 0
BBX 12 12 0 -2
BITMAP
0000
0000
0000
0000
1080
1080
1080
1080
1180
0E80
0080
0080
ENDCHAR
STARTCHAR p448
ENCODING 1096
SWIDTH 480 0
DWIDTH 13 0
BBX 12 12 0 -2
BITMAP
0000
0000
0000
0000
4440
4440
4440
4440
4440
7FC0
0000
0000
ENDCHAR
STARTCHAR p449
ENCODING 1097
SWIDTH 480 0
DWIDTH 13 0
BBX 12 12 0 -2
BITMAP
0000
0000
0000
0000
4440
4440
4440
4440
4440
7FE0
0020
0020
ENDCHAR
STARTCHAR p44A
ENCODING 1098
SWIDTH 480 0
DWIDTH 13 0
BBX 12 12 0 -2
BITMAP
0000
0000
0000
0000
3800
0800
0F00
0880
0880
0F00
0000
0000
ENDCHAR
STARTCHAR p44B
ENCODING 1099
SWIDTH 480 0
DWIDTH 13 0
BBX 12 12 0 -2
BITMAP
0000
0000
0000
0000
2080
2080
3C80
2280
2280
3C80
0000
0000
ENDCHAR
STARTCHAR p44C
ENCODING 1100
SWIDTH 480 0
DWIDTH 13 0
BBX 12 12 0 -2
BITMAP
0000
0000
0000
0000
0800
0800
0F00
0880
0880
0F00
0000
0000
ENDCHAR
STARTCHAR p44D
ENCODING 1101
SWIDTH 480 0
DWIDTH 13 0
BBX 12 12 0 -2
BITMAP
0000
0000
0000
0000
0F00
1080
0780
0080
1080
0F00
0000
0000
ENDCHAR
STARTCHAR p44E
ENCODING 1102
SWIDTH 480 0
DWIDTH 13 0
BBX 12 12 0 -2
BITMAP
0000
0000
0000
0000
23C0
2420
3C20
2420
2420
23C0
0000
0000
ENDCHAR
STARTCHAR p44F
ENCODING 1103
SWIDTH 480 0
DWIDTH 13 0
BBX 12 12 0 -2
BITMAP
0000
0000
0000
0000
0F80
1080
1080
0F80
0880
1080
0000
0000
ENDCHAR
STARTCHAR p451
ENCODING 1105
SWIDTH 480 0
DWIDTH 13 0
BBX 12 12 0 -2
BITMAP
0000
0000
0900
0000
0F00
1080
1F80
1000
1080
0F00
0000
0000
ENDCHAR
STARTCHAR p2015
ENCODING 8213
SWIDTH 480 0
DWIDTH 13 0
BBX 12 12 0 -2
BITMAP
0000
0000
0000
0000
0000
0000
7FE0
0000
0000
0000
0000
0000
ENDCHAR
STARTCHAR p2018
ENCODING 8216
SWIDTH 480 0
DWIDTH 13 0
BBX 12 12 0 -2
BITMAP
0000
0200
0400
0600
0600
0000
0000
0000
0000
0000
0000
0000
ENDCHAR
STARTCHAR p2019
ENCODING 8217
SWIDTH 480 0
DWIDTH 13 0
BBX 12 12 0 -2
BITMAP
0000
0600
0600
0200
0400
0000
0000
0000
0000
0000
0000
0000
ENDCHAR
STARTCHAR p201C
ENCODING 8220
SWIDTH 480 0
DWIDTH 9 0
BBX 9 12 0 -2
BITMAP
0000
0900
1200
1B00
1B00
0000
0000
0000
0000
0000
0000
0000
ENDCHAR
STARTCHAR p201D
ENCODING 8221
SWIDTH 480 0
DWIDTH 9 0
BBX 9 12 0 -2
BITMAP
0000
1B00
1B00
0900
1200
0000
0000
0000
0000
0000
0000
0000
ENDCHAR
STARTCHAR p2020
ENCODING 8224
SWIDTH 480 0
DWIDTH 13 0
BBX 12 12 0 -2
BITMAP
0200
0700
0A80
1FC0
0A80
0700
0700
0200
0200
0200
0200
0000
ENDCHAR
STARTCHAR p2021
ENCODING 8225
SWIDTH 480 0
DWIDTH 13 0
BBX 12 12 0 -2
BITMAP
0200
0700
0A80
1FC0
0A80
0200
0F80
0200
0700
0200
0200
0000
ENDCHAR
STARTCHAR p2025
ENCODING 8229
SWIDTH 480 0
DWIDTH 13 0
BBX 12 12 0 -2
BITMAP
0000
0000
0000
0000
0000
30C0
30C0
0000
0000
0000
0000
0000
ENDCHAR
STARTCHAR p2026
ENCODING 8230
SWIDTH 480 0
DWIDTH 13 0
BBX 12 12 0 -2
BITMAP
0000
0000
0000
0000
0000
6660
6660
0000
0000
0000
0000
0000
ENDCHAR
STARTCHAR p2030
ENCODING 8240
SWIDTH 480 0
DWIDTH 13 0
BBX 12 12 0 -2
BITMAP
0000
E400
A400
A800
E800
1000
1000
2EE0
2AA0
4AA0
4EE0
0000
ENDCHAR
STARTCHAR p2032
ENCODING 8242
SWIDTH 480 0
DWIDTH 13 0
BBX 12 12 0 -2
BITMAP
1000
1000
2000
0000
0000
0000
0000
0000
0000
0000
0000
0000
ENDCHAR
STARTCHAR p2033
ENCODING 8243
SWIDTH 480 0
DWIDTH 13 0
BBX 12 12 0 -2
BITMAP
4800
4800
9000
0000
0000
0000
0000
0000
0000
0000
0000
0000
ENDCHAR
STARTCHAR p203B
ENCODING 8251
SWIDTH 480 0
DWIDTH 13 0
BBX 12 12 0 -2
BITMAP
0000
4620
2640
1080
0900
6660
6660
0900
1080
2640
4620
0000
ENDCHAR
STARTCHAR p2074
ENCODING 8308
SWIDTH 480 0
DWIDTH 13 0
BBX 12 12 0 -2
BITMAP
0040
00C0
0140
01E0
0040
0000
0000
0000
0000
0000
0000
0000
ENDCHAR
STARTCHAR p207F
ENCODING 8319
SWIDTH 480 0
DWIDTH 13 0
BBX 12 12 0 -2
BITMAP
7000
4800
4800
4800
0000
0000
0000
0000
0000
0000
0000
0000
ENDCHAR
STARTCHAR p2081
ENCODING 8321
SWIDTH 480 0
DWIDTH 13 0
BBX 12 12 0 -2
BITMAP
0000
0000
0000
0000
0000
0000
0000
0040
00C0
0040
0040
0040
ENDCHAR
STARTCHAR p2082
ENCODING 8322
SWIDTH 480 0
DWIDTH 13 0
BBX 12 12 0 -2
BITMAP
0000
0000
0000
0000
0000
0000
0000
00C0
0020
0040
0080
00E0
ENDCHAR
STARTCHAR p2083
ENCODING 8323
SWIDTH 480 0
DWIDTH 13 0
BBX 12 12 0 -2
BITMAP
0000
0000
0000
0000
0000
0000
0000
00C0
0020
0040
0020
00C0
ENDCHAR
STARTCHAR p2084
ENCODING 8324
SWIDTH 480 0
DWIDTH 13 0
BBX 12 12 0 -2
BITMAP
0000
0000
0000
0000
0000
0000
0000
0040
00C0
0140
01E0
0040
ENDCHAR
STARTCHAR p2103
ENCODING 8451
SWIDTH 480 0
DWIDTH 13 0
BBX 12 12 0 -2
BITMAP
E000
A000
E780
0840
1020
1000
1000
1000
1020
0840
0780
0000
ENDCHAR
STARTCHAR p2109
ENCODING 8457
SWIDTH 480 0
DWIDTH 13 0
BBX 12 12 0 -2
BITMAP
E000
A7E0
E400
0400
0400
07C0
0400
0400
0400
0400
0400
0000
ENDCHAR
STARTCHAR p2113
ENCODING 8467
SWIDTH 480 0
DWIDTH 13 0
BBX 12 12 0 -2
BITMAP
0000
0200
0500
0500
0500
0500
0500
0600
0C00
1300
0000
0000
ENDCHAR
STARTCHAR p2116
ENCODING 8470
SWIDTH 480 0
DWIDTH 13 0
BBX 12 12 0 -2
BITMAP
0000
4400
6400
6400
54C0
5520
5520
4D20
4D20
44D0
0000
0000
ENDCHAR
STARTCHAR p2121
ENCODING 8481
SWIDTH 480 0
DWIDTH 13 0
BBX 12 12 0 -2
BITMAP
F820
2020
2020
2020
2620
2920
2F20
2820
2920
2620
0000
0000
ENDCHAR
STARTCHAR p2122
ENCODING 8482
SWIDTH 480 0
DWIDTH 13 0
BBX 12 12 0 -2
BITMAP
0000
FA20
2360
2360
2360
2360
22A0
22A0
22A0
22A0
0000
0000
ENDCHAR
STARTCHAR p2126
ENCODING 8486
SWIDTH 480 0
DWIDTH 13 0
BBX 12 12 0 -2
BITMAP
0000
0F00
1080
2040
2040
2040
2040
1080
0900
39C0
0000
0000
ENDCHAR
STARTCHAR p212B
ENCODING 8491
SWIDTH 480 0
DWIDTH 13 0
BBX 12 12 0 -2
BITMAP
0E00
0A00
0E00
0400
0A00
0A00
1100
1100
3F80
2080
2080
0000
ENDCHAR
STARTCHAR p2153
ENCODING 8531
SWIDTH 480 0
DWIDTH 13 0
BBX 12 12 0 -2
BITMAP
1000
3000
1040
1080
1100
0200
0400
0980
1040
2080
0040
0180
ENDCHAR
STARTCHAR p2154
ENCODING 8532
SWIDTH 480 0
DWIDTH 13 0
BBX 12 12 0 -2
BITMAP
3000
0800
1040
2080
3900
0200
0400
0980
1040
2080
0040
0180
ENDCHAR
STARTCHAR p215B
ENCODING 8539
SWIDTH 480 0
DWIDTH 13 0
BBX 12 12 0 -2
BITMAP
1000
3000
1040
1080
1100
0200
0400
08C0
1120
20C0
0120
00C0
ENDCHAR
STARTCHAR p215C
ENCODING 8540
SWIDTH 480 0
DWIDTH 13 0
BBX 12 12 0 -2
BITMAP
3000
0800
1040
0880
3100
0200
0400
08C0
1120
20C0
0120
00C0
ENDCHAR
STARTCHAR p215D
ENCODING 8541
SWIDTH 480 0
DWIDTH 13 0
BBX 12 12 0 -2
BITMAP
3800
2000
3040
0880
3100
0200
0400
08C0
1120
20C0
0120
00C0
ENDCHAR
STARTCHAR p215E
ENCODING 8542
SWIDTH 480 0
DWIDTH 13 0
BBX 12 12 0 -2
BITMAP
3800
0800
1040
1080
1100
0200
0400
08C0
1120
20C0
0120
00C0
ENDCHAR
STARTCHAR p2160
ENCODING 8544
SWIDTH 480 0
DWIDTH 13 0
BBX 12 12 0 -2
BITMAP
0000
0400
0400
0400
0400
0400
0400
0400
0400
0400
0000
0000
ENDCHAR
STARTCHAR p2161
ENCODING 8545
SWIDTH 480 0
DWIDTH 13 0
BBX 12 12 0 -2
BITMAP
0000
0900
0900
0900
0900
0900
0900
0900
0900
0900
0000
0000
ENDCHAR
STARTCHAR p2162
ENCODING 8546
SWIDTH 480 0
DWIDTH 13 0
BBX 12 12 0 -2
BITMAP
0000
2480
2480
2480
2480
2480
2480
2480
2480
2480
0000
0000
ENDCHAR
STARTCHAR p2163
ENCODING 8547
SWIDTH 480 0
DWIDTH 13 0
BBX 12 12 0 -2
BITMAP
0000
2440
2440
2440
2440
2280
2280
2280
2100
2100
0000
0000
ENDCHAR
STARTCHAR p2164
ENCODING 8548
SWIDTH 480 0
DWIDTH 13 0
BBX 12 12 0 -2
BITMAP
0000
2080
2080
2080
1100
1100
0A00
0A00
0400
0400
0000
0000
ENDCHAR
STARTCHAR p2165
ENCODING 8549
SWIDTH 480 0
DWIDTH 13 0
BBX 12 12 0 -2
BITMAP
0000
2240
2240
2240
2240
1440
1440
1440
0840
0840
0000
0000
ENDCHAR
STARTCHAR p2166
ENCODING 8550
SWIDTH 480 0
DWIDTH 13 0
BBX 12 12 0 -2
BITMAP
0000
4540
4540
4540
4540
2940
2940
2940
1140
1140
0000
0000
ENDCHAR
STARTCHAR p2167
ENCODING 8551
SWIDTH 480 0
DWIDTH 13 0
BBX 12 12 0 -2
BITMAP
0000
8AA0
8AA0
8AA0
8AA0
52A0
52A0
52A0
22A0
22A0
0000
0000
ENDCHAR
STARTCHAR p2168
ENCODING 8552
SWIDTH 480 0
DWIDTH 13 0
BBX 12 12 0 -2
BITMAP
0000
2440
2440
2280
2280
2100
2280
2280
2440
2440
0000
0000
ENDCHAR
STARTCHAR p2169
ENCODING 8553
SWIDTH 480 0
DWIDTH 13 0
BBX 12 12 0 -2
BITMAP
0000
1100
1100
0A00
0A00
0400
0A00
0A00
1100
1100
0000
0000
ENDCHAR
STARTCHAR p2170
ENCODING 8560
SWIDTH 480 0
DWIDTH 13 0
BBX 12 12 0 -2
BITMAP
0000
0400
0000
0000
0400
0400
0400
0400
0400
0400
0000
0000
ENDCHAR
STARTCHAR p2171
ENCODING 8561
SWIDTH 480 0
DWIDTH 13 0
BBX 12 12 0 -2
BITMAP
0000
1100
0000
0000
1100
1100
1100
1100
1100
1100
0000
0000
ENDCHAR
STARTCHAR p2172
ENCODING 8562
SWIDTH 480 0
DWIDTH 13 0
BBX 12 12 0 -2
BITMAP
0000
2480
0000
0000
2480
2480
2480
2480
2480
2480
0000
0000
ENDCHAR
STARTCHAR p2173
ENCODING 8563
SWIDTH 480 0
DWIDTH 13 0
BBX 12 12 0 -2
BITMAP
0000
2000
0000
0000
2440
2440
2280
2280
2100
2100
0000
0000
ENDCHAR
STARTCHAR p2174
ENCODING 8564
SWIDTH 480 0
DWIDTH 13 0
BBX 12 12 0 -2
BITMAP
0000
0000
0000
0000
1100
1100
0A00
0A00
0400
0400
0000
0000
ENDCHAR
STARTCHAR p2175
ENCODING 8565
SWIDTH 480 0
DWIDTH 13 0
BBX 12 12 0 -2
BITMAP
0000
0040
0000
0000
4440
4440
2840
2840
1040
1040
0000
0000
ENDCHAR
STARTCHAR p2176
ENCODING 8566
SWIDTH 480 0
DWIDTH 13 0
BBX 12 12 0 -2
BITMAP
0000
00A0
0000
0000
44A0
44A0
28A0
28A0
10A0
10A0
0000
0000
ENDCHAR
STARTCHAR p2177
ENCODING 8567
SWIDTH 480 0
DWIDTH 13 0
BBX 12 12 0 -2
BITMAP
0000
02A0
0000
0000
8AA0
8AA0
52A0
52A0
22A0
22A0
0000
0000
ENDCHAR
STARTCHAR p2178
ENCODING 8568
SWIDTH 480 0
DWIDTH 13 0
BBX 12 12 0 -2
BITMAP
0000
2000
0000
0000
2440
2280
2100
2100
2280
2440
0000
0000
ENDCHAR
STARTCHAR p2179
ENCODING 8569
SWIDTH 480 0
DWIDTH 13 0
BBX 12 12 0 -2
BITMAP
0000
0000
0000
0000
1100
0A00
0400
0400
0A00
1100
0000
0000
ENDCHAR
STARTCHAR p2190
ENCODING 8592
SWIDTH 480 0
DWIDTH 13 0
BBX 12 12 0 -2
BITMAP
0000
0000
0000
1000
2000
7FE0
2000
1000
0000
0000
0000
0000
ENDCHAR
STARTCHAR p2191
ENCODING 8593
SWIDTH 480 0
DWIDTH 13 0
BBX 12 12 0 -2
BITMAP
0000
0200
0700
0A80
0200
0200
0200
0200
0200
0200
0200
0000
ENDCHAR
STARTCHAR p2192
ENCODING 8594
SWIDTH 480 0
DWIDTH 13 0
BBX 12 12 0 -2
BITMAP
0000
0000
0000
0080
0040
7FE0
0040
0080
0000
0000
0000
0000
ENDCHAR
STARTCHAR p2193
ENCODING 8595
SWIDTH 480 0
DWIDTH 13 0
BBX 12 12 0 -2
BITMAP
0000
0200
0200
0200
0200
0200
0200
0200
0A80
0700
0200
0000
ENDCHAR
STARTCHAR p2194
ENCODING 8596
SWIDTH 480 0
DWIDTH 13 0
BBX 12 12 0 -2
BITMAP
0000
0000
0000
1080
2040
7FE0
2040
1080
0000
0000
0000
0000
ENDCHAR
STARTCHAR p2195
ENCODING 8597
SWIDTH 480 0
DWIDTH 13 0
BBX 12 12 0 -2
BITMAP
0000
0200
0700
0A80
0200
0200
0200
0200
0A80
0700
0200
0000
ENDCHAR
STARTCHAR p2196
ENCODING 8598
SWIDTH 480 0
DWIDTH 13 0
BBX 12 12 0 -2
BITMAP
0000
7800
6000
5000
4800
0400
0200
0100
0080
0040
0020
0000
ENDCHAR
STARTCHAR p2197
ENCODING 8599
SWIDTH 480 0
DWIDTH 13 0
BBX 12 12 0 -2
BITMAP
0000
01E0
0060
00A0
0120
0200
0400
0800
1000
2000
4000
0000
ENDCHAR
STARTCHAR p2198
ENCODING 8600
SWIDTH 480 0
DWIDTH 13 0
BBX 12 12 0 -2
BITMAP
0000
4000
2000
1000
0800
0400
0200
0120
00A0
0060
01E0
0000
ENDCHAR
STARTCHAR p2199
ENCODING 8601
SWIDTH 480 0
DWIDTH 13 0
BBX 12 12 0 -2
BITMAP
0000
0020
0040
0080
0100
0200
0400
4800
5000
6000
7800
0000
ENDCHAR
STARTCHAR p21D2
ENCODING 8658
SWIDTH 480 0
DWIDTH 13 0
BBX 12 12 0 -2
BITMAP
0000
0000
0080
0040
FFE0
0010
0010
FFE0
0040
0080
0000
0000
ENDCHAR
STARTCHAR p21D4
ENCODING 8660
SWIDTH 480 0
DWIDTH 13 0
BBX 12 12 0 -2
BITMAP
0000
0000
1080
2040
7FE0
8010
8010
7FE0
2040
1080
0000
0000
ENDCHAR
STARTCHAR p2200
ENCODING 8704
SWIDTH 480 0
DWIDTH 13 0
BBX 12 12 0 -2
BITMAP
0000
1040
1040
1040
1FC0
0880
0880
0500
0500
0200
0200
0000
ENDCHAR
STARTCHAR p2202
ENCODING 8706
SWIDTH 480 0
DWIDTH 13 0
BBX 12 12 0 -2
BITMAP
0000
0700
0880
0080
0680
0980
1080
1100
1100
1200
0C00
0000
ENDCHAR
STARTCHAR p2203
ENCODING 8707
SWIDTH 480 0
DWIDTH 13 0
BBX 12 12 0 -2
BITMAP
0000
3FC0
0040
0040
0040
3FC0
0040
0040
0040
3FC0
0000
0000
ENDCHAR
STARTCHAR p2207
ENCODING 8711
SWIDTH 480 0
DWIDTH 13 0
BBX 12 12 0 -2
BITMAP
0000
3FE0
2020
1040
1040
0880
0880
0500
0500
0200
0200
0000
ENDCHAR
STARTCHAR p2208
ENCODING 8712
SWIDTH 480 0
DWIDTH 13 0
BBX 12 12 0 -2
BITMAP
0000
0000
0FC0
1000
2000
3FC0
2000
2000
1000
0FC0
0000
0000
ENDCHAR
STARTCHAR p220B
ENCODING 8715
SWIDTH 480 0
DWIDTH 13 0
BBX 12 12 0 -2
BITMAP
0000
0000
3F00
0080
0040
3FC0
0040
0040
0080
3F00
0000
0000
ENDCHAR
STARTCHAR p220F
ENCODING 8719
SWIDTH 480 0
DWIDTH 13 0
BBX 12 12 0 -2
BITMAP
0000
1F80
1080
1080
1080
1080
1080
1080
1080
1080
0000
0000
ENDCHAR
STARTCHAR p2211
ENCODING 8721
SWIDTH 480 0
DWIDTH 13 0
BBX 12 12 0 -2
BITMAP
0000
3F80
2000
1000
0800
0400
0800
1000
2000
3F80
0000
0000
ENDCHAR
STARTCHAR p221A
ENCODING 8730
SWIDTH 480 0
DWIDTH 13 0
BBX 12 12 0 -2
BITMAP
0000
03F0
0200
0200
0400
0400
0400
6800
2800
1000
1000
0000
ENDCHAR
STARTCHAR p221D
ENCODING 8733
SWIDTH 480 0
DWIDTH 13 0
BBX 12 12 0 -2
BITMAP
0000
0000
0000
0000
71C0
8A20
8400
8A20
71C0
0000
0000
0000
ENDCHAR
STARTCHAR p221E
ENCODING 8734
SWIDTH 480 0
DWIDTH 13 0
BBX 12 12 0 -2
BITMAP
0000
0000
0000
3180
4A40
4440
4A40
3180
0000
0000
0000
0000
ENDCHAR
STARTCHAR p2220
ENCODING 8736
SWIDTH 480 0
DWIDTH 13 0
BBX 12 12 0 -2
BITMAP
0000
0040
0080
0100
0200
0400
0800
1000
2000
7FE0
0000
0000
ENDCHAR
STARTCHAR p2225
ENCODING 8741
SWIDTH 480 0
DWIDTH 13 0
BBX 12 12 0 -2
BITMAP
0900
0900
0900
0900
0900
0900
0900
0900
0900
0900
0900
0900
ENDCHAR
STARTCHAR p2227
ENCODING 8743
SWIDTH 480 0
DWIDTH 13 0
BBX 12 12 0 -2
BITMAP
0000
0200
0200
0500
0500
0880
0880
1040
1040
2020
2020
0000
ENDCHAR
STARTCHAR p2228
ENCODING 8744
SWIDTH 480 0
DWIDTH 13 0
BBX 12 12 0 -2
BITMAP
0000
2020
2020
1040
1040
0880
0880
0500
0500
0200
0200
0000
ENDCHAR
STARTCHAR p2229
ENCODING 8745
SWIDTH 480 0
DWIDTH 13 0
BBX 12 12 0 -2
BITMAP
0000
0000
0F00
1080
2040
2040
2040
2040
2040
2040
2040
0000
ENDCHAR
STARTCHAR p222A
ENCODING 8746
SWIDTH 480 0
DWIDTH 13 0
BBX 12 12 0 -2
BITMAP
0000
0000
2040
2040
2040
2040
2040
2040
2040
1080
0F00
0000
ENDCHAR
STARTCHAR p222B
ENCODING 8747
SWIDTH 480 0
DWIDTH 13 0
BBX 12 12 0 -2
BITMAP
0600
0900
0800
0800
0800
0400
0400
0200
0200
0200
1200
0C00
ENDCHAR
STARTCHAR p222C
ENCODING 8748
SWIDTH 480 0
DWIDTH 13 0
BBX 12 12 0 -2
BITMAP
18C0
2520
2100
2100
2100
1080
1080
0840
0840
0840
4A40
3180
ENDCHAR
STARTCHAR p222E
ENCODING 8750
SWIDTH 480 0
DWIDTH 13 0
BBX 12 12 0 -2
BITMAP
0180
0240
0200
0F80
1240
1240
1240
1240
0F80
0200
1200
0C00
ENDCHAR
STARTCHAR p2234
ENCODING 8756
SWIDTH 480 0
DWIDTH 13 0
BBX 12 12 0 -2
BITMAP
0000
0000
0600
0600
0000
0000
0000
0000
6060
6060
0000
0000
ENDCHAR
STARTCHAR p2235
ENCODING 8757
SWIDTH 480 0
DWIDTH 13 0
BBX 12 12 0 -2
BITMAP
0000
0000
6060
6060
0000
0000
0000
0000
0600
0600
0000
0000
ENDCHAR
STARTCHAR p223C
ENCODING 8764
SWIDTH 480 0
DWIDTH 13 0
BBX 12 12 0 -2
BITMAP
0000
0000
0000
0000
0000
1C40
2380
0000
0000
0000
0000
0000
ENDCHAR
STARTCHAR p223D
ENCODING 8765
SWIDTH 480 0
DWIDTH 13 0
BBX 12 12 0 -2
BITMAP
0000
0000
0000
0000
71C0
8220
8420
8820
71C0
0000
0000
0000
ENDCHAR
STARTCHAR p2252
ENCODING 8786
SWIDTH 480 0
DWIDTH 13 0
BBX 12 12 0 -2
BITMAP
0000
3000
3000
0000
7FE0
0000
0000
7FE0
0000
00C0
00C0
0000
ENDCHAR
STARTCHAR p2260
ENCODING 8800
SWIDTH 480 0
DWIDTH 13 0
BBX 12 12 0 -2
BITMAP
0000
0000
1000
0800
7FE0
0400
0200
7FE0
0100
0080
0000
0000
ENDCHAR
STARTCHAR p2261
ENCODING 8801
SWIDTH 480 0
DWIDTH 13 0
BBX 12 12 0 -2
BITMAP
0000
0000
7FE0
0000
0000
7FE0
0000
0000
7FE0
0000
0000
0000
ENDCHAR
STARTCHAR p2264
ENCODING 8804
SWIDTH 480 0
DWIDTH 13 0
BBX 12 12 0 -2
BITMAP
0000
0000
01C0
0E00
3000
0E00
01C0
0000
0000
3FC0
0000
0000
ENDCHAR
STARTCHAR p2265
ENCODING 8805
SWIDTH 480 0
DWIDTH 13 0
BBX 12 12 0 -2
BITMAP
0000
0000
3800
0700
00C0
0700
3800
0000
0000
3FC0
0000
0000
ENDCHAR
STARTCHAR p226A
ENCODING 8810
SWIDTH 480 0
DWIDTH 13 0
BBX 12 12 0 -2
BITMAP
0000
0000
0480
0900
1200
2400
1200
0900
0480
0000
0000
0000
ENDCHAR
STARTCHAR p226B
ENCODING 8811
SWIDTH 480 0
DWIDTH 13 0
BBX 12 12 0 -2
BITMAP
0000
0000
1200
0900
0480
0240
0480
0900
1200
0000
0000
0000
ENDCHAR
STARTCHAR p2282
ENCODING 8834
SWIDTH 480 0
DWIDTH 13 0
BBX 12 12 0 -2
BITMAP
0000
0000
0000
1FC0
2000
4000
4000
4000
2000
1FC0
0000
0000
ENDCHAR
STARTCHAR p2283
ENCODING 8835
SWIDTH 480 0
DWIDTH 13 0
BBX 12 12 0 -2
BITMAP
0000
0000
0000
7F00
0080
0040
0040
0040
0080
7F00
0000
0000
ENDCHAR
STARTCHAR p2286
ENCODING 8838
SWIDTH 480 0
DWIDTH 13 0
BBX 12 12 0 -2
BITMAP
0000
0000
1FC0
2000
4000
4000
2000
1FC0
0000
7FC0
0000
0000
ENDCHAR
STARTCHAR p2287
ENCODING 8839
SWIDTH 480 0
DWIDTH 13 0
BBX 12 12 0 -2
BITMAP
0000
0000
7F00
0080
0040
0040
0080
7F00
0000
7FC0
0000
0000
ENDCHAR
STARTCHAR p2299
ENCODING 8857
SWIDTH 480 0
DWIDTH 13 0
BBX 12 12 0 -2
BITMAP
0000
1F80
2040
4620
4F20
5FA0
5FA0
4F20
4620
2040
1F80
0000
ENDCHAR
STARTCHAR p22A5
ENCODING 8869
SWIDTH 480 0
DWIDTH 13 0
BBX 12 12 0 -2
BITMAP
0000
0400
0400
0400
0400
0400
0400
0400
0400
7FC0
0000
0000
ENDCHAR
STARTCHAR p2312
ENCODING 8978
SWIDTH 480 0
DWIDTH 13 0
BBX 12 12 0 -2
BITMAP
1F80
6060
8010
0000
0000
0000
0000
0000
0000
0000
0000
0000
ENDCHAR
STARTCHAR p2460
ENCODING 9312
SWIDTH 480 0
DWIDTH 13 0
BBX 12 12 0 -2
BITMAP
1F80
2040
4420
8C10
8410
8410
8410
8410
8410
4020
2040
1F80
ENDCHAR
STARTCHAR p2461
ENCODING 9313
SWIDTH 480 0
DWIDTH 13 0
BBX 12 12 0 -2
BITMAP
1F80
2040
4F20
9090
8110
8210
8410
8810
9F90
4020
2040
1F80
ENDCHAR
STARTCHAR p2462
ENCODING 9314
SWIDTH 480 0
DWIDTH 13 0
BBX 12 12 0 -2
BITMAP
1F80
2040
4F20
9090
8090
8710
8090
9090
8F10
4020
2040
1F80
ENDCHAR
STARTCHAR p2463
ENCODING 9315
SWIDTH 480 0
DWIDTH 13 0
BBX 12 12 0 -2
BITMAP
1F80
2040
4120
8310
8510
8910
9110
9F90
8110
4020
2040
1F80
ENDCHAR
STARTCHAR p2464
ENCODING 9316
SWIDTH 480 0
DWIDTH 13 0
BBX 12 12 0 -2
BITMAP
1F80
2040
5FA0
9010
9F10
9090
8090
9090
8F10
4020
2040
1F80
ENDCHAR
STARTCHAR p2465
ENCODING 9317
SWIDTH 480 0
DWIDTH 13 0
BBX 12 12 0 -2
BITMAP
1F80
2040
4F20
9090
9010
9F10
9090
9090
8F10
4020
2040
1F80
ENDCHAR
STARTCHAR p2466
ENCODING 9318
SWIDTH 480 0
DWIDTH 13 0
BBX 12 12 0 -2
BITMAP
1F80
2040
5FA0
8090
8110
8210
8410
8410
8410
4020
2040
1F80
ENDCHAR
STARTCHAR p2467
ENCODING 9319
SWIDTH 480 0
DWIDTH 13 0
BBX 12 12 0 -2
BITMAP
1F80
2040
4F20
9090
9090
8F10
9090
9090
8F10
4020
2040
1F80
ENDCHAR
STARTCHAR p2468
ENCODING 9320
SWIDTH 480 0
DWIDTH 13 0
BBX 12 12 0 -2
BITMAP
1F80
2040
4F20
9090
9090
9190
8E90
9090
8F10
4020
2040
1F80
ENDCHAR
STARTCHAR p2469
ENCODING 9321
SWIDTH 480 0
DWIDTH 13 0
BBX 12 12 0 -2
BITMAP
1F80
2040
51A0
B250
9250
9250
9250
9250
9190
4020
2040
1F80
ENDCHAR
STARTCHAR p246A
ENCODING 9322
SWIDTH 480 0
DWIDTH 13 0
BBX 12 12 0 -2
BITMAP
1F80
2040
48A0
9990
8890
8890
8890
8890
8890
4020
2040
1F80
ENDCHAR
STARTCHAR p246B
ENCODING 9323
SWIDTH 480 0
DWIDTH 13 0
BBX 12 12 0 -2
BITMAP
1F80
2040
5320
B490
9090
9110
9210
9410
9790
4020
2040
1F80
ENDCHAR
STARTCHAR p246C
ENCODING 9324
SWIDTH 480 0
DWIDTH 13 0
BBX 12 12 0 -2
BITMAP
1F80
2040
5320
B490
9090
9310
9090
9490
9310
4020
2040
1F80
ENDCHAR
STARTCHAR p246D
ENCODING 9325
SWIDTH 480 0
DWIDTH 13 0
BBX 12 12 0 -2
BITMAP
1F80
2040
50A0
B190
9290
9290
9490
97D0
9090
4020
2040
1F80
ENDCHAR
STARTCHAR p246E
ENCODING 9326
SWIDTH 480 0
DWIDTH 13 0
BBX 12 12 0 -2
BITMAP
1F80
2040
57A0
B410
9710
9490
9090
9490
9310
4020
2040
1F80
ENDCHAR
STARTCHAR p2474
ENCODING 9332
SWIDTH 480 0
DWIDTH 13 0
BBX 12 12 0 -2
BITMAP
2040
4020
4220
8610
8210
8210
8210
8210
8210
4220
4020
2040
ENDCHAR
STARTCHAR p2475
ENCODING 9333
SWIDTH 480 0
DWIDTH 13 0
BBX 12 12 0 -2
BITMAP
2040
4020
4F20
9090
9090
8110
8210
8410
8810
5FA0
4020
2040
ENDCHAR
STARTCHAR p2476
ENCODING 9334
SWIDTH 480 0
DWIDTH 13 0
BBX 12 12 0 -2
BITMAP
2040
4020
4F20
9090
8090
8710
8090
8090
9090
4F20
4020
2040
ENDCHAR
STARTCHAR p2477
ENCODING 9335
SWIDTH 480 0
DWIDTH 13 0
BBX 12 12 0 -2
BITMAP
2040
4020
4120
8310
8510
8910
9110
9F90
8110
4120
4020
2040
ENDCHAR
STARTCHAR p2478
ENCODING 9336
SWIDTH 480 0
DWIDTH 13 0
BBX 12 12 0 -2
BITMAP
2040
4020
5FA0
9010
9010
9710
9890
8090
9090
4F20
4020
2040
ENDCHAR
STARTCHAR p2479
ENCODING 9337
SWIDTH 480 0
DWIDTH 13 0
BBX 12 12 0 -2
BITMAP
2040
4020
4F20
9090
9010
9710
9890
9090
9090
4F20
4020
2040
ENDCHAR
STARTCHAR p247A
ENCODING 9338
SWIDTH 480 0
DWIDTH 13 0
BBX 12 12 0 -2
BITMAP
2040
4020
5FA0
8090
8110
8210
8210
8410
8410
4420
4020
2040
ENDCHAR
STARTCHAR p247B
ENCODING 9339
SWIDTH 480 0
DWIDTH 13 0
BBX 12 12 0 -2
BITMAP
2040
4020
4F20
9090
9090
8F10
9090
9090
9090
4F20
4020
2040
ENDCHAR
STARTCHAR p247C
ENCODING 9340
SWIDTH 480 0
DWIDTH 13 0
BBX 12 12 0 -2
BITMAP
2040
4020
4F20
9090
9090
9190
8E90
8090
9090
4F20
4020
2040
ENDCHAR
STARTCHAR p247D
ENCODING 9341
SWIDTH 480 0
DWIDTH 13 0
BBX 12 12 0 -2
BITMAP
2040
4020
49A0
9A50
8A50
8A50
8A50
8A50
8A50
49A0
4020
2040
ENDCHAR
STARTCHAR p247E
ENCODING 9342
SWIDTH 480 0
DWIDTH 13 0
BBX 12 12 0 -2
BITMAP
2040
4020
48A0
9990
8890
8890
8890
8890
8890
48A0
4020
2040
ENDCHAR
STARTCHAR p247F
ENCODING 9343
SWIDTH 480 0
DWIDTH 13 0
BBX 12 12 0 -2
BITMAP
2040
4020
5320
B490
9490
9090
9110
9210
9410
57A0
4020
2040
ENDCHAR
STARTCHAR p2480
ENCODING 9344
SWIDTH 480 0
DWIDTH 13 0
BBX 12 12 0 -2
BITMAP
2040
4020
5320
B490
9090
9310
9090
9090
9490
5320
4020
2040
ENDCHAR
STARTCHAR p2481
ENCODING 9345
SWIDTH 480 0
DWIDTH 13 0
BBX 12 12 0 -2
BITMAP
2040
4020
50A0
B190
9290
9290
9490
97D0
9090
50A0
4020
2040
ENDCHAR
STARTCHAR p2482
ENCODING 9346
SWIDTH 480 0
DWIDTH 13 0
BBX 12 12 0 -2
BITMAP
2040
4020
57A0
B410
9410
9710
9090
9090
9490
5320
4020
2040
ENDCHAR
STARTCHAR p249C
ENCODING 9372
SWIDTH 480 0
DWIDTH 13 0
BBX 12 12 0 -2
BITMAP
2040
4020
4020
8E10
9110
8F10
9110
9110
8E90
4020
4020
2040
ENDCHAR
STARTCHAR p249D
ENCODING 9373
SWIDTH 480 0
DWIDTH 13 0
BBX 12 12 0 -2
BITMAP
2040
4820
4820
8810
8F10
8890
8890
8890
8F10
4020
4020
2040
ENDCHAR
STARTCHAR p249E
ENCODING 9374
SWIDTH 480 0
DWIDTH 13 0
BBX 12 12 0 -2
BITMAP
2040
4020
4020
8F10
9090
9010
9010
9090
8F10
4020
4020
2040
ENDCHAR
STARTCHAR p249F
ENCODING 9375
SWIDTH 480 0
DWIDTH 13 0
BBX 12 12 0 -2
BITMAP
2040
4120
4120
8110
8F10
9110
9110
9110
8F10
4020
4020
2040
ENDCHAR
STARTCHAR p24A0
ENCODING 9376
SWIDTH 480 0
DWIDTH 13 0
BBX 12 12 0 -2
BITMAP
2040
4020
4020
8F10
9090
9F90
9010
9090
8F10
4020
4020
2040
ENDCHAR
STARTCHAR p24A1
ENCODING 9377
SWIDTH 480 0
DWIDTH 13 0
BBX 12 12 0 -2
BITMAP
2040
4320
4420
8410
9F10
8410
8410
8410
8410
4020
4020
2040
ENDCHAR
STARTCHAR p24A2
ENCODING 9378
SWIDTH 480 0
DWIDTH 13 0
BBX 12 12 0 -2
BITMAP
2040
4020
4020
8690
8990
8890
8890
8790
8090
48A0
4720
2040
ENDCHAR
STARTCHAR p24A3
ENCODING 9379
SWIDTH 480 0
DWIDTH 13 0
BBX 12 12 0 -2
BITMAP
2040
4820
4820
8B10
8C90
8890
8890
8890
8890
4020
4020
2040
ENDCHAR
STARTCHAR p24A4
ENCODING 9380
SWIDTH 480 0
DWIDTH 13 0
BBX 12 12 0 -2
BITMAP
2040
4220
4020
8210
8210
8210
8210
8210
8210
4020
4020
2040
ENDCHAR
STARTCHAR p24A5
ENCODING 9381
SWIDTH 480 0
DWIDTH 13 0
BBX 12 12 0 -2
BITMAP
2040
4220
4020
8210
8210
8210
8210
8210
8210
4220
4C20
2040
ENDCHAR
STARTCHAR p24A6
ENCODING 9382
SWIDTH 480 0
DWIDTH 13 0
BBX 12 12 0 -2
BITMAP
2040
4020
4820
8810
8910
8A10
8C10
8A10
8910
48A0
4020
2040
ENDCHAR
STARTCHAR p24A7
ENCODING 9383
SWIDTH 480 0
DWIDTH 13 0
BBX 12 12 0 -2
BITMAP
2040
4220
4220
8210
8210
8210
8210
8210
8210
4020
4020
2040
ENDCHAR
STARTCHAR p24A8
ENCODING 9384
SWIDTH 480 0
DWIDTH 13 0
BBX 12 12 0 -2
BITMAP
2040
4020
4020
9D90
9250
9250
9250
9250
9250
4020
4020
2040
ENDCHAR
STARTCHAR p24A9
ENCODING 9385
SWIDTH 480 0
DWIDTH 13 0
BBX 12 12 0 -2
BITMAP
2040
4020
4020
8B10
8C90
8890
8890
8890
8890
4020
4020
2040
ENDCHAR
STARTCHAR p24AA
ENCODING 9386
SWIDTH 480 0
DWIDTH 13 0
BBX 12 12 0 -2
BITMAP
2040
4020
4020
8F10
9090
9090
9090
9090
8F10
4020
4020
2040
ENDCHAR
STARTCHAR p24AB
ENCODING 9387
SWIDTH 480 0
DWIDTH 13 0
BBX 12 12 0 -2
BITMAP
2040
4020
4020
8F10
8890
8890
8890
8F10
8810
4820
4020
2040
ENDCHAR
STARTCHAR p24AC
ENCODING 9388
SWIDTH 480 0
DWIDTH 13 0
BBX 12 12 0 -2
BITMAP
2040
4020
4020
8F10
9110
9110
9110
8F10
8110
4120
4020
2040
ENDCHAR
STARTCHAR p24AD
ENCODING 9389
SWIDTH 480 0
DWIDTH 13 0
BBX 12 12 0 -2
BITMAP
2040
4020
4020
8590
8610
8410
8410
8410
8410
4020
4020
2040
ENDCHAR
STARTCHAR p24AE
ENCODING 9390
SWIDTH 480 0
DWIDTH 13 0
BBX 12 12 0 -2
BITMAP
2040
4020
4020
8F10
9090
8C10
8310
9090
8F10
4020
4020
2040
ENDCHAR
STARTCHAR p24AF
ENCODING 9391
SWIDTH 480 0
DWIDTH 13 0
BBX 12 12 0 -2
BITMAP
2040
4020
4420
8410
9F10
8410
8410
8410
8410
4320
4020
2040
ENDCHAR
STARTCHAR p24B0
ENCODING 9392
SWIDTH 480 0
DWIDTH 13 0
BBX 12 12 0 -2
BITMAP
2040
4020
4020
9090
9090
9090
9090
9190
8E90
4020
4020
2040
ENDCHAR
STARTCHAR p24B1
ENCODING 9393
SWIDTH 480 0
DWIDTH 13 0
BBX 12 12 0 -2
BITMAP
2040
4020
4020
8890
8890
8510
8510
8210
8210
4020
4020
2040
ENDCHAR
STARTCHAR p24B2
ENCODING 9394
SWIDTH 480 0
DWIDTH 13 0
BBX 12 12 0 -2
BITMAP
2040
4020
4020
9250
9250
9550
9550
8890
8890
4020
4020
2040
ENDCHAR
STARTCHAR p24B3
ENCODING 9395
SWIDTH 480 0
DWIDTH 13 0
BBX 12 12 0 -2
BITMAP
2040
4020
4020
9090
8910
8610
8610
8910
9090
4020
4020
2040
ENDCHAR
STARTCHAR p24B4
ENCODING 9396
SWIDTH 480 0
DWIDTH 13 0
BBX 12 12 0 -2
BITMAP
2040
4020
4020
8890
8890
8510
8510
8210
8210
4C20
4020
2040
ENDCHAR
STARTCHAR p24B5
ENCODING 9397
SWIDTH 480 0
DWIDTH 13 0
BBX 12 12 0 -2
BITMAP
2040
4020
4020
9F90
8110
8210
8410
8810
9F90
4020
4020
2040
ENDCHAR
STARTCHAR p24B6
ENCODING 9398
SWIDTH 480 0
DWIDTH 13 0
BBX 12 12 0 -2
BITMAP
1F80
2040
4020
8E10
9110
8F10
9110
9110
8E90
4020
2040
1F80
ENDCHAR
STARTCHAR p24B7
ENCODING 9399
SWIDTH 480 0
DWIDTH 13 0
BBX 12 12 0 -2
BITMAP
1F80
2040
4820
8810
8F10
8890
8890
8890
8F10
4020
2040
1F80
ENDCHAR
STARTCHAR p24B8
ENCODING 9400
SWIDTH 480 0
DWIDTH 13 0
BBX 12 12 0 -2
BITMAP
1F80
2040
4020
8710
8890
8810
8810
8890
8710
4020
2040
1F80
ENDCHAR
STARTCHAR p24B9
ENCODING 9401
SWIDTH 480 0
DWIDTH 13 0
BBX 12 12 0 -2
BITMAP
1F80
2040
4120
8110
8F10
9110
9110
9110
8F10
4020
2040
1F80
ENDCHAR
STARTCHAR p24BA
ENCODING 9402
SWIDTH 480 0
DWIDTH 13 0
BBX 12 12 0 -2
BITMAP
1F80
2040
4020
8710
8890
8F90
8810
8890
8710
4020
2040
1F80
ENDCHAR
STARTCHAR p24BB
ENCODING 9403
SWIDTH 480 0
DWIDTH 13 0
BBX 12 12 0 -2
BITMAP
1F80
2040
4320
8410
9F10
8410
8410
8410
8410
4020
2040
1F80
ENDCHAR
STARTCHAR p24BC
ENCODING 9404
SWIDTH 480 0
DWIDTH 13 0
BBX 12 12 0 -2
BITMAP
1F80
2040
4020
8790
8890
8890
8790
8090
8890
4720
2040
1F80
ENDCHAR
STARTCHAR p24BD
ENCODING 9405
SWIDTH 480 0
DWIDTH 13 0
BBX 12 12 0 -2
BITMAP
1F80
2040
4820
8810
8F10
8890
8890
8890
8890
4020
2040
1F80
ENDCHAR
STARTCHAR p24BE
ENCODING 9406
SWIDTH 480 0
DWIDTH 13 0
BBX 12 12 0 -2
BITMAP
1F80
2040
4220
8010
8210
8210
8210
8210
8210
4020
2040
1F80
ENDCHAR
STARTCHAR p24BF
ENCODING 9407
SWIDTH 480 0
DWIDTH 13 0
BBX 12 12 0 -2
BITMAP
1F80
2040
4220
8010
8210
8210
8210
8210
8210
4C20
2040
1F80
ENDCHAR
STARTCHAR p24C0
ENCODING 9408
SWIDTH 480 0
DWIDTH 13 0
BBX 12 12 0 -2
BITMAP
1F80
2040
4820
8910
8A10
8C10
8A10
8910
8890
4020
2040
1F80
ENDCHAR
STARTCHAR p24C1
ENCODING 9409
SWIDTH 480 0
DWIDTH 13 0
BBX 12 12 0 -2
BITMAP
1F80
2040
4420
8410
8410
8410
8410
8410
8410
4020
2040
1F80
ENDCHAR
STARTCHAR p24C2
ENCODING 9410
SWIDTH 480 0
DWIDTH 13 0
BBX 12 12 0 -2
BITMAP
1F80
2040
4020
9B10
9490
9490
9490
9490
9490
4020
2040
1F80
ENDCHAR
STARTCHAR p24C3
ENCODING 9411
SWIDTH 480 0
DWIDTH 13 0
BBX 12 12 0 -2
BITMAP
1F80
2040
4020
8B10
8C90
8890
8890
8890
8890
4020
2040
1F80
ENDCHAR
STARTCHAR p24C4
ENCODING 9412
SWIDTH 480 0
DWIDTH 13 0
BBX 12 12 0 -2
BITMAP
1F80
2040
4020
8710
8890
8890
8890
8890
8710
4020
2040
1F80
ENDCHAR
STARTCHAR p24C5
ENCODING 9413
SWIDTH 480 0
DWIDTH 13 0
BBX 12 12 0 -2
BITMAP
1F80
2040
4020
8F10
8890
8890
8890
8F10
8810
4820
2040
1F80
ENDCHAR
STARTCHAR p24C6
ENCODING 9414
SWIDTH 480 0
DWIDTH 13 0
BBX 12 12 0 -2
BITMAP
1F80
2040
4020
8F10
9110
9110
9110
8F10
8110
4120
2040
1F80
ENDCHAR
STARTCHAR p24C7
ENCODING 9415
SWIDTH 480 0
DWIDTH 13 0
BBX 12 12 0 -2
BITMAP
1F80
2040
4020
8B10
8C10
8810
8810
8810
8810
4020
2040
1F80
ENDCHAR
STARTCHAR p24C8
ENCODING 9416
SWIDTH 480 0
DWIDTH 13 0
BBX 12 12 0 -2
BITMAP
1F80
2040
4020
8F10
9090
8C10
8310
9090
8F10
4020
2040
1F80
ENDCHAR
STARTCHAR p24C9
ENCODING 9417
SWIDTH 480 0
DWIDTH 13 0
BBX 12 12 0 -2
BITMAP
1F80
2040
4420
8410
9F10
8410
8410
8410
8310
4020
2040
1F80
ENDCHAR
STARTCHAR p24CA
ENCODING 9418
SWIDTH 480 0
DWIDTH 13 0
BBX 12 12 0 -2
BITMAP
1F80
2040
4020
9110
9110
9110
9110
9310
8D10
4020
2040
1F80
ENDCHAR
STARTCHAR p24CB
ENCODING 9419
SWIDTH 480 0
DWIDTH 13 0
BBX 12 12 0 -2
BITMAP
1F80
2040
4020
9110
9110
8A10
8A10
8410
8410
4020
2040
1F80
ENDCHAR
STARTCHAR p24CC
ENCODING 9420
SWIDTH 480 0
DWIDTH 13 0
BBX 12 12 0 -2
BITMAP
1F80
2040
4020
9490
9490
9490
9690
8910
8910
4020
2040
1F80
ENDCHAR
STARTCHAR p24CD
ENCODING 9421
SWIDTH 480 0
DWIDTH 13 0
BBX 12 12 0 -2
BITMAP
1F80
2040
4020
9110
8A10
8410
8410
8A10
9110
4020
2040
1F80
ENDCHAR
STARTCHAR p24CE
ENCODING 9422
SWIDTH 480 0
DWIDTH 13 0
BBX 12 12 0 -2
BITMAP
1F80
2040
4020
8890
8890
8510
8510
8210
8210
4C20
2040
1F80
ENDCHAR
STARTCHAR p24CF
ENCODING 9423
SWIDTH 480 0
DWIDTH 13 0
BBX 12 12 0 -2
BITMAP
1F80
2040
4020
9F90
8110
8210
8410
8810
9F90
4020
2040
1F80
ENDCHAR
STARTCHAR p24D0
ENCODING 9424
SWIDTH 480 0
DWIDTH 13 0
BBX 12 12 0 -2
BITMAP
1F80
2040
4020
8E10
9110
8F10
9110
9110
8E90
4020
2040
1F80
ENDCHAR
STARTCHAR p24D1
ENCODING 9425
SWIDTH 480 0
DWIDTH 13 0
BBX 12 12 0 -2
BITMAP
1F80
2040
4820
8810
8F10
8890
8890
8890
8F10
4020
2040
1F80
ENDCHAR
STARTCHAR p24D2
ENCODING 9426
SWIDTH 480 0
DWIDTH 13 0
BBX 12 12 0 -2
BITMAP
1F80
2040
4020
8710
8890
8810
8810
8890
8710
4020
2040
1F80
ENDCHAR
STARTCHAR p24D3
ENCODING 9427
SWIDTH 480 0
DWIDTH 13 0
BBX 12 12 0 -2
BITMAP
1F80
2040
4120
8110
8F10
9110
9110
9110
8F10
4020
2040
1F80
ENDCHAR
STARTCHAR p24D4
ENCODING 9428
SWIDTH 480 0
DWIDTH 13 0
BBX 12 12 0 -2
BITMAP
1F80
2040
4020
8710
8890
8F90
8810
8890
8710
4020
2040
1F80
ENDCHAR
STARTCHAR p24D5
ENCODING 9429
SWIDTH 480 0
DWIDTH 13 0
BBX 12 12 0 -2
BITMAP
1F80
2040
4320
8410
9F10
8410
8410
8410
8410
4020
2040
1F80
ENDCHAR
STARTCHAR p24D6
ENCODING 9430
SWIDTH 480 0
DWIDTH 13 0
BBX 12 12 0 -2
BITMAP
1F80
2040
4020
8790
8890
8890
8790
8090
8890
4720
2040
1F80
ENDCHAR
STARTCHAR p24D7
ENCODING 9431
SWIDTH 480 0
DWIDTH 13 0
BBX 12 12 0 -2
BITMAP
1F80
2040
4820
8810
8F10
8890
8890
8890
8890
4020
2040
1F80
ENDCHAR
STARTCHAR p24D8
ENCODING 9432
SWIDTH 480 0
DWIDTH 13 0
BBX 12 12 0 -2
BITMAP
1F80
2040
4220
8010
8210
8210
8210
8210
8210
4020
2040
1F80
ENDCHAR
STARTCHAR p24D9
ENCODING 9433
SWIDTH 480 0
DWIDTH 13 0
BBX 12 12 0 -2
BITMAP
1F80
2040
4220
8010
8210
8210
8210
8210
8210
4C20
2040
1F80
ENDCHAR
STARTCHAR p24DA
ENCODING 9434
SWIDTH 480 0
DWIDTH 13 0
BBX 12 12 0 -2
BITMAP
1F80
2040
4820
8910
8A10
8C10
8A10
8910
8890
4020
2040
1F80
ENDCHAR
STARTCHAR p24DB
ENCODING 9435
SWIDTH 480 0
DWIDTH 13 0
BBX 12 12 0 -2
BITMAP
1F80
2040
4420
8410
8410
8410
8410
8410
8410
4020
2040
1F80
ENDCHAR
STARTCHAR p24DC
ENCODING 9436
SWIDTH 480 0
DWIDTH 13 0
BBX 12 12 0 -2
BITMAP
1F80
2040
4020
9B10
9490
9490
9490
9490
9490
4020
2040
1F80
ENDCHAR
STARTCHAR p24DD
ENCODING 9437
SWIDTH 480 0
DWIDTH 13 0
BBX 12 12 0 -2
BITMAP
1F80
2040
4020
8B10
8C90
8890
8890
8890
8890
4020
2040
1F80
ENDCHAR
STARTCHAR p24DE
ENCODING 9438
SWIDTH 480 0
DWIDTH 13 0
BBX 12 12 0 -2
BITMAP
1F80
2040
4020
8710
8890
8890
8890
8890
8710
4020
2040
1F80
ENDCHAR
STARTCHAR p24DF
ENCODING 9439
SWIDTH 480 0
DWIDTH 13 0
BBX 12 12 0 -2
BITMAP
1F80
2040
4020
8F10
8890
8890
8890
8F10
8810
4820
2040
1F80
ENDCHAR
STARTCHAR p24E0
ENCODING 9440
SWIDTH 480 0
DWIDTH 13 0
BBX 12 12 0 -2
BITMAP
1F80
2040
4020
8F10
9110
9110
9110
8F10
8110
4120
2040
1F80
ENDCHAR
STARTCHAR p24E1
ENCODING 9441
SWIDTH 480 0
DWIDTH 13 0
BBX 12 12 0 -2
BITMAP
1F80
2040
4020
8B10
8C10
8810
8810
8810
8810
4020
2040
1F80
ENDCHAR
STARTCHAR p24E2
ENCODING 9442
SWIDTH 480 0
DWIDTH 13 0
BBX 12 12 0 -2
BITMAP
1F80
2040
4020
8F10
9090
8C10
8310
9090
8F10
4020
2040
1F80
ENDCHAR
STARTCHAR p24E3
ENCODING 9443
SWIDTH 480 0
DWIDTH 13 0
BBX 12 12 0 -2
BITMAP
1F80
2040
4420
8410
9F10
8410
8410
8410
8310
4020
2040
1F80
ENDCHAR
STARTCHAR p24E4
ENCODING 9444
SWIDTH 480 0
DWIDTH 13 0
BBX 12 12 0 -2
BITMAP
1F80
2040
4020
9110
9110
9110
9110
9310
8D10
4020
2040
1F80
ENDCHAR
STARTCHAR p24E5
ENCODING 9445
SWIDTH 480 0
DWIDTH 13 0
BBX 12 12 0 -2
BITMAP
1F80
2040
4020
9110
9110
8A10
8A10
8410
8410
4020
2040
1F80
ENDCHAR
STARTCHAR p24E6
ENCODING 9446
SWIDTH 480 0
DWIDTH 13 0
BBX 12 12 0 -2
BITMAP
1F80
2040
4020
9490
9490
9490
9690
8910
8910
4020
2040
1F80
ENDCHAR
STARTCHAR p24E7
ENCODING 9447
SWIDTH 480 0
DWIDTH 13 0
BBX 12 12 0 -2
BITMAP
1F80
2040
4020
9110
8A10
8410
8410
8A10
9110
4020
2040
1F80
ENDCHAR
STARTCHAR p24E8
ENCODING 9448
SWIDTH 480 0
DWIDTH 13 0
BBX 12 12 0 -2
BITMAP
1F80
2040
4020
8890
8890
8510
8510
8210
8210
4C20
2040
1F80
ENDCHAR
STARTCHAR p24E9
ENCODING 9449
SWIDTH 480 0
DWIDTH 13 0
BBX 12 12 0 -2
BITMAP
1F80
2040
4020
9F90
8110
8210
8410
8810
9F90
4020
2040
1F80
ENDCHAR
STARTCHAR p2500
ENCODING 9472
SWIDTH 480 0
DWIDTH 13 0
BBX 12 12 0 -2
BITMAP
0000
0000
0000
0000
0000
FFF0
0000
0000
0000
0000
0000
0000
ENDCHAR
STARTCHAR p2501
ENCODING 9473
SWIDTH 480 0
DWIDTH 13 0
BBX 12 12 0 -2
BITMAP
0000
0000
0000
0000
0000
FFF0
FFF0
0000
0000
0000
0000
0000
ENDCHAR
STARTCHAR p2502
ENCODING 9474
SWIDTH 480 0
DWIDTH 13 0
BBX 12 12 0 -2
BITMAP
0400
0400
0400
0400
0400
0400
0400
0400
0400
0400
0400
0400
ENDCHAR
STARTCHAR p2503
ENCODING 9475
SWIDTH 480 0
DWIDTH 13 0
BBX 12 12 0 -2
BITMAP
0600
0600
0600
0600
0600
0600
0600
0600
0600
0600
0600
0600
ENDCHAR
STARTCHAR p250C
ENCODING 9484
SWIDTH 480 0
DWIDTH 13 0
BBX 12 12 0 -2
BITMAP
0000
0000
0000
0000
0000
07F0
0400
0400
0400
0400
0400
0400
ENDCHAR
STARTCHAR p250D
ENCODING 9485
SWIDTH 480 0
DWIDTH 13 0
BBX 12 12 0 -2
BITMAP
0000
0000
0000
0000
0000
07F0
07F0
0400
0400
0400
0400
0400
ENDCHAR
STARTCHAR p250E
ENCODING 9486
SWIDTH 480 0
DWIDTH 13 0
BBX 12 12 0 -2
BITMAP
0000
0000
0000
0000
0000
07F0
0600
0600
0600
0600
0600
0600
ENDCHAR
STARTCHAR p250F
ENCODING 9487
SWIDTH 480 0
DWIDTH 13 0
BBX 12 12 0 -2
BITMAP
0000
0000
0000
0000
0000
07F0
07F0
0600
0600
0600
0600
0600
ENDCHAR
STARTCHAR p2510
ENCODING 9488
SWIDTH 480 0
DWIDTH 13 0
BBX 12 12 0 -2
BITMAP
0000
0000
0000
0000
0000
FC00
0400
0400
0400
0400
0400
0400
ENDCHAR
STARTCHAR p2511
ENCODING 9489
SWIDTH 480 0
DWIDTH 13 0
BBX 12 12 0 -2
BITMAP
0000
0000
0000
0000
0000
FE00
FE00
0200
0200
0200
0200
0200
ENDCHAR
STARTCHAR p2512
ENCODING 9490
SWIDTH 480 0
DWIDTH 13 0
BBX 12 12 0 -2
BITMAP
0000
0000
0000
0000
0000
FE00
0600
0600
0600
0600
0600
0600
ENDCHAR
STARTCHAR p2513
ENCODING 9491
SWIDTH 480 0
DWIDTH 13 0
BBX 12 12 0 -2
BITMAP
0000
0000
0000
0000
0000
FE00
FE00
0600
0600
0600
0600
0600
ENDCHAR
STARTCHAR p2514
ENCODING 9492
SWIDTH 480 0
DWIDTH 13 0
BBX 12 12 0 -2
BITMAP
0400
0400
0400
0400
0400
07F0
0000
0000
0000
0000
0000
0000
ENDCHAR
STARTCHAR p2515
ENCODING 9493
SWIDTH 480 0
DWIDTH 13 0
BBX 12 12 0 -2
BITMAP
0400
0400
0400
0400
0400
07F0
07F0
0000
0000
0000
0000
0000
ENDCHAR
STARTCHAR p2516
ENCODING 9494
SWIDTH 480 0
DWIDTH 13 0
BBX 12 12 0 -2
BITMAP
0600
0600
0600
0600
0600
07F0
0000
0000
0000
0000
0000
0000
ENDCHAR
STARTCHAR p2517
ENCODING 9495
SWIDTH 480 0
DWIDTH 13 0
BBX 12 12 0 -2
BITMAP
0600
0600
0600
0600
0600
07F0
07F0
0000
0000
0000
0000
0000
ENDCHAR
STARTCHAR p2518
ENCODING 9496
SWIDTH 480 0
DWIDTH 13 0
BBX 12 12 0 -2
BITMAP
0400
0400
0400
0400
0400
FC00
0000
0000
0000
0000
0000
0000
ENDCHAR
STARTCHAR p2519
ENCODING 9497
SWIDTH 480 0
DWIDTH 13 0
BBX 12 12 0 -2
BITMAP
0400
0400
0400
0400
0400
FC00
FC00
0000
0000
0000
0000
0000
ENDCHAR
STARTCHAR p251A
ENCODING 9498
SWIDTH 480 0
DWIDTH 13 0
BBX 12 12 0 -2
BITMAP
0600
0600
0600
0600
0600
FE00
0000
0000
0000
0000
0000
0000
ENDCHAR
STARTCHAR p251B
ENCODING 9499
SWIDTH 480 0
DWIDTH 13 0
BBX 12 12 0 -2
BITMAP
0600
0600
0600
0600
0600
FE00
FE00
0000
0000
0000
0000
0000
ENDCHAR
STARTCHAR p251C
ENCODING 9500
SWIDTH 480 0
DWIDTH 13 0
BBX 12 12 0 -2
BITMAP
0400
0400
0400
0400
0400
07F0
0400
0400
0400
0400
0400
0400
ENDCHAR
STARTCHAR p251D
ENCODING 9501
SWIDTH 480 0
DWIDTH 13 0
BBX 12 12 0 -2
BITMAP
0200
0200
0200
0200
0200
03F0
03F0
0200
0200
0200
0200
0200
ENDCHAR
STARTCHAR p251E
ENCODING 9502
SWIDTH 480 0
DWIDTH 13 0
BBX 12 12 0 -2
BITMAP
0600
0600
0600
0600
0600
07F0
0400
0400
0400
0400
0400
0400
ENDCHAR
STARTCHAR p251F
ENCODING 9503
SWIDTH 480 0
DWIDTH 13 0
BBX 12 12 0 -2
BITMAP
0400
0400
0400
0400
0400
07F0
0600
0600
0600
0600
0600
0600
ENDCHAR
STARTCHAR p2520
ENCODING 9504
SWIDTH 480 0
DWIDTH 13 0
BBX 12 12 0 -2
BITMAP
0600
0600
0600
0600
0600
07F0
0600
0600
0600
0600
0600
0600
ENDCHAR
STARTCHAR p2521
ENCODING 9505
SWIDTH 480 0
DWIDTH 13 0
BBX 12 12 0 -2
BITMAP
0600
0600
0600
0600
0600
07F0
07F0
0400
0400
0400
0400
0400
ENDCHAR
STARTCHAR p2522
ENCODING 9506
SWIDTH 480 0
DWIDTH 13 0
BBX 12 12 0 -2
BITMAP
0400
0400
0400
0400
0400
07F0
07F0
0600
0600
0600
0600
0600
ENDCHAR
STARTCHAR p2523
ENCODING 9507
SWIDTH 480 0
DWIDTH 13 0
BBX 12 12 0 -2
BITMAP
0600
0600
0600
0600
0600
07F0
07F0
0600
0600
0600
0600
0600
ENDCHAR
STARTCHAR p2524
ENCODING 9508
SWIDTH 480 0
DWIDTH 13 0
BBX 12 12 0 -2
BITMAP
0400
0400
0400
0400
0400
FC00
0400
0400
0400
0400
0400
0400
ENDCHAR
STARTCHAR p2525
ENCODING 9509
SWIDTH 480 0
DWIDTH 13 0
BBX 12 12 0 -2
BITMAP
0400
0400
0400
0400
0400
FC00
FC00
0400
0400
0400
0400
0400
ENDCHAR
STARTCHAR p2526
ENCODING 9510
SWIDTH 480 0
DWIDTH 13 0
BBX 12 12 0 -2
BITMAP
0600
0600
0600
0600
0600
FE00
0400
0400
0400
0400
0400
0400
ENDCHAR
STARTCHAR p2527
ENCODING 9511
SWIDTH 480 0
DWIDTH 13 0
BBX 12 12 0 -2
BITMAP
0400
0400
0400
0400
0400
FE00
0600
0600
0600
0600
0600
0600
ENDCHAR
STARTCHAR p2528
ENCODING 9512
SWIDTH 480 0
DWIDTH 13 0
BBX 12 12 0 -2
BITMAP
0600
0600
0600
0600
0600
FE00
0600
0600
0600
0600
0600
0600
ENDCHAR
STARTCHAR p2529
ENCODING 9513
SWIDTH 480 0
DWIDTH 13 0
BBX 12 12 0 -2
BITMAP
0600
0600
0600
0600
0600
FE00
FE00
0400
0400
0400
0400
0400
ENDCHAR
STARTCHAR p252A
ENCODING 9514
SWIDTH 480 0
DWIDTH 13 0
BBX 12 12 0 -2
BITMAP
0400
0400
0400
0400
0400
FE00
FE00
0600
0600
0600
0600
0600
ENDCHAR
STARTCHAR p252B
ENCODING 9515
SWIDTH 480 0
DWIDTH 13 0
BBX 12 12 0 -2
BITMAP
0600
0600
0600
0600
0600
FE00
FE00
0600
0600
0600
0600
0600
ENDCHAR
STARTCHAR p252C
ENCODING 9516
SWIDTH 480 0
DWIDTH 13 0
BBX 12 12 0 -2
BITMAP
0000
0000
0000
0000
0000
FFF0
0400
0400
0400
0400
0400
0400
ENDCHAR
STARTCHAR p252D
ENCODING 9517
SWIDTH 480 0
DWIDTH 13 0
BBX 12 12 0 -2
BITMAP
0000
0000
0000
0000
0000
FFF0
FC00
0400
0400
0400
0400
0400
ENDCHAR
STARTCHAR p252E
ENCODING 9518
SWIDTH 480 0
DWIDTH 13 0
BBX 12 12 0 -2
BITMAP
0000
0000
0000
0000
0000
FFF0
07F0
0400
0400
0400
0400
0400
ENDCHAR
STARTCHAR p252F
ENCODING 9519
SWIDTH 480 0
DWIDTH 13 0
BBX 12 12 0 -2
BITMAP
0000
0000
0000
0000
0000
FFF0
FFF0
0400
0400
0400
0400
0400
ENDCHAR
STARTCHAR p2530
ENCODING 9520
SWIDTH 480 0
DWIDTH 13 0
BBX 12 12 0 -2
BITMAP
0000
0000
0000
0000
0000
FFF0
0600
0600
0600
0600
0600
0600
ENDCHAR
STARTCHAR p2531
ENCODING 9521
SWIDTH 480 0
DWIDTH 13 0
BBX 12 12 0 -2
BITMAP
0000
0000
0000
0000
0000
FFF0
FE00
0600
0600
0600
0600
0600
ENDCHAR
STARTCHAR p2532
ENCODING 9522
SWIDTH 480 0
DWIDTH 13 0
BBX 12 12 0 -2
BITMAP
0000
0000
0000
0000
0000
FFF0
07F0
0600
0600
0600
0600
0600
ENDCHAR
STARTCHAR p2533
ENCODING 9523
SWIDTH 480 0
DWIDTH 13 0
BBX 12 12 0 -2
BITMAP
0000
0000
0000
0000
0000
FFF0
FFF0
0600
0600
0600
0600
0600
ENDCHAR
STARTCHAR p2534
ENCODING 9524
SWIDTH 480 0
DWIDTH 13 0
BBX 12 12 0 -2
BITMAP
0400
0400
0400
0400
0400
FFF0
0000
0000
0000
0000
0000
0000
ENDCHAR
STARTCHAR p2535
ENCODING 9525
SWIDTH 480 0
DWIDTH 13 0
BBX 12 12 0 -2
BITMAP
0400
0400
0400
0400
0400
FFF0
FC00
0000
0000
0000
0000
0000
ENDCHAR
STARTCHAR p2536
ENCODING 9526
SWIDTH 480 0
DWIDTH 13 0
BBX 12 12 0 -2
BITMAP
0400
0400
0400
0400
0400
FFF0
07F0
0000
0000
0000
0000
0000
ENDCHAR
STARTCHAR p2537
ENCODING 9527
SWIDTH 480 0
DWIDTH 13 0
BBX 12 12 0 -2
BITMAP
0400
0400
0400
0400
0400
FFF0
FFF0
0000
0000
0000
0000
0000
ENDCHAR
STARTCHAR p2538
ENCODING 9528
SWIDTH 480 0
DWIDTH 13 0
BBX 12 12 0 -2
BITMAP
0600
0600
0600
0600
0600
FFF0
0000
0000
0000
0000
0000
0000
ENDCHAR
STARTCHAR p2539
ENCODING 9529
SWIDTH 480 0
DWIDTH 13 0
BBX 12 12 0 -2
BITMAP
0600
0600
0600
0600
0600
FFF0
FE00
0000
0000
0000
0000
0000
ENDCHAR
STARTCHAR p253A
ENCODING 9530
SWIDTH 480 0
DWIDTH 13 0
BBX 12 12 0 -2
BITMAP
0600
0600
0600
0600
0600
FFF0
07F0
0000
0000
0000
0000
0000
ENDCHAR
STARTCHAR p253B
ENCODING 9531
SWIDTH 480 0
DWIDTH 13 0
BBX 12 12 0 -2
BITMAP
0600
0600
0600
0600
0600
FFF0
FFF0
0000
0000
0000
0000
0000
ENDCHAR
STARTCHAR p253C
ENCODING 9532
SWIDTH 480 0
DWIDTH 13 0
BBX 12 12 0 -2
BITMAP
0400
0400
0400
0400
0400
FFF0
0400
0400
0400
0400
0400
0400
ENDCHAR
STARTCHAR p253D
ENCODING 9533
SWIDTH 480 0
DWIDTH 13 0
BBX 12 12 0 -2
BITMAP
0400
0400
0400
0400
0400
FFF0
FC00
0400
0400
0400
0400
0400
ENDCHAR
STARTCHAR p253E
ENCODING 9534
SWIDTH 480 0
DWIDTH 13 0
BBX 12 12 0 -2
BITMAP
0400
0400
0400
0400
0400
FFF0
07F0
0400
0400
0400
0400
0400
ENDCHAR
STARTCHAR p253F
ENCODING 9535
SWIDTH 480 0
DWIDTH 13 0
BBX 12 12 0 -2
BITMAP
0400
0400
0400
0400
0400
FFF0
FFF0
0400
0400
0400
0400
0400
ENDCHAR
STARTCHAR p2540
ENCODING 9536
SWIDTH 480 0
DWIDTH 13 0
BBX 12 12 0 -2
BITMAP
0600
0600
0600
0600
0600
FFF0
0400
0400
0400
0400
0400
0400
ENDCHAR
STARTCHAR p2541
ENCODING 9537
SWIDTH 480 0
DWIDTH 13 0
BBX 12 12 0 -2
BITMAP
0400
0400
0400
0400
0400
FFF0
0600
0600
0600
0600
0600
0600
ENDCHAR
STARTCHAR p2542
ENCODING 9538
SWIDTH 480 0
DWIDTH 13 0
BBX 12 12 0 -2
BITMAP
0600
0600
0600
0600
0600
FFF0
0600
0600
0600
0600
0600
0600
ENDCHAR
STARTCHAR p2543
ENCODING 9539
SWIDTH 480 0
DWIDTH 13 0
BBX 12 12 0 -2
BITMAP
0600
0600
0600
0600
0600
FFF0
FC00
0400
0400
0400
0400
0400
ENDCHAR
STARTCHAR p2544
ENCODING 9540
SWIDTH 480 0
DWIDTH 13 0
BBX 12 12 0 -2
BITMAP
0600
0600
0600
0600
0600
FFF0
07F0
0400
0400
0400
0400
0400
ENDCHAR
STARTCHAR p2545
ENCODING 9541
SWIDTH 480 0
DWIDTH 13 0
BBX 12 12 0 -2
BITMAP
0400
0400
0400
0400
0400
FFF0
FE00
0600
0600
0600
0600
0600
ENDCHAR
STARTCHAR p2546
ENCODING 9542
SWIDTH 480 0
DWIDTH 13 0
BBX 12 12 0 -2
BITMAP
0400
0400
0400
0400
0400
FFF0
07F0
0600
0600
0600
0600
0600
ENDCHAR
STARTCHAR p2547
ENCODING 9543
SWIDTH 480 0
DWIDTH 13 0
BBX 12 12 0 -2
BITMAP
0600
0600
0600
0600
0600
FFF0
FFF0
0400
0400
0400
0400
0400
ENDCHAR
STARTCHAR p2548
ENCODING 9544
SWIDTH 480 0
DWIDTH 13 0
BBX 12 12 0 -2
BITMAP
0400
0400
0400
0400
0400
FFF0
FFF0
0600
0600
0600
0600
0600
ENDCHAR
STARTCHAR p2549
ENCODING 9545
SWIDTH 480 0
DWIDTH 13 0
BBX 12 12 0 -2
BITMAP
0600
0600
0600
0600
0600
FFF0
FE00
0600
0600
0600
0600
0600
ENDCHAR
STARTCHAR p254A
ENCODING 9546
SWIDTH 480 0
DWIDTH 13 0
BBX 12 12 0 -2
BITMAP
0600
0600
0600
0600
0600
FFF0
07F0
0600
0600
0600
0600
0600
ENDCHAR
STARTCHAR p254B
ENCODING 9547
SWIDTH 480 0
DWIDTH 13 0
BBX 12 12 0 -2
BITMAP
0600
0600
0600
0600
0600
FFF0
FFF0
0600
0600
0600
0600
0600
ENDCHAR
STARTCHAR p2592
ENCODING 9618
SWIDTH 480 0
DWIDTH 13 0
BBX 12 12 0 -2
BITMAP
0000
7FE0
4020
5120
4460
5120
4460
5120
4460
5120
7FE0
0000
ENDCHAR
STARTCHAR p25A0
ENCODING 9632
SWIDTH 480 0
DWIDTH 13 0
BBX 12 12 0 -2
BITMAP
0000
7FE0
7FE0
7FE0
7FE0
7FE0
7FE0
7FE0
7FE0
7FE0
7FE0
0000
ENDCHAR
STARTCHAR p25A1
ENCODING 9633
SWIDTH 480 0
DWIDTH 13 0
BBX 12 12 0 -2
BITMAP
0000
7FE0
4020
4020
4020
4020
4020
4020
4020
4020
7FE0
0000
ENDCHAR
STARTCHAR p25A3
ENCODING 9635
SWIDTH 480 0
DWIDTH 13 0
BBX 12 12 0 -2
BITMAP
0000
7FE0
4020
5FA0
5FA0
5FA0
5FA0
5FA0
5FA0
4020
7FE0
0000
ENDCHAR
STARTCHAR p25A4
ENCODING 9636
SWIDTH 480 0
DWIDTH 13 0
BBX 12 12 0 -2
BITMAP
0000
7FE0
4020
7FE0
4020
7FE0
4020
7FE0
4020
4020
7FE0
0000
ENDCHAR
STARTCHAR p25A5
ENCODING 9637
SWIDTH 480 0
DWIDTH 13 0
BBX 12 12 0 -2
BITMAP
0000
7FE0
5520
5520
5520
5520
5520
5520
5520
5520
7FE0
0000
ENDCHAR
STARTCHAR p25A6
ENCODING 9638
SWIDTH 480 0
DWIDTH 13 0
BBX 12 12 0 -2
BITMAP
0000
7FE0
5520
7FE0
5520
7FE0
5520
7FE0
5520
5520
7FE0
0000
ENDCHAR
STARTCHAR p25A7
ENCODING 9639
SWIDTH 480 0
DWIDTH 13 0
BBX 12 12 0 -2
BITMAP
0000
7FE0
6220
5120
48A0
4460
6220
5120
48A0
4460
7FE0
0000
ENDCHAR
STARTCHAR p25A8
ENCODING 9640
SWIDTH 480 0
DWIDTH 13 0
BBX 12 12 0 -2
BITMAP
0000
7FE0
4460
48A0
5120
6220
4460
48A0
5120
6220
7FE0
0000
ENDCHAR
STARTCHAR p25A9
ENCODING 9641
SWIDTH 480 0
DWIDTH 13 0
BBX 12 12 0 -2
BITMAP
0000
7FE0
6660
59A0
59A0
6660
6660
59A0
59A0
6660
7FE0
0000
ENDCHAR
STARTCHAR p25B2
ENCODING 9650
SWIDTH 480 0
DWIDTH 13 0
BBX 12 12 0 -2
BITMAP
0000
0400
0400
0E00
0E00
1F00
1F00
3F80
3F80
7FC0
7FC0
0000
ENDCHAR
STARTCHAR p25B3
ENCODING 9651
SWIDTH 480 0
DWIDTH 13 0
BBX 12 12 0 -2
BITMAP
0000
0400
0400
0A00
0A00
1100
1100
2080
2080
4040
7FC0
0000
ENDCHAR
STARTCHAR p25B6
ENCODING 9654
SWIDTH 480 0
DWIDTH 13 0
BBX 12 12 0 -2
BITMAP
0000
6000
7800
7E00
7F80
7FE0
7F80
7E00
7800
6000
0000
0000
ENDCHAR
STARTCHAR p25B7
ENCODING 9655
SWIDTH 480 0
DWIDTH 13 0
BBX 12 12 0 -2
BITMAP
0000
6000
5800
4600
4180
4060
4180
4600
5800
6000
0000
0000
ENDCHAR
STARTCHAR p25BC
ENCODING 9660
SWIDTH 480 0
DWIDTH 13 0
BBX 12 12 0 -2
BITMAP
0000
7FC0
7FC0
3F80
3F80
1F00
1F00
0E00
0E00
0400
0400
0000
ENDCHAR
STARTCHAR p25BD
ENCODING 9661
SWIDTH 480 0
DWIDTH 13 0
BBX 12 12 0 -2
BITMAP
0000
7FC0
4040
2080
2080
1100
1100
0A00
0A00
0400
0400
0000
ENDCHAR
STARTCHAR p25C0
ENCODING 9664
SWIDTH 480 0
DWIDTH 13 0
BBX 12 12 0 -2
BITMAP
0000
0060
01E0
07E0
1FE0
7FE0
1FE0
07E0
01E0
0060
0000
0000
ENDCHAR
STARTCHAR p25C1
ENCODING 9665
SWIDTH 480 0
DWIDTH 13 0
BBX 12 12 0 -2
BITMAP
0000
0060
01A0
0620
1820
6020
1820
0620
01A0
0060
0000
0000
ENDCHAR
STARTCHAR p25C6
ENCODING 9670
SWIDTH 480 0
DWIDTH 13 0
BBX 12 12 0 -2
BITMAP
0000
0600
0F00
1F80
3FC0
7FE0
7FE0
3FC0
1F80
0F00
0600
0000
ENDCHAR
STARTCHAR p25C7
ENCODING 9671
SWIDTH 480 0
DWIDTH 13 0
BBX 12 12 0 -2
BITMAP
0000
0600
0900
1080
2040
4020
4020
2040
1080
0900
0600
0000
ENDCHAR
STARTCHAR p25C8
ENCODING 9672
SWIDTH 480 0
DWIDTH 13 0
BBX 12 12 0 -2
BITMAP
0000
0600
0900
1680
2F40
5FA0
5FA0
2F40
1680
0900
0600
0000
ENDCHAR
STARTCHAR p25CB
ENCODING 9675
SWIDTH 480 0
DWIDTH 13 0
BBX 12 12 0 -2
BITMAP
0000
0F00
1080
2040
4020
4020
4020
4020
2040
1080
0F00
0000
ENDCHAR
STARTCHAR p25CE
ENCODING 9678
SWIDTH 480 0
DWIDTH 13 0
BBX 12 12 0 -2
BITMAP
0000
0F00
1080
2640
4920
50A0
50A0
4920
2640
1080
0F00
0000
ENDCHAR
STARTCHAR p25CF
ENCODING 9679
SWIDTH 480 0
DWIDTH 13 0
BBX 12 12 0 -2
BITMAP
0000
1F80
3FC0
7FE0
7FE0
7FE0
7FE0
7FE0
7FE0
3FC0
1F80
0000
ENDCHAR
STARTCHAR p25D0
ENCODING 9680
SWIDTH 480 0
DWIDTH 13 0
BBX 12 12 0 -2
BITMAP
0000
1F80
3C40
7C20
7C20
7C20
7C20
7C20
7C20
3C40
1F80
0000
ENDCHAR
STARTCHAR p25D1
ENCODING 9681
SWIDTH 480 0
DWIDTH 13 0
BBX 12 12 0 -2
BITMAP
0000
1F80
23C0
43E0
43E0
43E0
43E0
43E0
43E0
23C0
1F80
0000
ENDCHAR
STARTCHAR p2605
ENCODING 9733
SWIDTH 480 0
DWIDTH 13 0
BBX 12 12 0 -2
BITMAP
0400
0600
0E00
0F00
FFF0
3FC0
1F80
0F00
1F80
1980
30C0
0000
ENDCHAR
STARTCHAR p2606
ENCODING 9734
SWIDTH 480 0
DWIDTH 13 0
BBX 12 12 0 -2
BITMAP
0400
0600
0A00
0900
F9F0
4020
30C0
1080
1680
1980
30C0
0000
ENDCHAR
STARTCHAR p260E
ENCODING 9742
SWIDTH 480 0
DWIDTH 13 0
BBX 12 12 0 -2
BITMAP
0000
3FC0
7FE0
E970
EF70
1F80
39C0
70E0
79E0
7FE0
0000
0000
ENDCHAR
STARTCHAR p260F
ENCODING 9743
SWIDTH 480 0
DWIDTH 13 0
BBX 12 12 0 -2
BITMAP
0000
3FC0
4020
B6D0
D0B0
2640
4920
4620
4020
7FE0
0000
0000
ENDCHAR
STARTCHAR p261C
ENCODING 9756
SWIDTH 480 0
DWIDTH 13 0
BBX 12 12 0 -2
BITMAP
0000
0000
7F70
80D0
7C50
1050
0C50
1050
0C50
10D0
0F70
0000
ENDCHAR
STARTCHAR p261E
ENCODING 9758
SWIDTH 480 0
DWIDTH 13 0
BBX 12 12 0 -2
BITMAP
0000
0000
EFE0
B010
A3E0
A080
A300
A080
A300
B080
EF00
0000
ENDCHAR
STARTCHAR p2640
ENCODING 9792
SWIDTH 480 0
DWIDTH 13 0
BBX 12 12 0 -2
BITMAP
0000
0700
0880
0880
0880
0700
0200
1FC0
0200
0200
0200
0000
ENDCHAR
STARTCHAR p2642
ENCODING 9794
SWIDTH 480 0
DWIDTH 13 0
BBX 12 12 0 -2
BITMAP
0000
0200
0700
0A80
1240
0200
0700
0880
0880
0880
0700
0000
ENDCHAR
STARTCHAR p2660
ENCODING 9824
SWIDTH 480 0
DWIDTH 13 0
BBX 12 12 0 -2
BITMAP
0200
0700
0F80
1FC0
3FE0
3FE0
7FF0
7FF0
3760
0700
0F80
0000
ENDCHAR
STARTCHAR p2661
ENCODING 9825
SWIDTH 480 0
DWIDTH 13 0
BBX 12 12 0 -2
BITMAP
0000
38E0
4510
4210
4010
2020
2020
1040
0880
0500
0200
0000
ENDCHAR
STARTCHAR p2663
ENCODING 9827
SWIDTH 480 0
DWIDTH 13 0
BBX 12 12 0 -2
BITMAP
0700
0F80
1FC0
1FC0
0F80
3FE0
7FF0
7FF0
3FE0
0700
0F80
0000
ENDCHAR
STARTCHAR p2664
ENCODING 9828
SWIDTH 480 0
DWIDTH 13 0
BBX 12 12 0 -2
BITMAP
0200
0500
0880
1040
2020
2020
4010
4D90
3560
0500
0F80
0000
ENDCHAR
STARTCHAR p2665
ENCODING 9829
SWIDTH 480 0
DWIDTH 13 0
BBX 12 12 0 -2
BITMAP
0000
38E0
7DF0
7FF0
7FF0
7FF0
3FE0
1FC0
0F80
0700
0200
0000
ENDCHAR
STARTCHAR p2667
ENCODING 9831
SWIDTH 480 0
DWIDTH 13 0
BBX 12 12 0 -2
BITMAP
0700
0880
1040
1040
0880
38E0
4010
4510
3DE0
0500
0F80
0000
ENDCHAR
STARTCHAR p2668
ENCODING 9832
SWIDTH 480 0
DWIDTH 13 0
BBX 12 12 0 -2
BITMAP
0000
0200
0A80
1500
1500
0A80
0A80
2AC0
5520
6060
3FC0
0000
ENDCHAR
STARTCHAR p2669
ENCODING 9833
SWIDTH 480 0
DWIDTH 13 0
BBX 12 12 0 -2
BITMAP
0000
0100
0100
0100
0100
0100
0100
0100
0700
0F00
0E00
0000
ENDCHAR
STARTCHAR p266A
ENCODING 9834
SWIDTH 480 0
DWIDTH 13 0
BBX 12 12 0 -2
BITMAP
0000
0200
0300
0280
0240
0240
0280
0200
0E00
1E00
1C00
0000
ENDCHAR
STARTCHAR p266C
ENCODING 9836
SWIDTH 480 0
DWIDTH 13 0
BBX 12 12 0 -2
BITMAP
0000
01C0
0E40
09C0
0E40
0840
0840
0840
18C0
39C0
3180
0000
ENDCHAR
STARTCHAR p266D
ENCODING 9837
SWIDTH 480 0
DWIDTH 13 0
BBX 12 12 0 -2
BITMAP
0000
0800
0800
0800
0800
0B00
0C80
0880
0900
0A00
0C00
0000
ENDCHAR
STARTCHAR p3000
ENCODING 12288
SWIDTH 480 0
DWIDTH 13 0
BBX 12 12 0 -2
BITMAP
0000
0000
0000
0000
0000
0000
0000
0000
0000
0000
0000
0000
ENDCHAR
STARTCHAR p3001
ENCODING 12289
SWIDTH 480 0
DWIDTH 13 0
BBX 12 12 0 -2
BITMAP
0800
0400
0200
0000
0000
0000
0000
0000
0000
0000
0000
0000
ENDCHAR
STARTCHAR p3002
ENCODING 12290
SWIDTH 480 0
DWIDTH 13 0
BBX 12 12 0 -2
BITMAP
0000
0000
0000
0600
0900
0900
0600
0000
0000
0000
0000
0000
ENDCHAR
STARTCHAR p3003
ENCODING 12291
SWIDTH 480 0
DWIDTH 13 0
BBX 12 12 0 -2
BITMAP
0500
0500
0A00
0A00
0000
0000
0000
0000
0000
0000
0000
0000
ENDCHAR
STARTCHAR p3008
ENCODING 12296
SWIDTH 480 0
DWIDTH 13 0
BBX 12 12 0 -2
BITMAP
0000
0020
0020
0040
0040
0080
0080
0040
0040
0020
0020
0000
ENDCHAR
STARTCHAR p3009
ENCODING 12297
SWIDTH 480 0
DWIDTH 13 0
BBX 12 12 0 -2
BITMAP
0000
4000
4000
2000
2000
1000
1000
2000
2000
4000
4000
0000
ENDCHAR
STARTCHAR p300A
ENCODING 12298
SWIDTH 480 0
DWIDTH 13 0
BBX 12 12 0 -2
BITMAP
0000
00A0
00A0
0140
0140
0280
0280
0140
0140
00A0
00A0
0000
ENDCHAR
STARTCHAR p300B
ENCODING 12299
SWIDTH 480 0
DWIDTH 13 0
BBX 12 12 0 -2
BITMAP
0000
5000
5000
2800
2800
1400
1400
2800
2800
5000
5000
0000
ENDCHAR
STARTCHAR p300C
ENCODING 12300
SWIDTH 480 0
DWIDTH 13 0
BBX 12 12 0 -2
BITMAP
00F0
0080
0080
0080
0080
0080
0080
0080
0080
0080
0000
0000
ENDCHAR
STARTCHAR p300D
ENCODING 12301
SWIDTH 480 0
DWIDTH 13 0
BBX 12 12 0 -2
BITMAP
0000
0000
1000
1000
1000
1000
1000
1000
1000
1000
1000
F000
ENDCHAR
STARTCHAR p300E
ENCODING 12302
SWIDTH 480 0
DWIDTH 13 0
BBX 12 12 0 -2
BITMAP
01F0
0110
0170
0140
0140
0140
0140
0140
0140
01C0
0000
0000
ENDCHAR
STARTCHAR p300F
ENCODING 12303
SWIDTH 480 0
DWIDTH 13 0
BBX 12 12 0 -2
BITMAP
0000
0000
3800
2800
2800
2800
2800
2800
2800
E800
8800
F800
ENDCHAR
STARTCHAR p3010
ENCODING 12304
SWIDTH 480 0
DWIDTH 13 0
BBX 12 12 0 -2
BITMAP
00F0
00E0
00C0
00C0
0080
0080
0080
0080
00C0
00C0
00E0
00F0
ENDCHAR
STARTCHAR p3011
ENCODING 12305
SWIDTH 480 0
DWIDTH 13 0
BBX 12 12 0 -2
BITMAP
F000
7000
3000
3000
1000
1000
1000
1000
3000
3000
7000
F000
ENDCHAR
STARTCHAR p3013
ENCODING 12307
SWIDTH 480 0
DWIDTH 13 0
BBX 12 12 0 -2
BITMAP
0000
0000
0000
0000
3FC0
0000
0000
3FC0
0000
0000
0000
0000
ENDCHAR
STARTCHAR p3014
ENCODING 12308
SWIDTH 480 0
DWIDTH 13 0
BBX 12 12 0 -2
BITMAP
0000
0010
0020
0040
0040
0040
0040
0040
0040
0020
0010
0000
ENDCHAR
STARTCHAR p3015
ENCODING 12309
SWIDTH 480 0
DWIDTH 13 0
BBX 12 12 0 -2
BITMAP
0000
8000
4000
2000
2000
2000
2000
2000
2000
4000
8000
0000
ENDCHAR
STARTCHAR p3041
ENCODING 12353
SWIDTH 480 0
DWIDTH 13 0
BBX 12 12 0 -2
BITMAP
0000
0000
0000
0800
0F00
3800
0F00
1A80
2A40
2C40
1480
0300
ENDCHAR
STARTCHAR p3042
ENCODING 12354
SWIDTH 480 0
DWIDTH 13 0
BBX 12 12 0 -2
BITMAP
0000
0800
0800
0F80
3800
0900
0F80
1940
2920
4A20
4C20
3440
ENDCHAR
STARTCHAR p3043
ENCODING 12355
SWIDTH 480 0
DWIDTH 13 0
BBX 12 12 0 -2
BITMAP
0000
0000
0000
1000
1100
2080
2040
2040
2400
2800
1000
0000
ENDCHAR
STARTCHAR p3044
ENCODING 12356
SWIDTH 480 0
DWIDTH 13 0
BBX 12 12 0 -2
BITMAP
0000
2000
2080
4040
4040
4020
4420
4420
4800
2800
1000
0000
ENDCHAR
STARTCHAR p3045
ENCODING 12357
SWIDTH 480 0
DWIDTH 13 0
BBX 12 12 0 -2
BITMAP
0000
0000
0000
0F00
0000
0700
1880
0080
0080
0100
0200
0C00
ENDCHAR
STARTCHAR p3046
ENCODING 12358
SWIDTH 480 0
DWIDTH 13 0
BBX 12 12 0 -2
BITMAP
1800
0700
0000
0F00
3080
0040
0040
0040
0040
0080
0300
1C00
ENDCHAR
STARTCHAR p3047
ENCODING 12359
SWIDTH 480 0
DWIDTH 13 0
BBX 12 12 0 -2
BITMAP
0000
0000
0000
0E00
0000
0700
1900
0200
0400
0E00
1200
23C0
ENDCHAR
STARTCHAR p3048
ENCODING 12360
SWIDTH 480 0
DWIDTH 13 0
BBX 12 12 0 -2
BITMAP
0000
0C00
0300
0000
0780
3900
0200
0400
0E00
1100
2100
41E0
ENDCHAR
STARTCHAR p3049
ENCODING 12361
SWIDTH 480 0
DWIDTH 13 0
BBX 12 12 0 -2
BITMAP
0000
0000
0000
0880
0E40
3820
0F80
1840
2820
4820
2A20
19C0
ENDCHAR
STARTCHAR p304A
ENCODING 12362
SWIDTH 480 0
DWIDTH 13 0
BBX 12 12 0 -2
BITMAP
0000
0880
0840
0F20
3800
0800
0F80
1840
2820
4820
2A40
1980
ENDCHAR
STARTCHAR p304B
ENCODING 12363
SWIDTH 480 0
DWIDTH 13 0
BBX 12 12 0 -2
BITMAP
0000
0800
0800
0800
1E40
7120
1110
1110
2100
2100
4900
4600
ENDCHAR
STARTCHAR p304C
ENCODING 12364
SWIDTH 480 0
DWIDTH 13 0
BBX 12 12 0 -2
BITMAP
0020
1090
1040
1100
3C80
E240
2240
2200
4200
4200
9200
8C00
ENDCHAR
STARTCHAR p304D
ENCODING 12365
SWIDTH 480 0
DWIDTH 13 0
BBX 12 12 0 -2
BITMAP
0000
0400
2580
1E00
4260
3F80
0100
1F80
2080
2000
2040
1F80
ENDCHAR
STARTCHAR p304E
ENCODING 12366
SWIDTH 480 0
DWIDTH 13 0
BBX 12 12 0 -2
BITMAP
00A0
0450
2580
1E00
4260
3F80
0100
1F80
2080
2000
2040
1F80
ENDCHAR
STARTCHAR p304F
ENCODING 12367
SWIDTH 480 0
DWIDTH 13 0
BBX 12 12 0 -2
BITMAP
0000
0100
0200
0400
0800
1000
2000
1000
0800
0400
0200
0100
ENDCHAR
STARTCHAR p3050
ENCODING 12368
SWIDTH 480 0
DWIDTH 13 0
BBX 12 12 0 -2
BITMAP
0000
0100
0220
0490
0840
1000
2000
1000
0800
0400
0200
0100
ENDCHAR
STARTCHAR p3051
ENCODING 12369
SWIDTH 480 0
DWIDTH 13 0
BBX 12 12 0 -2
BITMAP
0000
0080
2080
28F0
4780
4080
4080
4080
4080
4080
2100
0600
ENDCHAR
STARTCHAR p3052
ENCODING 12370
SWIDTH 480 0
DWIDTH 13 0
BBX 12 12 0 -2
BITMAP
00A0
0150
4100
51E0
8F00
8100
8100
8100
8100
8100
4200
0C00
ENDCHAR
STARTCHAR p3053
ENCODING 12371
SWIDTH 480 0
DWIDTH 13 0
BBX 12 12 0 -2
BITMAP
0000
0000
1F80
0000
0000
0000
1000
2000
2000
1000
0FC0
0000
ENDCHAR
STARTCHAR p3054
ENCODING 12372
SWIDTH 480 0
DWIDTH 13 0
BBX 12 12 0 -2
BITMAP
00A0
0050
1F80
0000
0000
0000
1000
2000
2000
1000
0FC0
0000
ENDCHAR
STARTCHAR p3055
ENCODING 12373
SWIDTH 480 0
DWIDTH 13 0
BBX 12 12 0 -2
BITMAP
0000
0400
44C0
3F00
0200
0100
1F80
2080
2000
2000
1F80
0000
ENDCHAR
STARTCHAR p3056
ENCODING 12374
SWIDTH 480 0
DWIDTH 13 0
BBX 12 12 0 -2
BITMAP
00A0
0450
44C0
3F00
0200
0100
1F80
2080
2000
2000
1F80
0000
ENDCHAR
STARTCHAR p3057
ENCODING 12375
SWIDTH 480 0
DWIDTH 13 0
BBX 12 12 0 -2
BITMAP
0000
1000
1000
1000
1000
1000
1000
1000
1040
1080
0F00
0000
ENDCHAR
STARTCHAR p3058
ENCODING 12376
SWIDTH 480 0
DWIDTH 13 0
BBX 12 12 0 -2
BITMAP
0040
1120
1080
1000
1000
1000
1000
1000
1040
1080
0F00
0000
ENDCHAR
STARTCHAR p3059
ENCODING 12377
SWIDTH 480 0
DWIDTH 13 0
BBX 12 12 0 -2
BITMAP
0000
0200
0200
7FE0
0200
0E00
1200
1200
0E00
0200
0400
0800
ENDCHAR
STARTCHAR p305A
ENCODING 12378
SWIDTH 480 0
DWIDTH 13 0
BBX 12 12 0 -2
BITMAP
00A0
0250
0200
7FE0
0200
0E00
1200
1200
0E00
0200
0400
1800
ENDCHAR
STARTCHAR p305B
ENCODING 12379
SWIDTH 480 0
DWIDTH 13 0
BBX 12 12 0 -2
BITMAP
0000
0080
1080
1080
1FE0
7080
1080
1300
1000
1000
0FC0
0000
ENDCHAR
STARTCHAR p305C
ENCODING 12380
SWIDTH 480 0
DWIDTH 13 0
BBX 12 12 0 -2
BITMAP
00A0
0150
2100
2100
3FC0
E100
2100
2600
2000
2000
1F80
0000
ENDCHAR
STARTCHAR p305D
ENCODING 12381
SWIDTH 480 0
DWIDTH 13 0
BBX 12 12 0 -2
BITMAP
0000
1F00
0200
0400
0800
1FC0
6200
0400
0800
0800
0400
0300
ENDCHAR
STARTCHAR p305E
ENCODING 12382
SWIDTH 480 0
DWIDTH 13 0
BBX 12 12 0 -2
BITMAP
0000
1F00
02A0
0450
0800
1FC0
6200
0400
0800
0800
0400
0300
ENDCHAR
STARTCHAR p305F
ENCODING 12383
SWIDTH 480 0
DWIDTH 13 0
BBX 12 12 0 -2
BITMAP
0000
0800
0800
0F00
7800
13C0
1000
2000
2200
2400
4400
43E0
ENDCHAR
STARTCHAR p3060
ENCODING 12384
SWIDTH 480 0
DWIDTH 13 0
BBX 12 12 0 -2
BITMAP
0020
0890
0840
0F00
7800
13C0
1000
2000
2200
2400
4400
43E0
ENDCHAR
STARTCHAR p3061
ENCODING 12385
SWIDTH 480 0
DWIDTH 13 0
BBX 12 12 0 -2
BITMAP
0000
0800
0800
0F80
7800
1000
1780
1840
1020
0020
0040
0F80
ENDCHAR
STARTCHAR p3062
ENCODING 12386
SWIDTH 480 0
DWIDTH 13 0
BBX 12 12 0 -2
BITMAP
0020
0890
0840
0F80
7800
1000
1780
1840
1020
0020
0040
0F80
ENDCHAR
STARTCHAR p3063
ENCODING 12387
SWIDTH 480 0
DWIDTH 13 0
BBX 12 12 0 -2
BITMAP
0000
0000
0000
0000
0700
3880
0040
0040
0040
0080
0F00
0000
ENDCHAR
STARTCHAR p3064
ENCODING 12388
SWIDTH 480 0
DWIDTH 13 0
BBX 12 12 0 -2
BITMAP
0000
0000
0F00
7080
0040
0040
0040
0040
0080
0300
1C00
0000
ENDCHAR
STARTCHAR p3065
ENCODING 12389
SWIDTH 480 0
DWIDTH 13 0
BBX 12 12 0 -2
BITMAP
00A0
0050
0F00
7080
0040
0040
0040
0040
0080
0300
1C00
0000
ENDCHAR
STARTCHAR p3066
ENCODING 12390
SWIDTH 480 0
DWIDTH 13 0
BBX 12 12 0 -2
BITMAP
0000
0FC0
7100
0200
0400
0800
0800
0800
0800
0400
0380
0000
ENDCHAR
STARTCHAR p3067
ENCODING 12391
SWIDTH 480 0
DWIDTH 13 0
BBX 12 12 0 -2
BITMAP
0000
0FC0
7100
0220
0490
0840
0800
0800
0800
0400
0380
0000
ENDCHAR
STARTCHAR p3068
ENCODING 12392
SWIDTH 480 0
DWIDTH 13 0
BBX 12 12 0 -2
BITMAP
0400
0400
0400
0400
07C0
0C00
1000
2000
2000
2000
1FE0
0000
ENDCHAR
STARTCHAR p3069
ENCODING 12393
SWIDTH 480 0
DWIDTH 13 0
BBX 12 12 0 -2
BITMAP
0420
0490
0440
0400
07C0
0C00
1000
2000
2000
2000
1FE0
0000
ENDCHAR
STARTCHAR p306A
ENCODING 12394
SWIDTH 480 0
DWIDTH 13 0
BBX 12 12 0 -2
BITMAP
0800
0800
0E80
7840
1020
1080
2080
2080
2780
48C0
48A0
0710
ENDCHAR
STARTCHAR p306B
ENCODING 12395
SWIDTH 480 0
DWIDTH 13 0
BBX 12 12 0 -2
BITMAP
0000
0000
20C0
2300
4000
4000
4000
4000
4400
2400
23E0
0000
ENDCHAR
STARTCHAR p306C
ENCODING 12396
SWIDTH 480 0
DWIDTH 13 0
BBX 12 12 0 -2
BITMAP
0000
0400
4400
4F80
3440
6420
A820
A820
91A0
9A60
69D0
0000
ENDCHAR
STARTCHAR p306D
ENCODING 12397
SWIDTH 480 0
DWIDTH 13 0
BBX 12 12 0 -2
BITMAP
0000
1000
1000
19C0
7A20
1420
1820
3020
71E0
5220
11D0
0000
ENDCHAR
STARTCHAR p306E
ENCODING 12398
SWIDTH 480 0
DWIDTH 13 0
BBX 12 12 0 -2
BITMAP
0000
0000
0F80
1240
2220
4220
4420
4420
4840
3080
0300
0000
ENDCHAR
STARTCHAR p306F
ENCODING 12399
SWIDTH 480 0
DWIDTH 13 0
BBX 12 12 0 -2
BITMAP
0000
4100
4100
91C0
8F00
8100
8100
8100
8F00
5180
4E40
0000
ENDCHAR
STARTCHAR p3070
ENCODING 12400
SWIDTH 480 0
DWIDTH 13 0
BBX 12 12 0 -2
BITMAP
00A0
4150
4100
91C0
8F00
8100
8100
8100
8F00
5180
4E40
0000
ENDCHAR
STARTCHAR p3071
ENCODING 12401
SWIDTH 480 0
DWIDTH 13 0
BBX 12 12 0 -2
BITMAP
0070
4150
4170
91C0
8F00
8100
8100
8100
8F00
5180
4E40
0000
ENDCHAR
STARTCHAR p3072
ENCODING 12402
SWIDTH 480 0
DWIDTH 13 0
BBX 12 12 0 -2
BITMAP
0000
1C00
6800
1080
10C0
20C0
20A0
2090
2080
1100
0E00
0000
ENDCHAR
STARTCHAR p3073
ENCODING 12403
SWIDTH 480 0
DWIDTH 13 0
BBX 12 12 0 -2
BITMAP
00A0
1C50
6800
1080
10C0
20C0
20A0
2090
2080
1100
0E00
0000
ENDCHAR
STARTCHAR p3074
ENCODING 12404
SWIDTH 480 0
DWIDTH 13 0
BBX 12 12 0 -2
BITMAP
0070
1C50
6870
1080
10C0
20C0
20A0
2090
2080
1100
0E00
0000
ENDCHAR
STARTCHAR p3075
ENCODING 12405
SWIDTH 480 0
DWIDTH 13 0
BBX 12 12 0 -2
BITMAP
0C00
0300
0000
0000
0400
0200
0140
1120
2110
4910
0600
0000
ENDCHAR
STARTCHAR p3076
ENCODING 12406
SWIDTH 480 0
DWIDTH 13 0
BBX 12 12 0 -2
BITMAP
1820
0690
0040
0000
0800
0400
0280
2240
4220
9220
0C00
0000
ENDCHAR
STARTCHAR p3077
ENCODING 12407
SWIDTH 480 0
DWIDTH 13 0
BBX 12 12 0 -2
BITMAP
18E0
06A0
00E0
0000
0800
0400
0280
2240
4220
9220
0C00
0000
ENDCHAR
STARTCHAR p3078
ENCODING 12408
SWIDTH 480 0
DWIDTH 13 0
BBX 12 12 0 -2
BITMAP
0000
0000
0000
0C00
1200
2100
4080
0040
0020
0010
0000
0000
ENDCHAR
STARTCHAR p3079
ENCODING 12409
SWIDTH 480 0
DWIDTH 13 0
BBX 12 12 0 -2
BITMAP
0000
0040
0120
0C80
1200
2100
4080
0040
0020
0010
0000
0000
ENDCHAR
STARTCHAR p307A
ENCODING 12410
SWIDTH 480 0
DWIDTH 13 0
BBX 12 12 0 -2
BITMAP
0000
00E0
00A0
0CE0
1200
2100
4080
0040
0020
0010
0000
0000
ENDCHAR
STARTCHAR p307B
ENCODING 12411
SWIDTH 480 0
DWIDTH 13 0
BBX 12 12 0 -2
BITMAP
0000
2180
2700
4100
41C0
4F00
4100
4100
4700
2980
2640
0000
ENDCHAR
STARTCHAR p307C
ENCODING 12412
SWIDTH 480 0
DWIDTH 13 0
BBX 12 12 0 -2
BITMAP
00A0
4350
4E00
8200
8380
9E00
8200
8200
8E00
5300
4C80
0000
ENDCHAR
STARTCHAR p307D
ENCODING 12413
SWIDTH 480 0
DWIDTH 13 0
BBX 12 12 0 -2
BITMAP
0070
4350
4E70
8200
8380
9E00
8200
8200
8E00
5300
4C80
0000
ENDCHAR
STARTCHAR p307E
ENCODING 12414
SWIDTH 480 0
DWIDTH 13 0
BBX 12 12 0 -2
BITMAP
0000
0200
0200
3FE0
0200
2200
1FC0
0200
0200
1E00
2300
1CC0
ENDCHAR
STARTCHAR p307F
ENCODING 12415
SWIDTH 480 0
DWIDTH 13 0
BBX 12 12 0 -2
BITMAP
0000
0E00
3200
0240
0240
1F40
24C0
4460
4850
5080
2100
0000
ENDCHAR
STARTCHAR p3080
ENCODING 12416
SWIDTH 480 0
DWIDTH 13 0
BBX 12 12 0 -2
BITMAP
1000
1040
1C20
7010
1010
3040
5040
5020
3020
1020
0FC0
0000
ENDCHAR
STARTCHAR p3081
ENCODING 12417
SWIDTH 480 0
DWIDTH 13 0
BBX 12 12 0 -2
BITMAP
0200
0200
2200
2F80
3440
5420
5420
4820
4C20
3440
0180
0000
ENDCHAR
STARTCHAR p3082
ENCODING 12418
SWIDTH 480 0
DWIDTH 13 0
BBX 12 12 0 -2
BITMAP
0400
0400
2400
1F00
0800
2840
1E20
0820
0820
0820
07C0
0000
ENDCHAR
STARTCHAR p3083
ENCODING 12419
SWIDTH 480 0
DWIDTH 13 0
BBX 12 12 0 -2
BITMAP
0000
0000
0000
0400
1200
17C0
7920
0820
09C0
0400
0400
0400
ENDCHAR
STARTCHAR p3084
ENCODING 12420
SWIDTH 480 0
DWIDTH 13 0
BBX 12 12 0 -2
BITMAP
0000
0200
2200
23E0
1D10
F110
1010
09E0
0800
0800
0400
0400
ENDCHAR
STARTCHAR p3085
ENCODING 12421
SWIDTH 480 0
DWIDTH 13 0
BBX 12 12 0 -2
BITMAP
0000
0000
0200
1200
2780
2A40
3240
2240
2A40
2780
0200
0C00
ENDCHAR
STARTCHAR p3086
ENCODING 12422
SWIDTH 480 0
DWIDTH 13 0
BBX 12 12 0 -2
BITMAP
0100
2100
4780
4940
5120
6120
6920
4920
4540
0380
0200
0C00
ENDCHAR
STARTCHAR p3087
ENCODING 12423
SWIDTH 480 0
DWIDTH 13 0
BBX 12 12 0 -2
BITMAP
0000
0000
0000
0400
0400
0400
0780
0400
0400
1C00
2600
1980
ENDCHAR
STARTCHAR p3088
ENCODING 12424
SWIDTH 480 0
DWIDTH 13 0
BBX 12 12 0 -2
BITMAP
0400
0400
0400
07C0
0400
0400
0400
3C00
4700
44C0
3840
0000
ENDCHAR
STARTCHAR p3089
ENCODING 12425
SWIDTH 480 0
DWIDTH 13 0
BBX 12 12 0 -2
BITMAP
0C00
0300
0000
1000
2000
2780
2840
3020
2020
0020
0040
0780
ENDCHAR
STARTCHAR p308A
ENCODING 12426
SWIDTH 480 0
DWIDTH 13 0
BBX 12 12 0 -2
BITMAP
0000
2080
2080
2080
2080
2080
2880
1080
0080
0100
0600
0000
ENDCHAR
STARTCHAR p308B
ENCODING 12427
SWIDTH 480 0
DWIDTH 13 0
BBX 12 12 0 -2
BITMAP
0000
1F80
0100
0200
0400
0F80
1040
0020
0E20
1140
0F80
0000
ENDCHAR
STARTCHAR p308C
ENCODING 12428
SWIDTH 480 0
DWIDTH 13 0
BBX 12 12 0 -2
BITMAP
1000
1000
1800
7300
1480
1880
1080
3080
5080
5090
1060
0000
ENDCHAR
STARTCHAR p308D
ENCODING 12429
SWIDTH 480 0
DWIDTH 13 0
BBX 12 12 0 -2
BITMAP
0000
1F80
0100
0200
0400
0F80
1040
2020
0020
0040
0780
0000
ENDCHAR
STARTCHAR p308E
ENCODING 12430
SWIDTH 480 0
DWIDTH 13 0
BBX 12 12 0 -2
BITMAP
0000
0000
0000
0800
0C00
3B80
0C40
0820
1820
2840
0B80
0000
ENDCHAR
STARTCHAR p308F
ENCODING 12431
SWIDTH 480 0
DWIDTH 13 0
BBX 12 12 0 -2
BITMAP
1000
1000
1800
7BC0
1420
1810
3010
3010
5010
5020
11C0
0000
ENDCHAR
STARTCHAR p3090
ENCODING 12432
SWIDTH 480 0
DWIDTH 13 0
BBX 12 12 0 -2
BITMAP
0000
0F00
0100
0200
0FC0
1420
2410
4810
4B10
54A0
23C0
0000
ENDCHAR
STARTCHAR p3091
ENCODING 12433
SWIDTH 480 0
DWIDTH 13 0
BBX 12 12 0 -2
BITMAP
0000
0F00
3200
0400
1F00
6080
1880
2480
1F00
0800
3140
4E20
ENDCHAR
STARTCHAR p3092
ENCODING 12434
SWIDTH 480 0
DWIDTH 13 0
BBX 12 12 0 -2
BITMAP
0000
0400
0580
3E00
0800
1C00
2200
43C0
0E00
1200
1000
0FC0
ENDCHAR
STARTCHAR p3093
ENCODING 12435
SWIDTH 480 0
DWIDTH 13 0
BBX 12 12 0 -2
BITMAP
0000
0800
0800
0800
1000
1C00
1200
2220
2220
4240
4180
0000
ENDCHAR
STARTCHAR p30A1
ENCODING 12449
SWIDTH 480 0
DWIDTH 13 0
BBX 12 12 0 -2
BITMAP
0000
0000
0000
0000
1FC0
0080
0500
0600
0400
0400
0800
1000
ENDCHAR
STARTCHAR p30A2
ENCODING 12450
SWIDTH 480 0
DWIDTH 13 0
BBX 12 12 0 -2
BITMAP
0000
3FE0
0040
0080
0500
0600
0400
0400
0400
0800
1000
6000
ENDCHAR
STARTCHAR p30A3
ENCODING 12451
SWIDTH 480 0
DWIDTH 13 0
BBX 12 12 0 -2
BITMAP
0000
0000
0000
0080
0100
0200
0E00
3200
0200
0200
0200
0200
ENDCHAR
STARTCHAR p30A4
ENCODING 12452
SWIDTH 480 0
DWIDTH 13 0
BBX 12 12 0 -2
BITMAP
0040
0080
0100
0200
0600
1A00
6200
0200
0200
0200
0200
0200
ENDCHAR
STARTCHAR p30A5
ENCODING 12453
SWIDTH 480 0
DWIDTH 13 0
BBX 12 12 0 -2
BITMAP
0000
0000
0400
0400
3FC0
2040
2040
2080
0080
0100
0200
0C00
ENDCHAR
STARTCHAR p30A6
ENCODING 12454
SWIDTH 480 0
DWIDTH 13 0
BBX 12 12 0 -2
BITMAP
0400
0400
7FE0
4020
4020
4020
4040
0040
0080
0100
0600
1800
ENDCHAR
STARTCHAR p30A7
ENCODING 12455
SWIDTH 480 0
DWIDTH 13 0
BBX 12 12 0 -2
BITMAP
0000
0000
0000
0000
0000
3FC0
0400
0400
0400
0400
7FE0
0000
ENDCHAR
STARTCHAR p30A8
ENCODING 12456
SWIDTH 480 0
DWIDTH 13 0
BBX 12 12 0 -2
BITMAP
0000
0000
3FC0
0400
0400
0400
0400
0400
0400
7FE0
0000
0000
ENDCHAR
STARTCHAR p30A9
ENCODING 12457
SWIDTH 480 0
DWIDTH 13 0
BBX 12 12 0 -2
BITMAP
0000
0000
0100
0100
0100
3FE0
0300
0500
0900
1100
6100
0700
ENDCHAR
STARTCHAR p30AA
ENCODING 12458
SWIDTH 480 0
DWIDTH 13 0
BBX 12 12 0 -2
BITMAP
0100
0100
0100
7FE0
0300
0500
0900
1100
2100
C100
0100
0700
ENDCHAR
STARTCHAR p30AB
ENCODING 12459
SWIDTH 480 0
DWIDTH 13 0
BBX 12 12 0 -2
BITMAP
0000
0400
0400
0400
3FC0
0440
0440
0840
0840
1040
2040
4380
ENDCHAR
STARTCHAR p30AC
ENCODING 12460
SWIDTH 480 0
DWIDTH 13 0
BBX 12 12 0 -2
BITMAP
0020
0490
0440
0400
3FC0
0440
0440
0840
0840
1040
2040
4380
ENDCHAR
STARTCHAR p30AD
ENCODING 12461
SWIDTH 480 0
DWIDTH 13 0
BBX 12 12 0 -2
BITMAP
0000
0400
0400
05C0
3E00
0200
0200
03F0
7E00
0200
0200
0200
ENDCHAR
STARTCHAR p30AE
ENCODING 12462
SWIDTH 480 0
DWIDTH 13 0
BBX 12 12 0 -2
BITMAP
00A0
0450
0400
05C0
3E00
0200
0200
03F0
7E00
0200
0200
0200
ENDCHAR
STARTCHAR p30AF
ENCODING 12463
SWIDTH 480 0
DWIDTH 13 0
BBX 12 12 0 -2
BITMAP
0000
0800
0800
1FC0
1040
2040
4080
0080
0100
0200
0400
1800
ENDCHAR
STARTCHAR p30B0
ENCODING 12464
SWIDTH 480 0
DWIDTH 13 0
BBX 12 12 0 -2
BITMAP
00A0
0850
0800
1FC0
1040
2040
4080
0080
0100
0200
0400
1800
ENDCHAR
STARTCHAR p30B1
ENCODING 12465
SWIDTH 480 0
DWIDTH 13 0
BBX 12 12 0 -2
BITMAP
0000
1000
1000
1FE0
2100
4100
0100
0200
0200
0400
0800
3000
ENDCHAR
STARTCHAR p30B2
ENCODING 12466
SWIDTH 480 0
DWIDTH 13 0
BBX 12 12 0 -2
BITMAP
00A0
1050
1000
1FE0
2100
4100
0100
0200
0200
0400
0800
3000
ENDCHAR
STARTCHAR p30B3
ENCODING 12467
SWIDTH 480 0
DWIDTH 13 0
BBX 12 12 0 -2
BITMAP
0000
0000
0000
3FC0
0040
0040
0040
0040
0040
0040
3FC0
0000
ENDCHAR
STARTCHAR p30B4
ENCODING 12468
SWIDTH 480 0
DWIDTH 13 0
BBX 12 12 0 -2
BITMAP
00A0
0050
0000
3FC0
0040
0040
0040
0040
0040
0040
3FC0
0000
ENDCHAR
STARTCHAR p30B5
ENCODING 12469
SWIDTH 480 0
DWIDTH 13 0
BBX 12 12 0 -2
BITMAP
0000
1100
1100
1100
7FC0
1100
1100
1100
0100
0200
0400
1800
ENDCHAR
STARTCHAR p30B6
ENCODING 12470
SWIDTH 480 0
DWIDTH 13 0
BBX 12 12 0 -2
BITMAP
00A0
1150
1100
1100
7FC0
1100
1100
1100
0100
0200
0400
1800
ENDCHAR
STARTCHAR p30B7
ENCODING 12471
SWIDTH 480 0
DWIDTH 13 0
BBX 12 12 0 -2
BITMAP
0000
1800
0600
0000
3000
0C00
0020
0040
0180
0600
3800
0000
ENDCHAR
STARTCHAR p30B8
ENCODING 12472
SWIDTH 480 0
DWIDTH 13 0
BBX 12 12 0 -2
BITMAP
0020
1890
0640
0000
3000
0C00
0020
0040
0180
0600
3800
0000
ENDCHAR
STARTCHAR p30B9
ENCODING 12473
SWIDTH 480 0
DWIDTH 13 0
BBX 12 12 0 -2
BITMAP
0000
0000
3F00
0100
0100
0200
0200
0500
0880
1040
6020
0000
ENDCHAR
STARTCHAR p30BA
ENCODING 12474
SWIDTH 480 0
DWIDTH 13 0
BBX 12 12 0 -2
BITMAP
00A0
0050
3F00
0100
0100
0200
0200
0500
0880
1040
6020
0000
ENDCHAR
STARTCHAR p30BB
ENCODING 12475
SWIDTH 480 0
DWIDTH 13 0
BBX 12 12 0 -2
BITMAP
0000
0800
0800
0FE0
7820
0840
0880
0800
0800
0800
07E0
0000
ENDCHAR
STARTCHAR p30BC
ENCODING 12476
SWIDTH 480 0
DWIDTH 13 0
BBX 12 12 0 -2
BITMAP
00A0
0850
0800
0FE0
7820
0840
0880
0800
0800
0800
07E0
0000
ENDCHAR
STARTCHAR p30BD
ENCODING 12477
SWIDTH 480 0
DWIDTH 13 0
BBX 12 12 0 -2
BITMAP
0000
0000
0040
2040
2040
1040
1080
0080
0100
0200
0400
1800
ENDCHAR
STARTCHAR p30BE
ENCODING 12478
SWIDTH 480 0
DWIDTH 13 0
BBX 12 12 0 -2
BITMAP
00A0
0050
0080
2080
2080
1080
1080
0100
0100
0200
0400
1800
ENDCHAR
STARTCHAR p30BF
ENCODING 12479
SWIDTH 480 0
DWIDTH 13 0
BBX 12 12 0 -2
BITMAP
0000
0400
0400
07C0
0840
1040
2480
0280
0100
0200
0C00
3000
ENDCHAR
STARTCHAR p30C0
ENCODING 12480
SWIDTH 480 0
DWIDTH 13 0
BBX 12 12 0 -2
BITMAP
00A0
0450
0400
07C0
0840
1040
2480
0280
0100
0200
0C00
3000
ENDCHAR
STARTCHAR p30C1
ENCODING 12481
SWIDTH 480 0
DWIDTH 13 0
BBX 12 12 0 -2
BITMAP
0000
0000
03C0
3E00
0200
0200
7FE0
0200
0200
0400
0800
3000
ENDCHAR
STARTCHAR p30C2
ENCODING 12482
SWIDTH 480 0
DWIDTH 13 0
BBX 12 12 0 -2
BITMAP
0000
0020
0790
3C40
0420
0400
7FC0
0400
0400
0800
1000
6000
ENDCHAR
STARTCHAR p30C3
ENCODING 12483
SWIDTH 480 0
DWIDTH 13 0
BBX 12 12 0 -2
BITMAP
0000
0000
0000
0000
0840
2440
1480
1080
0100
0200
0400
1800
ENDCHAR
STARTCHAR p30C4
ENCODING 12484
SWIDTH 480 0
DWIDTH 13 0
BBX 12 12 0 -2
BITMAP
0000
0000
0840
4440
2440
2040
0080
0080
0100
0200
0C00
3000
ENDCHAR
STARTCHAR p30C5
ENCODING 12485
SWIDTH 480 0
DWIDTH 13 0
BBX 12 12 0 -2
BITMAP
00A0
0050
0880
4480
2480
2080
0100
0100
0200
0400
0800
3000
ENDCHAR
STARTCHAR p30C6
ENCODING 12486
SWIDTH 480 0
DWIDTH 13 0
BBX 12 12 0 -2
BITMAP
0000
0000
3F80
0000
0000
7FC0
0400
0400
0400
0800
1000
6000
ENDCHAR
STARTCHAR p30C7
ENCODING 12487
SWIDTH 480 0
DWIDTH 13 0
BBX 12 12 0 -2
BITMAP
00A0
0050
3F80
0000
0000
7FC0
0400
0400
0400
0800
1000
6000
ENDCHAR
STARTCHAR p30C8
ENCODING 12488
SWIDTH 480 0
DWIDTH 13 0
BBX 12 12 0 -2
BITMAP
0800
0800
0800
0800
0E00
0980
0880
0800
0800
0800
0800
0800
ENDCHAR
STARTCHAR p30C9
ENCODING 12489
SWIDTH 480 0
DWIDTH 13 0
BBX 12 12 0 -2
BITMAP
0800
08A0
0850
0800
0E00
0980
0880
0800
0800
0800
0800
0800
ENDCHAR
STARTCHAR p30CA
ENCODING 12490
SWIDTH 480 0
DWIDTH 13 0
BBX 12 12 0 -2
BITMAP
0000
0200
0200
0200
3FE0
0200
0200
0200
0200
0400
0800
3000
ENDCHAR
STARTCHAR p30CB
ENCODING 12491
SWIDTH 480 0
DWIDTH 13 0
BBX 12 12 0 -2
BITMAP
0000
0000
0000
3FC0
0000
0000
0000
0000
0000
7FE0
0000
0000
ENDCHAR
STARTCHAR p30CC
ENCODING 12492
SWIDTH 480 0
DWIDTH 13 0
BBX 12 12 0 -2
BITMAP
0000
0000
3FC0
0040
0080
1880
0500
0300
04C0
1840
6000
0000
ENDCHAR
STARTCHAR p30CD
ENCODING 12493
SWIDTH 480 0
DWIDTH 13 0
BBX 12 12 0 -2
BITMAP
0000
0200
0200
3FC0
0080
0100
0600
1AC0
6220
0200
0200
0200
ENDCHAR
STARTCHAR p30CE
ENCODING 12494
SWIDTH 480 0
DWIDTH 13 0
BBX 12 12 0 -2
BITMAP
0000
0100
0100
0100
0100
0100
0200
0200
0400
0800
1000
2000
ENDCHAR
STARTCHAR p30CF
ENCODING 12495
SWIDTH 480 0
DWIDTH 13 0
BBX 12 12 0 -2
BITMAP
0000
0000
1100
1080
1080
1040
1040
2040
2020
4020
8020
0000
ENDCHAR
STARTCHAR p30D0
ENCODING 12496
SWIDTH 480 0
DWIDTH 13 0
BBX 12 12 0 -2
BITMAP
00A0
0050
1100
1080
1080
1040
1040
2040
2020
4020
8020
0000
ENDCHAR
STARTCHAR p30D1
ENCODING 12497
SWIDTH 480 0
DWIDTH 13 0
BBX 12 12 0 -2
BITMAP
0070
0050
1170
1080
1080
1040
1040
2040
2020
4020
8020
0000
ENDCHAR
STARTCHAR p30D2
ENCODING 12498
SWIDTH 480 0
DWIDTH 13 0
BBX 12 12 0 -2
BITMAP
0000
0000
2000
2040
2180
3E00
2000
2000
2000
2000
1FC0
0000
ENDCHAR
STARTCHAR p30D3
ENCODING 12499
SWIDTH 480 0
DWIDTH 13 0
BBX 12 12 0 -2
BITMAP
00A0
0050
2000
2040
2180
3E00
2000
2000
2000
2000
1FC0
0000
ENDCHAR
STARTCHAR p30D4
ENCODING 12500
SWIDTH 480 0
DWIDTH 13 0
BBX 12 12 0 -2
BITMAP
0070
0050
2070
2080
2300
3C00
2000
2000
2000
2000
1FC0
0000
ENDCHAR
STARTCHAR p30D5
ENCODING 12501
SWIDTH 480 0
DWIDTH 13 0
BBX 12 12 0 -2
BITMAP
0000
0000
0000
3FC0
0040
0040
0080
0080
0100
0200
0400
1800
ENDCHAR
STARTCHAR p30D6
ENCODING 12502
SWIDTH 480 0
DWIDTH 13 0
BBX 12 12 0 -2
BITMAP
00A0
0050
0000
3FC0
0040
0040
0080
0080
0100
0200
0400
1800
ENDCHAR
STARTCHAR p30D7
ENCODING 12503
SWIDTH 480 0
DWIDTH 13 0
BBX 12 12 0 -2
BITMAP
0070
0050
0070
3FC0
0040
0040
0080
0080
0100
0200
0400
1800
ENDCHAR
STARTCHAR p30D8
ENCODING 12504
SWIDTH 480 0
DWIDTH 13 0
BBX 12 12 0 -2
BITMAP
0000
0000
0000
0C00
1200
2100
4080
0040
0020
0010
0000
0000
ENDCHAR
STARTCHAR p30D9
ENCODING 12505
SWIDTH 480 0
DWIDTH 13 0
BBX 12 12 0 -2
BITMAP
0000
0020
0090
0C40
1200
2100
4080
0040
0020
0010
0000
0000
ENDCHAR
STARTCHAR p30DA
ENCODING 12506
SWIDTH 480 0
DWIDTH 13 0
BBX 12 12 0 -2
BITMAP
0000
0070
0050
0C70
1200
2100
4080
0040
0020
0010
0000
0000
ENDCHAR
STARTCHAR p30DB
ENCODING 12507
SWIDTH 480 0
DWIDTH 13 0
BBX 12 12 0 -2
BITMAP
0000
0200
0200
0200
7FF0
0200
1240
1220
2220
2210
4210
0200
ENDCHAR
STARTCHAR p30DC
ENCODING 12508
SWIDTH 480 0
DWIDTH 13 0
BBX 12 12 0 -2
BITMAP
0000
02A0
0250
0200
7FF0
0200
1240
1220
2220
2210
4210
0200
ENDCHAR
STARTCHAR p30DD
ENCODING 12509
SWIDTH 480 0
DWIDTH 13 0
BBX 12 12 0 -2
BITMAP
0070
0250
0270
0200
7FF0
0200
1240
1220
2220
2210
4210
0200
ENDCHAR
STARTCHAR p30DE
ENCODING 12510
SWIDTH 480 0
DWIDTH 13 0
BBX 12 12 0 -2
BITMAP
0000
0000
0000
7FE0
0020
0040
1080
0900
0600
0300
0100
0000
ENDCHAR
STARTCHAR p30DF
ENCODING 12511
SWIDTH 480 0
DWIDTH 13 0
BBX 12 12 0 -2
BITMAP
0000
1E00
0180
0000
0000
1E00
0180
0000
0000
3E00
01C0
0000
ENDCHAR
STARTCHAR p30E0
ENCODING 12512
SWIDTH 480 0
DWIDTH 13 0
BBX 12 12 0 -2
BITMAP
0000
0400
0400
0400
0800
0800
0900
1080
1040
23E0
7C20
0000
ENDCHAR
STARTCHAR p30E1
ENCODING 12513
SWIDTH 480 0
DWIDTH 13 0
BBX 12 12 0 -2
BITMAP
0000
0080
0080
0080
1900
0500
0300
0280
0440
0800
1000
6000
ENDCHAR
STARTCHAR p30E2
ENCODING 12514
SWIDTH 480 0
DWIDTH 13 0
BBX 12 12 0 -2
BITMAP
0000
0780
3C00
0400
0400
7FE0
0400
0400
0400
0400
03C0
0000
ENDCHAR
STARTCHAR p30E3
ENCODING 12515
SWIDTH 480 0
DWIDTH 13 0
BBX 12 12 0 -2
BITMAP
0000
0000
0000
0800
0800
0BC0
3C40
0480
0400
0200
0200
0200
ENDCHAR
STARTCHAR p30E4
ENCODING 12516
SWIDTH 480 0
DWIDTH 13 0
BBX 12 12 0 -2
BITMAP
0000
0800
0800
0800
0FE0
7820
0440
0480
0400
0200
0200
0200
ENDCHAR
STARTCHAR p30E5
ENCODING 12517
SWIDTH 480 0
DWIDTH 13 0
BBX 12 12 0 -2
BITMAP
0000
0000
0000
0000
0000
1F80
0080
0080
0080
0080
3FE0
0000
ENDCHAR
STARTCHAR p30E6
ENCODING 12518
SWIDTH 480 0
DWIDTH 13 0
BBX 12 12 0 -2
BITMAP
0000
0000
3F80
0080
0080
0080
0080
0080
0080
7FE0
0000
0000
ENDCHAR
STARTCHAR p30E7
ENCODING 12519
SWIDTH 480 0
DWIDTH 13 0
BBX 12 12 0 -2
BITMAP
0000
0000
0000
0000
3F80
0080
0080
1F80
0080
0080
3F80
0000
ENDCHAR
STARTCHAR p30E8
ENCODING 12520
SWIDTH 480 0
DWIDTH 13 0
BBX 12 12 0 -2
BITMAP
0000
0000
3FC0
0040
0040
0040
3FC0
0040
0040
0040
3FC0
0000
ENDCHAR
STARTCHAR p30E9
ENCODING 12521
SWIDTH 480 0
DWIDTH 13 0
BBX 12 12 0 -2
BITMAP
0000
1F80
0000
0000
3FC0
0040
0040
0080
0100
0200
0C00
3000
ENDCHAR
STARTCHAR p30EA
ENCODING 12522
SWIDTH 480 0
DWIDTH 13 0
BBX 12 12 0 -2
BITMAP
0000
0080
1080
1080
1080
1080
1080
1080
0100
0100
0200
0C00
ENDCHAR
STARTCHAR p30EB
ENCODING 12523
SWIDTH 480 0
DWIDTH 13 0
BBX 12 12 0 -2
BITMAP
0000
0200
1200
1200
1200
1200
1200
1220
2240
2280
4300
0000
ENDCHAR
STARTCHAR p30EC
ENCODING 12524
SWIDTH 480 0
DWIDTH 13 0
BBX 12 12 0 -2
BITMAP
0000
1000
1000
1000
1000
1020
1040
1080
1100
1600
1800
0000
ENDCHAR
STARTCHAR p30ED
ENCODING 12525
SWIDTH 480 0
DWIDTH 13 0
BBX 12 12 0 -2
BITMAP
0000
0000
3FC0
2040
2040
2040
2040
2040
2040
3FC0
0000
0000
ENDCHAR
STARTCHAR p30EE
ENCODING 12526
SWIDTH 480 0
DWIDTH 13 0
BBX 12 12 0 -2
BITMAP
0000
0000
0000
0000
1FC0
1040
1040
1080
0080
0100
0200
0C00
ENDCHAR
STARTCHAR p30EF
ENCODING 12527
SWIDTH 480 0
DWIDTH 13 0
BBX 12 12 0 -2
BITMAP
0000
0000
3FC0
2040
2040
2040
2080
0080
0100
0200
0400
1800
ENDCHAR
STARTCHAR p30F0
ENCODING 12528
SWIDTH 480 0
DWIDTH 13 0
BBX 12 12 0 -2
BITMAP
0200
0200
0200
7FC0
2200
2200
2200
FFE0
0200
0200
0200
0200
ENDCHAR
STARTCHAR p30F1
ENCODING 12529
SWIDTH 480 0
DWIDTH 13 0
BBX 12 12 0 -2
BITMAP
0000
0000
3FE0
0040
0080
0300
0200
0200
0200
7FF0
0000
0000
ENDCHAR
STARTCHAR p30F2
ENCODING 12530
SWIDTH 480 0
DWIDTH 13 0
BBX 12 12 0 -2
BITMAP
0000
0000
3FC0
0040
0040
3FC0
0040
0080
0100
0200
0C00
3000
ENDCHAR
STARTCHAR p30F3
ENCODING 12531
SWIDTH 480 0
DWIDTH 13 0
BBX 12 12 0 -2
BITMAP
0000
0000
1800
0600
0020
0040
0080
0100
0600
3800
0000
0000
ENDCHAR
STARTCHAR p30F4
ENCODING 12532
SWIDTH 480 0
DWIDTH 13 0
BBX 12 12 0 -2
BITMAP
00A0
0450
0400
7FC0
4040
4040
4040
0080
0080
0100
0200
0C00
ENDCHAR
STARTCHAR p30F5
ENCODING 12533
SWIDTH 480 0
DWIDTH 13 0
BBX 12 12 0 -2
BITMAP
0000
0000
0000
0400
0400
3FC0
0440
0440
0840
0840
1040
2180
ENDCHAR
STARTCHAR p30F6
ENCODING 12534
SWIDTH 480 0
DWIDTH 13 0
BBX 12 12 0 -2
BITMAP
0000
0000
0000
0800
0800
0FC0
1100
2100
0100
0200
0400
1800
ENDCHAR
STARTCHAR p3131
ENCODING 12593
SWIDTH 480 0
DWIDTH 13 0
BBX 12 12 0 -2
BITMAP
0000
0000
0000
3F80
0080
0080
0080
0080
0080
0000
0000
0000
ENDCHAR
STARTCHAR p3132
ENCODING 12594
SWIDTH 480 0
DWIDTH 13 0
BBX 12 12 0 -2
BITMAP
0000
0000
0000
7BC0
0840
0840
0840
0840
0840
0000
0000
0000
ENDCHAR
STARTCHAR p3133
ENCODING 12595
SWIDTH 480 0
DWIDTH 13 0
BBX 12 12 0 -2
BITMAP
0000
0000
0000
7880
0880
0880
0940
0940
0A20
0000
0000
0000
ENDCHAR
STARTCHAR p3134
ENCODING 12596
SWIDTH 480 0
DWIDTH 13 0
BBX 12 12 0 -2
BITMAP
0000
0000
0000
1000
1000
1000
1000
1000
1FC0
0000
0000
0000
ENDCHAR
STARTCHAR p3135
ENCODING 12597
SWIDTH 480 0
DWIDTH 13 0
BBX 12 12 0 -2
BITMAP
0000
0000
0000
43E0
4080
4080
4140
4140
7A20
0000
0000
0000
ENDCHAR
STARTCHAR p3136
ENCODING 12598
SWIDTH 480 0
DWIDTH 13 0
BBX 12 12 0 -2
BITMAP
0000
0000
03C0
4000
47E0
4000
4180
4240
7A40
0180
0000
0000
ENDCHAR
STARTCHAR p3137
ENCODING 12599
SWIDTH 480 0
DWIDTH 13 0
BBX 12 12 0 -2
BITMAP
0000
0000
0000
1F80
1000
1000
1000
1000
1F80
0000
0000
0000
ENDCHAR
STARTCHAR p3138
ENCODING 12600
SWIDTH 480 0
DWIDTH 13 0
BBX 12 12 0 -2
BITMAP
0000
0000
0000
3DE0
2100
2100
2100
2100
3DE0
0000
0000
0000
ENDCHAR
STARTCHAR p3139
ENCODING 12601
SWIDTH 480 0
DWIDTH 13 0
BBX 12 12 0 -2
BITMAP
0000
0000
0000
1F80
0080
0080
1F80
1000
1000
1F80
0000
0000
ENDCHAR
STARTCHAR p313A
ENCODING 12602
SWIDTH 480 0
DWIDTH 13 0
BBX 12 12 0 -2
BITMAP
0000
0000
0000
7BC0
0840
7840
4040
4040
7840
0000
0000
0000
ENDCHAR
STARTCHAR p313B
ENCODING 12603
SWIDTH 480 0
DWIDTH 13 0
BBX 12 12 0 -2
BITMAP
0000
0000
0000
7BC0
0A40
7A40
4240
4240
7BC0
0000
0000
0000
ENDCHAR
STARTCHAR p313C
ENCODING 12604
SWIDTH 480 0
DWIDTH 13 0
BBX 12 12 0 -2
BITMAP
0000
0000
0000
7A40
0A40
7BC0
4240
4240
7BC0
0000
0000
0000
ENDCHAR
STARTCHAR p313D
ENCODING 12605
SWIDTH 480 0
DWIDTH 13 0
BBX 12 12 0 -2
BITMAP
0000
0000
0000
7880
0880
7880
4140
4140
7A20
0000
0000
0000
ENDCHAR
STARTCHAR p313E
ENCODING 12606
SWIDTH 480 0
DWIDTH 13 0
BBX 12 12 0 -2
BITMAP
0000
0000
0000
7BC0
0A00
7BC0
4200
4200
7BC0
0000
0000
0000
ENDCHAR
STARTCHAR p313F
ENCODING 12607
SWIDTH 480 0
DWIDTH 13 0
BBX 12 12 0 -2
BITMAP
0000
0000
0000
7BE0
0800
7A40
4140
4140
7BE0
0000
0000
0000
ENDCHAR
STARTCHAR p3140
ENCODING 12608
SWIDTH 480 0
DWIDTH 13 0
BBX 12 12 0 -2
BITMAP
0000
0000
01C0
7800
0BE0
7800
41C0
4220
79C0
0000
0000
0000
ENDCHAR
STARTCHAR p3141
ENCODING 12609
SWIDTH 480 0
DWIDTH 13 0
BBX 12 12 0 -2
BITMAP
0000
0000
0000
1F80
1080
1080
1080
1080
1F80
0000
0000
0000
ENDCHAR
STARTCHAR p3142
ENCODING 12610
SWIDTH 480 0
DWIDTH 13 0
BBX 12 12 0 -2
BITMAP
0000
0000
0000
1080
1080
1F80
1080
1080
1F80
0000
0000
0000
ENDCHAR
STARTCHAR p3143
ENCODING 12611
SWIDTH 480 0
DWIDTH 13 0
BBX 12 12 0 -2
BITMAP
0000
0000
0000
4A40
4A40
7BC0
4A40
4A40
7BC0
0000
0000
0000
ENDCHAR
STARTCHAR p3144
ENCODING 12612
SWIDTH 480 0
DWIDTH 13 0
BBX 12 12 0 -2
BITMAP
0000
0000
0000
4880
4880
7880
4940
4940
7A20
0000
0000
0000
ENDCHAR
STARTCHAR p3145
ENCODING 12613
SWIDTH 480 0
DWIDTH 13 0
BBX 12 12 0 -2
BITMAP
0000
0000
0000
0400
0400
0400
0A00
1100
20C0
0000
0000
0000
ENDCHAR
STARTCHAR p3146
ENCODING 12614
SWIDTH 480 0
DWIDTH 13 0
BBX 12 12 0 -2
BITMAP
0000
0000
0000
1080
1080
1080
2940
2540
4220
0000
0000
0000
ENDCHAR
STARTCHAR p3147
ENCODING 12615
SWIDTH 480 0
DWIDTH 13 0
BBX 12 12 0 -2
BITMAP
0000
0000
0000
0F00
1080
1080
1080
1080
0F00
0000
0000
0000
ENDCHAR
STARTCHAR p3148
ENCODING 12616
SWIDTH 480 0
DWIDTH 13 0
BBX 12 12 0 -2
BITMAP
0000
0000
0000
3F80
0400
0400
0A00
1100
2080
0000
0000
0000
ENDCHAR
STARTCHAR p3149
ENCODING 12617
SWIDTH 480 0
DWIDTH 13 0
BBX 12 12 0 -2
BITMAP
0000
0000
0000
7DE0
1080
1080
2940
2940
4220
0000
0000
0000
ENDCHAR
STARTCHAR p314A
ENCODING 12618
SWIDTH 480 0
DWIDTH 13 0
BBX 12 12 0 -2
BITMAP
0000
0000
0000
1F00
0000
3F80
0400
0A00
3180
0000
0000
0000
ENDCHAR
STARTCHAR p314B
ENCODING 12619
SWIDTH 480 0
DWIDTH 13 0
BBX 12 12 0 -2
BITMAP
0000
0000
0000
3F80
0080
0080
1F80
0080
0080
0000
0000
0000
ENDCHAR
STARTCHAR p314C
ENCODING 12620
SWIDTH 480 0
DWIDTH 13 0
BBX 12 12 0 -2
BITMAP
0000
0000
0000
1F80
1000
1F80
1000
1000
1F80
0000
0000
0000
ENDCHAR
STARTCHAR p314D
ENCODING 12621
SWIDTH 480 0
DWIDTH 13 0
BBX 12 12 0 -2
BITMAP
0000
0000
0000
1F80
0000
1080
0880
0900
3FC0
0000
0000
0000
ENDCHAR
STARTCHAR p314E
ENCODING 12622
SWIDTH 480 0
DWIDTH 13 0
BBX 12 12 0 -2
BITMAP
0000
0000
0F00
0000
3FC0
0000
0F00
1080
1080
0F00
0000
0000
ENDCHAR
STARTCHAR p314F
ENCODING 12623
SWIDTH 480 0
DWIDTH 13 0
BBX 12 12 0 -2
BITMAP
0000
0400
0400
0400
0400
0780
0400
0400
0400
0400
0400
0000
ENDCHAR
STARTCHAR p3150
ENCODING 12624
SWIDTH 480 0
DWIDTH 13 0
BBX 12 12 0 -2
BITMAP
0000
0900
0900
0900
0900
0F00
0900
0900
0900
0900
0100
0000
ENDCHAR
STARTCHAR p3151
ENCODING 12625
SWIDTH 480 0
DWIDTH 13 0
BBX 12 12 0 -2
BITMAP
0000
0400
0400
0400
0780
0400
0400
0780
0400
0400
0400
0000
ENDCHAR
STARTCHAR p3152
ENCODING 12626
SWIDTH 480 0
DWIDTH 13 0
BBX 12 12 0 -2
BITMAP
0000
0900
0900
0900
0F00
0900
0F00
0900
0900
0900
0900
0000
ENDCHAR
STARTCHAR p3153
ENCODING 12627
SWIDTH 480 0
DWIDTH 13 0
BBX 12 12 0 -2
BITMAP
0000
0100
0100
0100
0100
0100
0F00
0100
0100
0100
0100
0000
ENDCHAR
STARTCHAR p3154
ENCODING 12628
SWIDTH 480 0
DWIDTH 13 0
BBX 12 12 0 -2
BITMAP
0000
0480
0480
0480
0480
1C80
0480
0480
0480
0480
0480
0000
ENDCHAR
STARTCHAR p3155
ENCODING 12629
SWIDTH 480 0
DWIDTH 13 0
BBX 12 12 0 -2
BITMAP
0000
0100
0100
0100
0F00
0100
0100
0F00
0100
0100
0100
0000
ENDCHAR
STARTCHAR p3156
ENCODING 12630
SWIDTH 480 0
DWIDTH 13 0
BBX 12 12 0 -2
BITMAP
0000
0480
0480
0480
3C80
0480
0480
3C80
0480
0480
0480
0000
ENDCHAR
STARTCHAR p3157
ENCODING 12631
SWIDTH 480 0
DWIDTH 13 0
BBX 12 12 0 -2
BITMAP
0000
0000
0000
0400
0400
0400
0400
0400
7FE0
0000
0000
0000
ENDCHAR
STARTCHAR p3158
ENCODING 12632
SWIDTH 480 0
DWIDTH 13 0
BBX 12 12 0 -2
BITMAP
0000
0080
0080
0880
0880
0880
08E0
7F80
0080
0080
0080
0000
ENDCHAR
STARTCHAR p3159
ENCODING 12633
SWIDTH 480 0
DWIDTH 13 0
BBX 12 12 0 -2
BITMAP
0000
0120
0120
1120
1120
1120
11E0
7F20
0120
0120
0120
0000
ENDCHAR
STARTCHAR p315A
ENCODING 12634
SWIDTH 480 0
DWIDTH 13 0
BBX 12 12 0 -2
BITMAP
0000
0040
0040
0440
0440
0440
0440
7FC0
0040
0040
0040
0000
ENDCHAR
STARTCHAR p315B
ENCODING 12635
SWIDTH 480 0
DWIDTH 13 0
BBX 12 12 0 -2
BITMAP
0000
0000
0000
0900
0900
0900
0900
0900
7FE0
0000
0000
0000
ENDCHAR
STARTCHAR p315C
ENCODING 12636
SWIDTH 480 0
DWIDTH 13 0
BBX 12 12 0 -2
BITMAP
0000
0000
0000
7FE0
0200
0200
0200
0200
0200
0200
0000
0000
ENDCHAR
STARTCHAR p315D
ENCODING 12637
SWIDTH 480 0
DWIDTH 13 0
BBX 12 12 0 -2
BITMAP
0000
0040
0040
0040
7F40
0840
0840
0BC0
0840
0840
0040
0000
ENDCHAR
STARTCHAR p315E
ENCODING 12638
SWIDTH 480 0
DWIDTH 13 0
BBX 12 12 0 -2
BITMAP
0000
0140
0140
0140
7D40
1140
1740
1140
1140
1140
0140
0000
ENDCHAR
STARTCHAR p315F
ENCODING 12639
SWIDTH 480 0
DWIDTH 13 0
BBX 12 12 0 -2
BITMAP
0000
0040
0040
0040
0040
7FC0
0840
0840
0840
0840
0040
0000
ENDCHAR
STARTCHAR p3160
ENCODING 12640
SWIDTH 480 0
DWIDTH 13 0
BBX 12 12 0 -2
BITMAP
0000
0000
0000
0000
7FE0
0900
0900
0900
0900
0000
0000
0000
ENDCHAR
STARTCHAR p3161
ENCODING 12641
SWIDTH 480 0
DWIDTH 13 0
BBX 12 12 0 -2
BITMAP
0000
0000
0000
0000
0000
7FE0
0000
0000
0000
0000
0000
0000
ENDCHAR
STARTCHAR p3162
ENCODING 12642
SWIDTH 480 0
DWIDTH 13 0
BBX 12 12 0 -2
BITMAP
0000
0080
0080
0080
0080
0080
3F80
0080
0080
0080
0080
0000
ENDCHAR
STARTCHAR p3163
ENCODING 12643
SWIDTH 480 0
DWIDTH 13 0
BBX 12 12 0 -2
BITMAP
0000
0200
0200
0200
0200
0200
0200
0200
0200
0200
0200
0000
ENDCHAR
STARTCHAR p3165
ENCODING 12645
SWIDTH 480 0
DWIDTH 13 0
BBX 12 12 0 -2
BITMAP
0000
0000
0000
1100
1100
1100
1100
1540
1980
0000
0000
0000
ENDCHAR
STARTCHAR p3166
ENCODING 12646
SWIDTH 480 0
DWIDTH 13 0
BBX 12 12 0 -2
BITMAP
0000
0000
0000
23C0
2200
2200
2200
2600
3BC0
0000
0000
0000
ENDCHAR
STARTCHAR p3167
ENCODING 12647
SWIDTH 480 0
DWIDTH 13 0
BBX 12 12 0 -2
BITMAP
0000
0000
0000
2080
2080
2080
2080
2140
3A20
0000
0000
0000
ENDCHAR
STARTCHAR p3168
ENCODING 12648
SWIDTH 480 0
DWIDTH 13 0
BBX 12 12 0 -2
BITMAP
0000
0000
0000
2080
2080
2140
2140
2220
3BE0
0000
0000
0000
ENDCHAR
STARTCHAR p3169
ENCODING 12649
SWIDTH 480 0
DWIDTH 13 0
BBX 12 12 0 -2
BITMAP
0000
0000
0000
7640
1240
1240
7240
42A0
72A0
0000
0000
0000
ENDCHAR
STARTCHAR p316A
ENCODING 12650
SWIDTH 480 0
DWIDTH 13 0
BBX 12 12 0 -2
BITMAP
0000
0000
0000
7BC0
0A00
0A00
7A00
4200
7BC0
0000
0000
0000
ENDCHAR
STARTCHAR p316B
ENCODING 12651
SWIDTH 480 0
DWIDTH 13 0
BBX 12 12 0 -2
BITMAP
0000
0000
0000
7540
1540
1740
7540
45A0
7720
0000
0000
0000
ENDCHAR
STARTCHAR p316C
ENCODING 12652
SWIDTH 480 0
DWIDTH 13 0
BBX 12 12 0 -2
BITMAP
0000
0000
0000
7880
0880
0940
7940
4220
7BE0
0000
0000
0000
ENDCHAR
STARTCHAR p316D
ENCODING 12653
SWIDTH 480 0
DWIDTH 13 0
BBX 12 12 0 -2
BITMAP
0000
0000
0000
7BC0
0800
0980
7A40
4240
7980
0000
0000
0000
ENDCHAR
STARTCHAR p316E
ENCODING 12654
SWIDTH 480 0
DWIDTH 13 0
BBX 12 12 0 -2
BITMAP
0000
0000
0000
3D40
2540
25C0
2540
3D40
25C0
0000
0000
0000
ENDCHAR
STARTCHAR p316F
ENCODING 12655
SWIDTH 480 0
DWIDTH 13 0
BBX 12 12 0 -2
BITMAP
0000
0000
0000
3C80
2480
2480
2480
3D40
2520
0000
0000
0000
ENDCHAR
STARTCHAR p3170
ENCODING 12656
SWIDTH 480 0
DWIDTH 13 0
BBX 12 12 0 -2
BITMAP
0000
0000
0000
7880
4880
4940
4940
7A20
4BE0
0000
0000
0000
ENDCHAR
STARTCHAR p3171
ENCODING 12657
SWIDTH 480 0
DWIDTH 13 0
BBX 12 12 0 -2
BITMAP
0000
0000
1F80
1080
1080
1F80
0000
0F00
1080
1080
0F00
0000
ENDCHAR
STARTCHAR p3172
ENCODING 12658
SWIDTH 480 0
DWIDTH 13 0
BBX 12 12 0 -2
BITMAP
0000
0000
0000
25C0
2440
3C40
2440
2440
3C40
0000
0000
0000
ENDCHAR
STARTCHAR p3173
ENCODING 12659
SWIDTH 480 0
DWIDTH 13 0
BBX 12 12 0 -2
BITMAP
0000
0000
0000
25C0
2500
3D00
2500
2500
3DC0
0000
0000
0000
ENDCHAR
STARTCHAR p3174
ENCODING 12660
SWIDTH 480 0
DWIDTH 13 0
BBX 12 12 0 -2
BITMAP
0000
0000
0000
52E0
5220
7220
5220
5520
74A0
0000
0000
0000
ENDCHAR
STARTCHAR p3175
ENCODING 12661
SWIDTH 480 0
DWIDTH 13 0
BBX 12 12 0 -2
BITMAP
0000
0000
0000
52E0
5220
7220
5220
5520
74A0
0000
0000
0000
ENDCHAR
STARTCHAR p3176
ENCODING 12662
SWIDTH 480 0
DWIDTH 13 0
BBX 12 12 0 -2
BITMAP
0000
0000
0000
4BE0
4880
7880
4880
4940
7A20
0000
0000
0000
ENDCHAR
STARTCHAR p3177
ENCODING 12663
SWIDTH 480 0
DWIDTH 13 0
BBX 12 12 0 -2
BITMAP
0000
0000
0000
4BC0
4A00
7BC0
4A00
4A00
7BC0
0000
0000
0000
ENDCHAR
STARTCHAR p3178
ENCODING 12664
SWIDTH 480 0
DWIDTH 13 0
BBX 12 12 0 -2
BITMAP
0000
0000
1080
1F80
1080
1F80
0000
0F00
1080
1080
0F00
0000
ENDCHAR
STARTCHAR p3179
ENCODING 12665
SWIDTH 480 0
DWIDTH 13 0
BBX 12 12 0 -2
BITMAP
0000
0000
1540
1DC0
1540
1DC0
0000
0F80
1040
1040
0F80
0000
ENDCHAR
STARTCHAR p317A
ENCODING 12666
SWIDTH 480 0
DWIDTH 13 0
BBX 12 12 0 -2
BITMAP
0000
0000
0000
09C0
0840
0840
0840
1440
2240
0000
0000
0000
ENDCHAR
STARTCHAR p317B
ENCODING 12667
SWIDTH 480 0
DWIDTH 13 0
BBX 12 12 0 -2
BITMAP
0000
0000
0000
1100
1100
1100
1100
2900
45E0
0000
0000
0000
ENDCHAR
STARTCHAR p317C
ENCODING 12668
SWIDTH 480 0
DWIDTH 13 0
BBX 12 12 0 -2
BITMAP
0000
0000
0000
11C0
1100
1100
1100
2900
45C0
0000
0000
0000
ENDCHAR
STARTCHAR p317D
ENCODING 12669
SWIDTH 480 0
DWIDTH 13 0
BBX 12 12 0 -2
BITMAP
0000
0000
0000
1140
1140
11C0
1140
2940
45C0
0000
0000
0000
ENDCHAR
STARTCHAR p317E
ENCODING 12670
SWIDTH 480 0
DWIDTH 13 0
BBX 12 12 0 -2
BITMAP
0000
0000
0000
13E0
1080
1080
1080
2940
4A20
0000
0000
0000
ENDCHAR
STARTCHAR p317F
ENCODING 12671
SWIDTH 480 0
DWIDTH 13 0
BBX 12 12 0 -2
BITMAP
0000
0000
0000
0200
0200
0500
0500
0880
0F80
0000
0000
0000
ENDCHAR
STARTCHAR p3180
ENCODING 12672
SWIDTH 480 0
DWIDTH 13 0
BBX 12 12 0 -2
BITMAP
0000
0000
0000
3180
4A40
4A40
4A40
4A40
3180
0000
0000
0000
ENDCHAR
STARTCHAR p3181
ENCODING 12673
SWIDTH 480 0
DWIDTH 13 0
BBX 12 12 0 -2
BITMAP
0000
0000
0000
0000
0F00
1080
1080
1080
0F00
0000
0000
0000
ENDCHAR
STARTCHAR p3182
ENCODING 12674
SWIDTH 480 0
DWIDTH 13 0
BBX 12 12 0 -2
BITMAP
0000
0000
0000
1880
2480
2480
2480
2540
1A20
0000
0000
0000
ENDCHAR
STARTCHAR p3183
ENCODING 12675
SWIDTH 480 0
DWIDTH 13 0
BBX 12 12 0 -2
BITMAP
0000
0000
0000
3080
4880
4940
4940
4A20
33E0
0000
0000
0000
ENDCHAR
STARTCHAR p3184
ENCODING 12676
SWIDTH 480 0
DWIDTH 13 0
BBX 12 12 0 -2
BITMAP
0000
0000
1F80
0900
0900
3FC0
0000
0F00
1080
1080
0F00
0000
ENDCHAR
STARTCHAR p3185
ENCODING 12677
SWIDTH 480 0
DWIDTH 13 0
BBX 12 12 0 -2
BITMAP
0000
0000
3180
0000
7BC0
0000
3180
4A40
4A40
3180
0000
0000
ENDCHAR
STARTCHAR p3186
ENCODING 12678
SWIDTH 480 0
DWIDTH 13 0
BBX 12 12 0 -2
BITMAP
0000
0000
1F80
0000
0000
0F00
1080
1080
0F00
0000
0000
0000
ENDCHAR
STARTCHAR p3187
ENCODING 12679
SWIDTH 480 0
DWIDTH 13 0
BBX 12 12 0 -2
BITMAP
0000
0080
2880
2880
28E0
2880
2880
28E0
7E80
0080
0080
0000
ENDCHAR
STARTCHAR p3188
ENCODING 12680
SWIDTH 480 0
DWIDTH 13 0
BBX 12 12 0 -2
BITMAP
0000
0140
2940
29C0
2940
2940
29C0
2940
7D40
0140
0140
0000
ENDCHAR
STARTCHAR p3189
ENCODING 12681
SWIDTH 480 0
DWIDTH 13 0
BBX 12 12 0 -2
BITMAP
0000
0040
1440
1440
1440
1440
1440
1440
3E40
0040
0040
0000
ENDCHAR
STARTCHAR p318A
ENCODING 12682
SWIDTH 480 0
DWIDTH 13 0
BBX 12 12 0 -2
BITMAP
0000
0040
0040
0040
7F40
1440
15C0
1440
15C0
1440
0040
0000
ENDCHAR
STARTCHAR p318B
ENCODING 12683
SWIDTH 480 0
DWIDTH 13 0
BBX 12 12 0 -2
BITMAP
0000
0140
7D40
2940
2B40
2940
2940
2B40
2940
2940
0140
0000
ENDCHAR
STARTCHAR p318C
ENCODING 12684
SWIDTH 480 0
DWIDTH 13 0
BBX 12 12 0 -2
BITMAP
0000
0040
0040
0040
7F40
1240
1240
1240
1240
1240
0040
0000
ENDCHAR
STARTCHAR p318D
ENCODING 12685
SWIDTH 480 0
DWIDTH 13 0
BBX 12 12 0 -2
BITMAP
0000
0000
0000
0000
0000
0600
0600
0000
0000
0000
0000
0000
ENDCHAR
STARTCHAR p318E
ENCODING 12686
SWIDTH 480 0
DWIDTH 13 0
BBX 12 12 0 -2
BITMAP
0000
0100
0100
0100
0100
1900
1900
0100
0100
0100
0100
0000
ENDCHAR
STARTCHAR p3200
ENCODING 12800
SWIDTH 480 0
DWIDTH 13 0
BBX 12 12 0 -2
BITMAP
2040
4020
4020
8010
9F90
8090
8090
8090
8090
4020
4020
2040
ENDCHAR
STARTCHAR p3201
ENCODING 12801
SWIDTH 480 0
DWIDTH 13 0
BBX 12 12 0 -2
BITMAP
2040
4020
4020
8010
9010
9010
9010
9010
9F90
4020
4020
2040
ENDCHAR
STARTCHAR p3202
ENCODING 12802
SWIDTH 480 0
DWIDTH 13 0
BBX 12 12 0 -2
BITMAP
2040
4020
4020
9F90
9010
9010
9010
9010
9F90
4020
4020
2040
ENDCHAR
STARTCHAR p3203
ENCODING 12803
SWIDTH 480 0
DWIDTH 13 0
BBX 12 12 0 -2
BITMAP
2040
4020
4020
9F90
8090
8090
9F90
9010
9F90
4020
4020
2040
ENDCHAR
STARTCHAR p3204
ENCODING 12804
SWIDTH 480 0
DWIDTH 13 0
BBX 12 12 0 -2
BITMAP
2040
4020
4020
9F90
9090
9090
9090
9F90
9090
4020
4020
2040
ENDCHAR
STARTCHAR p3205
ENCODING 12805
SWIDTH 480 0
DWIDTH 13 0
BBX 12 12 0 -2
BITMAP
2040
4020
4020
9090
9090
9F90
9090
9090
9F90
4020
4020
2040
ENDCHAR
STARTCHAR p3206
ENCODING 12806
SWIDTH 480 0
DWIDTH 13 0
BBX 12 12 0 -2
BITMAP
2040
4020
4420
8410
8410
8410
8A10
8910
9090
4020
4020
2040
ENDCHAR
STARTCHAR p3207
ENCODING 12807
SWIDTH 480 0
DWIDTH 13 0
BBX 12 12 0 -2
BITMAP
2040
4020
4620
8910
9090
9090
9090
9090
8910
4620
4020
2040
ENDCHAR
STARTCHAR p3208
ENCODING 12808
SWIDTH 480 0
DWIDTH 13 0
BBX 12 12 0 -2
BITMAP
2040
4020
4020
9FD0
8200
8210
8510
8890
9050
4020
4020
2040
ENDCHAR
STARTCHAR p3209
ENCODING 12809
SWIDTH 480 0
DWIDTH 13 0
BBX 12 12 0 -2
BITMAP
2040
4020
4020
8F10
8010
9F90
8410
8A10
9190
4020
4020
2040
ENDCHAR
STARTCHAR p320A
ENCODING 12810
SWIDTH 480 0
DWIDTH 13 0
BBX 12 12 0 -2
BITMAP
2040
4020
4020
8F90
8090
8F90
8090
8110
8210
4C20
4020
2040
ENDCHAR
STARTCHAR p320B
ENCODING 12811
SWIDTH 480 0
DWIDTH 13 0
BBX 12 12 0 -2
BITMAP
2040
4020
4020
9F90
9010
9010
9F90
9010
9010
5FA0
4020
2040
ENDCHAR
STARTCHAR p320C
ENCODING 12812
SWIDTH 480 0
DWIDTH 13 0
BBX 12 12 0 -2
BITMAP
2040
4020
4020
9F90
8010
9090
8890
8910
BFD0
4020
4020
2040
ENDCHAR
STARTCHAR p320D
ENCODING 12813
SWIDTH 480 0
DWIDTH 13 0
BBX 12 12 0 -2
BITMAP
2040
4020
4F20
8010
BFD0
8010
8F10
9090
9090
4F20
4020
2040
ENDCHAR
STARTCHAR p320E
ENCODING 12814
SWIDTH 480 0
DWIDTH 13 0
BBX 12 12 0 -2
BITMAP
2040
4020
40A0
9C90
8490
8490
84D0
8890
9090
40A0
40A0
2040
ENDCHAR
STARTCHAR p320F
ENCODING 12815
SWIDTH 480 0
DWIDTH 13 0
BBX 12 12 0 -2
BITMAP
2040
4020
4120
9110
9110
9110
91D0
9510
9910
4120
4120
2040
ENDCHAR
STARTCHAR p3210
ENCODING 12816
SWIDTH 480 0
DWIDTH 13 0
BBX 12 12 0 -2
BITMAP
2040
4020
40A0
9E90
9090
9090
90D0
9090
9E90
40A0
40A0
2040
ENDCHAR
STARTCHAR p3211
ENCODING 12817
SWIDTH 480 0
DWIDTH 13 0
BBX 12 12 0 -2
BITMAP
2040
4020
40A0
9E90
8290
82D0
9E90
9090
9690
58A0
40A0
2040
ENDCHAR
STARTCHAR p3212
ENCODING 12818
SWIDTH 480 0
DWIDTH 13 0
BBX 12 12 0 -2
BITMAP
2040
4020
4120
9D10
9510
95D0
9510
9D10
8110
4120
4020
2040
ENDCHAR
STARTCHAR p3213
ENCODING 12819
SWIDTH 480 0
DWIDTH 13 0
BBX 12 12 0 -2
BITMAP
2040
4020
40A0
9290
9290
9ED0
9290
9290
9E90
40A0
4020
2040
ENDCHAR
STARTCHAR p3214
ENCODING 12820
SWIDTH 480 0
DWIDTH 13 0
BBX 12 12 0 -2
BITMAP
2040
4020
40A0
8890
8890
88D0
9490
A290
8090
40A0
4020
2040
ENDCHAR
STARTCHAR p3215
ENCODING 12821
SWIDTH 480 0
DWIDTH 13 0
BBX 12 12 0 -2
BITMAP
2040
4020
4120
9910
A510
A5D0
A510
A510
9910
4120
4020
2040
ENDCHAR
STARTCHAR p3216
ENCODING 12822
SWIDTH 480 0
DWIDTH 13 0
BBX 12 12 0 -2
BITMAP
2040
4020
40A0
BE90
8890
88D0
9490
A290
8090
40A0
4020
2040
ENDCHAR
STARTCHAR p3217
ENCODING 12823
SWIDTH 480 0
DWIDTH 13 0
BBX 12 12 0 -2
BITMAP
2040
4020
40A0
9C90
8090
BED0
8890
9490
A290
40A0
4020
2040
ENDCHAR
STARTCHAR p3218
ENCODING 12824
SWIDTH 480 0
DWIDTH 13 0
BBX 12 12 0 -2
BITMAP
2040
4020
40A0
9E90
8290
9E90
82D0
8490
9890
40A0
4020
2040
ENDCHAR
STARTCHAR p3219
ENCODING 12825
SWIDTH 480 0
DWIDTH 13 0
BBX 12 12 0 -2
BITMAP
2040
4020
40A0
9E90
9090
9ED0
9090
9090
9E90
40A0
4020
2040
ENDCHAR
STARTCHAR p321A
ENCODING 12826
SWIDTH 480 0
DWIDTH 13 0
BBX 12 12 0 -2
BITMAP
2040
4020
40A0
BE90
8090
94D0
9490
BE90
8090
40A0
4020
2040
ENDCHAR
STARTCHAR p321B
ENCODING 12827
SWIDTH 480 0
DWIDTH 13 0
BBX 12 12 0 -2
BITMAP
2040
4020
40A0
9C90
8090
BE90
80D0
9C90
A290
5CA0
4020
2040
ENDCHAR
STARTCHAR p321C
ENCODING 12828
SWIDTH 480 0
DWIDTH 13 0
BBX 12 12 0 -2
BITMAP
2040
4020
9F90
8610
8910
B0D0
8010
BFD0
8410
8410
4420
2040
ENDCHAR
STARTCHAR p3260
ENCODING 12896
SWIDTH 480 0
DWIDTH 13 0
BBX 12 12 0 -2
BITMAP
1F80
2040
4020
8010
BF90
8090
8090
8090
8090
4020
2040
1F80
ENDCHAR
STARTCHAR p3261
ENCODING 12897
SWIDTH 480 0
DWIDTH 13 0
BBX 12 12 0 -2
BITMAP
1F80
2040
4020
8010
9010
9010
9010
9010
9F90
4020
2040
1F80
ENDCHAR
STARTCHAR p3262
ENCODING 12898
SWIDTH 480 0
DWIDTH 13 0
BBX 12 12 0 -2
BITMAP
1F80
2040
4020
8010
9F90
9010
9010
9010
9F90
4020
2040
1F80
ENDCHAR
STARTCHAR p3263
ENCODING 12899
SWIDTH 480 0
DWIDTH 13 0
BBX 12 12 0 -2
BITMAP
1F80
2040
4020
9F90
8090
8090
9F90
9010
9F90
4020
2040
1F80
ENDCHAR
STARTCHAR p3264
ENCODING 12900
SWIDTH 480 0
DWIDTH 13 0
BBX 12 12 0 -2
BITMAP
1F80
2040
4020
8010
9F90
9090
9090
9F90
9090
4020
2040
1F80
ENDCHAR
STARTCHAR p3265
ENCODING 12901
SWIDTH 480 0
DWIDTH 13 0
BBX 12 12 0 -2
BITMAP
1F80
2040
4020
9090
9090
9F90
9090
9090
9F90
4020
2040
1F80
ENDCHAR
STARTCHAR p3266
ENCODING 12902
SWIDTH 480 0
DWIDTH 13 0
BBX 12 12 0 -2
BITMAP
1F80
2040
4020
8410
8410
8610
8910
9090
8010
4020
2040
1F80
ENDCHAR
STARTCHAR p3267
ENCODING 12903
SWIDTH 480 0
DWIDTH 13 0
BBX 12 12 0 -2
BITMAP
1F80
2040
4020
8F10
9090
9090
9090
9090
8F10
4020
2040
1F80
ENDCHAR
STARTCHAR p3268
ENCODING 12904
SWIDTH 480 0
DWIDTH 13 0
BBX 12 12 0 -2
BITMAP
1F80
2040
4020
9F10
8410
8610
8910
9090
8010
4020
2040
1F80
ENDCHAR
STARTCHAR p3269
ENCODING 12905
SWIDTH 480 0
DWIDTH 13 0
BBX 12 12 0 -2
BITMAP
1F80
2040
4020
8F10
8010
9F90
8610
8910
9090
4020
2040
1F80
ENDCHAR
STARTCHAR p326A
ENCODING 12906
SWIDTH 480 0
DWIDTH 13 0
BBX 12 12 0 -2
BITMAP
1F80
2040
4020
8F90
8090
8F90
8090
8110
8210
4C20
2040
1F80
ENDCHAR
STARTCHAR p326B
ENCODING 12907
SWIDTH 480 0
DWIDTH 13 0
BBX 12 12 0 -2
BITMAP
1F80
2040
4020
9F90
9010
9F10
9010
9010
9F90
4020
2040
1F80
ENDCHAR
STARTCHAR p326C
ENCODING 12908
SWIDTH 480 0
DWIDTH 13 0
BBX 12 12 0 -2
BITMAP
1F80
2040
4020
9F90
8010
9090
8890
8910
BFD0
4020
2040
1F80
ENDCHAR
STARTCHAR p326D
ENCODING 12909
SWIDTH 480 0
DWIDTH 13 0
BBX 12 12 0 -2
BITMAP
1F80
2040
4F20
8010
BFD0
8010
8F10
9090
8F10
4020
2040
1F80
ENDCHAR
STARTCHAR p326E
ENCODING 12910
SWIDTH 480 0
DWIDTH 13 0
BBX 12 12 0 -2
BITMAP
1F80
2040
40A0
9E90
8290
82D0
8490
8890
9090
4020
2040
1F80
ENDCHAR
STARTCHAR p326F
ENCODING 12911
SWIDTH 480 0
DWIDTH 13 0
BBX 12 12 0 -2
BITMAP
1F80
2040
4120
9110
9110
91D0
9110
9D10
8110
4120
2040
1F80
ENDCHAR
STARTCHAR p3270
ENCODING 12912
SWIDTH 480 0
DWIDTH 13 0
BBX 12 12 0 -2
BITMAP
1F80
2040
40A0
9E90
9090
90D0
9090
9090
9E90
40A0
2040
1F80
ENDCHAR
STARTCHAR p3271
ENCODING 12913
SWIDTH 480 0
DWIDTH 13 0
BBX 12 12 0 -2
BITMAP
1F80
2040
4120
9D10
8510
9DD0
9110
9510
9910
4120
2040
1F80
ENDCHAR
STARTCHAR p3272
ENCODING 12914
SWIDTH 480 0
DWIDTH 13 0
BBX 12 12 0 -2
BITMAP
1F80
2040
4120
9D10
9510
95D0
9510
9D10
8110
4120
2040
1F80
ENDCHAR
STARTCHAR p3273
ENCODING 12915
SWIDTH 480 0
DWIDTH 13 0
BBX 12 12 0 -2
BITMAP
1F80
2040
4120
9510
9510
9DD0
9510
9510
9D10
4120
2040
1F80
ENDCHAR
STARTCHAR p3274
ENCODING 12916
SWIDTH 480 0
DWIDTH 13 0
BBX 12 12 0 -2
BITMAP
1F80
2040
40A0
8890
8890
88D0
9490
A290
8090
40A0
2040
1F80
ENDCHAR
STARTCHAR p3275
ENCODING 12917
SWIDTH 480 0
DWIDTH 13 0
BBX 12 12 0 -2
BITMAP
1F80
2040
4120
9910
A510
A5D0
A510
A510
9910
4120
2040
1F80
ENDCHAR
STARTCHAR p3276
ENCODING 12918
SWIDTH 480 0
DWIDTH 13 0
BBX 12 12 0 -2
BITMAP
1F80
2040
40A0
BE90
8890
88D0
9490
A290
8090
40A0
2040
1F80
ENDCHAR
STARTCHAR p3277
ENCODING 12919
SWIDTH 480 0
DWIDTH 13 0
BBX 12 12 0 -2
BITMAP
1F80
2040
40A0
9C90
8090
BED0
8890
9490
A290
40A0
2040
1F80
ENDCHAR
STARTCHAR p3278
ENCODING 12920
SWIDTH 480 0
DWIDTH 13 0
BBX 12 12 0 -2
BITMAP
1F80
2040
40A0
9E90
8290
9ED0
8290
8490
9890
40A0
2040
1F80
ENDCHAR
STARTCHAR p3279
ENCODING 12921
SWIDTH 480 0
DWIDTH 13 0
BBX 12 12 0 -2
BITMAP
1F80
2040
40A0
9E90
9090
9ED0
9090
9090
9E90
40A0
2040
1F80
ENDCHAR
STARTCHAR p327A
ENCODING 12922
SWIDTH 480 0
DWIDTH 13 0
BBX 12 12 0 -2
BITMAP
1F80
2040
40A0
9E90
8090
92D0
9490
BE90
8090
40A0
2040
1F80
ENDCHAR
STARTCHAR p327B
ENCODING 12923
SWIDTH 480 0
DWIDTH 13 0
BBX 12 12 0 -2
BITMAP
1F80
2040
5CA0
8090
BE90
80D0
9C90
A290
9C90
40A0
2040
1F80
ENDCHAR
STARTCHAR p327F
ENCODING 12927
SWIDTH 480 0
DWIDTH 13 0
BBX 12 12 0 -2
BITMAP
1F80
2040
4020
8910
8A10
EC00
0A70
8910
8890
4020
2040
1F80
ENDCHAR
STARTCHAR p3380
ENCODING 13184
SWIDTH 480 0
DWIDTH 13 0
BBX 12 12 0 -2
BITMAP
0000
0080
0080
0140
7140
4940
4BE0
4A20
4A20
7220
4000
4000
ENDCHAR
STARTCHAR p3381
ENCODING 13185
SWIDTH 480 0
DWIDTH 13 0
BBX 12 12 0 -2
BITMAP
0000
0080
0080
0140
7140
4940
4BE0
4A20
4A20
4A20
0000
0000
ENDCHAR
STARTCHAR p3382
ENCODING 13186
SWIDTH 480 0
DWIDTH 13 0
BBX 12 12 0 -2
BITMAP
0000
0080
0080
0140
8940
8940
8BE0
8A20
CA20
B220
8000
8000
ENDCHAR
STARTCHAR p3383
ENCODING 13187
SWIDTH 480 0
DWIDTH 13 0
BBX 12 12 0 -2
BITMAP
0000
0080
0080
0140
D140
A940
ABE0
AA20
AA20
AA20
0000
0000
ENDCHAR
STARTCHAR p3384
ENCODING 13188
SWIDTH 480 0
DWIDTH 13 0
BBX 12 12 0 -2
BITMAP
0000
4080
4080
4140
4940
5140
63E0
5220
4A20
4A20
0000
0000
ENDCHAR
STARTCHAR p3388
ENCODING 13192
SWIDTH 480 0
DWIDTH 13 0
BBX 12 12 0 -2
BITMAP
0000
0020
0020
0020
6320
94A0
83A0
84A0
94A0
63A0
0000
0000
ENDCHAR
STARTCHAR p3389
ENCODING 13193
SWIDTH 480 0
DWIDTH 13 0
BBX 12 12 0 -2
BITMAP
0000
8010
8010
8010
9690
A950
C8D0
A950
9950
96D0
0000
0000
ENDCHAR
STARTCHAR p338A
ENCODING 13194
SWIDTH 480 0
DWIDTH 13 0
BBX 12 12 0 -2
BITMAP
0000
03E0
0200
0200
7200
4BC0
4A00
4A00
4A00
7200
4000
4000
ENDCHAR
STARTCHAR p338B
ENCODING 13195
SWIDTH 480 0
DWIDTH 13 0
BBX 12 12 0 -2
BITMAP
0000
03E0
0200
0200
7200
4BC0
4A00
4A00
4A00
4A00
0000
0000
ENDCHAR
STARTCHAR p338C
ENCODING 13196
SWIDTH 480 0
DWIDTH 13 0
BBX 12 12 0 -2
BITMAP
0000
03E0
0200
0200
4A00
4BC0
4A00
4A00
4A00
7600
4000
4000
ENDCHAR
STARTCHAR p338D
ENCODING 13197
SWIDTH 480 0
DWIDTH 13 0
BBX 12 12 0 -2
BITMAP
0000
0000
0000
0000
48E0
4920
4920
4920
48E0
7420
4120
40C0
ENDCHAR
STARTCHAR p338E
ENCODING 13198
SWIDTH 480 0
DWIDTH 13 0
BBX 12 12 0 -2
BITMAP
0000
0000
0000
0000
D1A0
AA60
AA20
AA20
A9E0
A820
0220
01C0
ENDCHAR
STARTCHAR p338F
ENCODING 13199
SWIDTH 480 0
DWIDTH 13 0
BBX 12 12 0 -2
BITMAP
0000
4000
4000
4000
49A0
5260
6220
5220
49E0
4820
0220
01C0
ENDCHAR
STARTCHAR p3390
ENCODING 13200
SWIDTH 480 0
DWIDTH 13 0
BBX 12 12 0 -2
BITMAP
0000
4400
4400
4400
45E0
7C20
4440
4480
4500
45E0
0000
0000
ENDCHAR
STARTCHAR p3391
ENCODING 13201
SWIDTH 480 0
DWIDTH 13 0
BBX 12 12 0 -2
BITMAP
0000
8500
8500
8500
9570
A710
C520
A520
9540
9570
0000
0000
ENDCHAR
STARTCHAR p3392
ENCODING 13202
SWIDTH 480 0
DWIDTH 13 0
BBX 12 12 0 -2
BITMAP
0000
8A80
DA80
DA80
DAF0
DB90
DAA0
AAA0
AAC0
AAF0
0000
0000
ENDCHAR
STARTCHAR p3393
ENCODING 13203
SWIDTH 480 0
DWIDTH 13 0
BBX 12 12 0 -2
BITMAP
0000
6500
9500
8500
8570
B710
9520
9520
9540
7570
0000
0000
ENDCHAR
STARTCHAR p3394
ENCODING 13204
SWIDTH 480 0
DWIDTH 13 0
BBX 12 12 0 -2
BITMAP
0000
FD00
2500
2500
2570
2710
2520
2520
2540
2570
0000
0000
ENDCHAR
STARTCHAR p3395
ENCODING 13205
SWIDTH 480 0
DWIDTH 13 0
BBX 12 12 0 -2
BITMAP
0000
0080
0140
0140
4940
4940
4940
4980
4920
76C0
4000
4000
ENDCHAR
STARTCHAR p3396
ENCODING 13206
SWIDTH 480 0
DWIDTH 13 0
BBX 12 12 0 -2
BITMAP
0000
0040
00A0
00A0
68A0
54A0
54A0
54C0
5480
5560
0000
0000
ENDCHAR
STARTCHAR p3397
ENCODING 13207
SWIDTH 480 0
DWIDTH 13 0
BBX 12 12 0 -2
BITMAP
0000
0440
04A0
04A0
34A0
4CA0
44A0
44C0
4C80
3560
0000
0000
ENDCHAR
STARTCHAR p3398
ENCODING 13208
SWIDTH 480 0
DWIDTH 13 0
BBX 12 12 0 -2
BITMAP
0000
4080
4140
4140
4940
5140
6140
5180
4920
4AC0
0000
0000
ENDCHAR
STARTCHAR p3399
ENCODING 13209
SWIDTH 480 0
DWIDTH 13 0
BBX 12 12 0 -2
BITMAP
0000
1800
2000
2000
FB40
22A0
22A0
22A0
22A0
22A0
0000
0000
ENDCHAR
STARTCHAR p339A
ENCODING 13210
SWIDTH 480 0
DWIDTH 13 0
BBX 12 12 0 -2
BITMAP
0000
0000
0000
0000
B340
CAA0
8AA0
8AA0
8AA0
8AA0
0000
0000
ENDCHAR
STARTCHAR p339B
ENCODING 13211
SWIDTH 480 0
DWIDTH 13 0
BBX 12 12 0 -2
BITMAP
0000
0000
0000
0000
8B40
8AA0
8AA0
8AA0
9AA0
EAA0
8000
8000
ENDCHAR
STARTCHAR p339C
ENCODING 13212
SWIDTH 480 0
DWIDTH 13 0
BBX 12 12 0 -2
BITMAP
0000
0000
0000
0000
D340
AAA0
AAA0
AAA0
AAA0
AAA0
0000
0000
ENDCHAR
STARTCHAR p339D
ENCODING 13213
SWIDTH 480 0
DWIDTH 13 0
BBX 12 12 0 -2
BITMAP
0000
0000
0000
0000
3340
4AA0
42A0
42A0
4AA0
32A0
0000
0000
ENDCHAR
STARTCHAR p339E
ENCODING 13214
SWIDTH 480 0
DWIDTH 13 0
BBX 12 12 0 -2
BITMAP
0000
4000
4000
4000
4B40
52A0
62A0
52A0
4AA0
4AA0
0000
0000
ENDCHAR
STARTCHAR p339F
ENCODING 13215
SWIDTH 480 0
DWIDTH 13 0
BBX 12 12 0 -2
BITMAP
0060
0010
0020
0070
D340
AAA0
AAA0
AAA0
AAA0
AAA0
0000
0000
ENDCHAR
STARTCHAR p33A0
ENCODING 13216
SWIDTH 480 0
DWIDTH 13 0
BBX 12 12 0 -2
BITMAP
0060
0010
0020
0070
3340
4AA0
42A0
42A0
4AA0
32A0
0000
0000
ENDCHAR
STARTCHAR p33A1
ENCODING 13217
SWIDTH 480 0
DWIDTH 13 0
BBX 12 12 0 -2
BITMAP
00C0
0020
0040
00E0
2B00
3480
2480
2480
2480
2480
0000
0000
ENDCHAR
STARTCHAR p33A2
ENCODING 13218
SWIDTH 480 0
DWIDTH 13 0
BBX 12 12 0 -2
BITMAP
0060
4010
4020
4070
4B40
52A0
62A0
52A0
4AA0
4AA0
0000
0000
ENDCHAR
STARTCHAR p33A3
ENCODING 13219
SWIDTH 480 0
DWIDTH 13 0
BBX 12 12 0 -2
BITMAP
0070
0020
0010
0060
D340
AAA0
AAA0
AAA0
AAA0
AAA0
0000
0000
ENDCHAR
STARTCHAR p33A4
ENCODING 13220
SWIDTH 480 0
DWIDTH 13 0
BBX 12 12 0 -2
BITMAP
0070
0020
0010
0060
3340
4AA0
42A0
42A0
4AA0
32A0
0000
0000
ENDCHAR
STARTCHAR p33A5
ENCODING 13221
SWIDTH 480 0
DWIDTH 13 0
BBX 12 12 0 -2
BITMAP
0070
0020
0010
0060
5B80
6440
4440
4440
4440
4440
0000
0000
ENDCHAR
STARTCHAR p33A6
ENCODING 13222
SWIDTH 480 0
DWIDTH 13 0
BBX 12 12 0 -2
BITMAP
0070
4020
4010
4060
4B40
52A0
62A0
52A0
4AA0
4AA0
0000
0000
ENDCHAR
STARTCHAR p33A7
ENCODING 13223
SWIDTH 480 0
DWIDTH 13 0
BBX 12 12 0 -2
BITMAP
D000
A800
A840
A880
A900
AA00
04E0
0910
10C0
2020
0110
00E0
ENDCHAR
STARTCHAR p33A8
ENCODING 13224
SWIDTH 480 0
DWIDTH 13 0
BBX 12 12 0 -2
BITMAP
D000
A830
A810
A8A0
A930
AA00
04E0
0910
10C0
2020
0110
00E0
ENDCHAR
STARTCHAR p33A9
ENCODING 13225
SWIDTH 480 0
DWIDTH 13 0
BBX 12 12 0 -2
BITMAP
0000
7800
4400
4400
45C0
7A20
41E0
4220
4220
41E0
0000
0000
ENDCHAR
STARTCHAR p33AA
ENCODING 13226
SWIDTH 480 0
DWIDTH 13 0
BBX 12 12 0 -2
BITMAP
0000
8E00
8900
8900
A960
AE90
C870
C890
A890
A870
0000
0000
ENDCHAR
STARTCHAR p33AB
ENCODING 13227
SWIDTH 480 0
DWIDTH 13 0
BBX 12 12 0 -2
BITMAP
0000
8B00
DA80
DA80
DAE0
DB10
DA70
AA90
AA90
AA70
0000
0000
ENDCHAR
STARTCHAR p33AC
ENCODING 13228
SWIDTH 480 0
DWIDTH 13 0
BBX 12 12 0 -2
BITMAP
0000
6600
9500
8500
8560
B690
9470
9490
9490
7470
0000
0000
ENDCHAR
STARTCHAR p33AD
ENCODING 13229
SWIDTH 480 0
DWIDTH 13 0
BBX 12 12 0 -2
BITMAP
0000
0010
0010
0010
AC70
D290
8E90
9290
9290
8E70
0000
0000
ENDCHAR
STARTCHAR p33AE
ENCODING 13230
SWIDTH 480 0
DWIDTH 13 0
BBX 12 12 0 -2
BITMAP
0100
B100
CB20
9D20
AD40
9B40
0080
00B0
0140
0120
0210
0260
ENDCHAR
STARTCHAR p33AF
ENCODING 13231
SWIDTH 480 0
DWIDTH 13 0
BBX 12 12 0 -2
BITMAP
0100
B100
CB20
9D20
AD70
9B50
00A0
00B0
0140
0120
0210
0260
ENDCHAR
STARTCHAR p33B0
ENCODING 13232
SWIDTH 480 0
DWIDTH 13 0
BBX 12 12 0 -2
BITMAP
0000
0000
0000
0000
71C0
4A20
4900
48C0
4A20
71C0
4000
4000
ENDCHAR
STARTCHAR p33B1
ENCODING 13233
SWIDTH 480 0
DWIDTH 13 0
BBX 12 12 0 -2
BITMAP
0000
0000
0000
0000
71C0
4A20
4900
48C0
4A20
49C0
0000
0000
ENDCHAR
STARTCHAR p33B2
ENCODING 13234
SWIDTH 480 0
DWIDTH 13 0
BBX 12 12 0 -2
BITMAP
0000
0000
0000
0000
49C0
4A20
4900
48C0
4A20
75C0
4000
4000
ENDCHAR
STARTCHAR p33B3
ENCODING 13235
SWIDTH 480 0
DWIDTH 13 0
BBX 12 12 0 -2
BITMAP
0000
0000
0000
0000
D1C0
AA20
A900
A8C0
AA20
A9C0
0000
0000
ENDCHAR
STARTCHAR p33B4
ENCODING 13236
SWIDTH 480 0
DWIDTH 13 0
BBX 12 12 0 -2
BITMAP
0000
0220
0220
0220
7A20
4540
4540
4540
4480
7880
4000
4000
ENDCHAR
STARTCHAR p33B5
ENCODING 13237
SWIDTH 480 0
DWIDTH 13 0
BBX 12 12 0 -2
BITMAP
0000
0220
0220
0220
5A20
6540
4540
4540
4480
4480
0000
0000
ENDCHAR
STARTCHAR p33B6
ENCODING 13238
SWIDTH 480 0
DWIDTH 13 0
BBX 12 12 0 -2
BITMAP
0000
0220
0220
0220
4A20
4940
4940
4940
4880
7480
4000
4000
ENDCHAR
STARTCHAR p33B7
ENCODING 13239
SWIDTH 480 0
DWIDTH 13 0
BBX 12 12 0 -2
BITMAP
0000
0220
0220
0220
6A20
5540
5540
5540
5480
5480
0000
0000
ENDCHAR
STARTCHAR p33B8
ENCODING 13240
SWIDTH 480 0
DWIDTH 13 0
BBX 12 12 0 -2
BITMAP
0000
4220
4220
4220
4A20
5140
6140
5140
4880
4880
0000
0000
ENDCHAR
STARTCHAR p33B9
ENCODING 13241
SWIDTH 480 0
DWIDTH 13 0
BBX 12 12 0 -2
BITMAP
0000
4510
6D10
6D10
6D10
6CA0
6CA0
54A0
5440
5440
0000
0000
ENDCHAR
STARTCHAR p33BA
ENCODING 13242
SWIDTH 480 0
DWIDTH 13 0
BBX 12 12 0 -2
BITMAP
0000
02A0
02A0
02A0
72A0
4AA0
4AA0
4940
4940
7140
4000
4000
ENDCHAR
STARTCHAR p33BB
ENCODING 13243
SWIDTH 480 0
DWIDTH 13 0
BBX 12 12 0 -2
BITMAP
0000
02A0
02A0
02A0
72A0
4AA0
4AA0
4940
4940
4940
0000
0000
ENDCHAR
STARTCHAR p33BC
ENCODING 13244
SWIDTH 480 0
DWIDTH 13 0
BBX 12 12 0 -2
BITMAP
0000
02A0
02A0
02A0
4AA0
4AA0
4AA0
4940
4940
7540
4000
4000
ENDCHAR
STARTCHAR p33BD
ENCODING 13245
SWIDTH 480 0
DWIDTH 13 0
BBX 12 12 0 -2
BITMAP
0000
02A0
02A0
02A0
D2A0
AAA0
AAA0
A940
A940
A940
0000
0000
ENDCHAR
STARTCHAR p33BE
ENCODING 13246
SWIDTH 480 0
DWIDTH 13 0
BBX 12 12 0 -2
BITMAP
0000
42A0
42A0
42A0
4AA0
52A0
62A0
5140
4940
4940
0000
0000
ENDCHAR
STARTCHAR p33BF
ENCODING 13247
SWIDTH 480 0
DWIDTH 13 0
BBX 12 12 0 -2
BITMAP
0000
8AA0
DAA0
DAA0
DAA0
DAA0
DAA0
A940
A940
A940
0000
0000
ENDCHAR
STARTCHAR p33C0
ENCODING 13248
SWIDTH 480 0
DWIDTH 13 0
BBX 12 12 0 -2
BITMAP
0000
41C0
4220
4220
4A20
5220
6220
5140
4940
4B60
0000
0000
ENDCHAR
STARTCHAR p33C1
ENCODING 13249
SWIDTH 480 0
DWIDTH 13 0
BBX 12 12 0 -2
BITMAP
0000
89C0
DA20
DA20
DA20
DA20
DA20
A940
A940
AB60
0000
0000
ENDCHAR
STARTCHAR p33C2
ENCODING 13250
SWIDTH 480 0
DWIDTH 13 0
BBX 12 12 0 -2
BITMAP
0000
0000
0000
0000
6340
92A0
72A0
92A0
92A0
6AB0
0000
0000
ENDCHAR
STARTCHAR p33C3
ENCODING 13251
SWIDTH 480 0
DWIDTH 13 0
BBX 12 12 0 -2
BITMAP
0000
7800
4400
4400
44E0
7920
4520
4520
4520
78E0
0020
0020
ENDCHAR
STARTCHAR p33C4
ENCODING 13252
SWIDTH 480 0
DWIDTH 13 0
BBX 12 12 0 -2
BITMAP
0000
0000
0000
30C0
4920
4100
4100
4920
30C0
0000
0000
0000
ENDCHAR
STARTCHAR p33C5
ENCODING 13253
SWIDTH 480 0
DWIDTH 13 0
BBX 12 12 0 -2
BITMAP
0000
0020
0020
0020
31A0
4A60
4220
4220
4A60
31A0
0000
0000
ENDCHAR
STARTCHAR p33C6
ENCODING 13254
SWIDTH 480 0
DWIDTH 13 0
BBX 12 12 0 -2
BITMAP
6400
9400
8800
8800
7000
1000
2970
2A90
4C90
4A70
0910
00E0
ENDCHAR
STARTCHAR p33C7
ENCODING 13255
SWIDTH 480 0
DWIDTH 13 0
BBX 12 12 0 -2
BITMAP
0000
3800
4400
8000
80C0
8120
8120
8120
4520
38D0
0000
0000
ENDCHAR
STARTCHAR p33C8
ENCODING 13256
SWIDTH 480 0
DWIDTH 13 0
BBX 12 12 0 -2
BITMAP
0000
05C0
0520
0520
3520
4DC0
4520
4520
4D20
35C0
0000
0000
ENDCHAR
STARTCHAR p33C9
ENCODING 13257
SWIDTH 480 0
DWIDTH 13 0
BBX 12 12 0 -2
BITMAP
0000
3800
4400
4000
4110
5D10
4510
44A0
4CA0
3440
0080
0300
ENDCHAR
STARTCHAR p33CA
ENCODING 13258
SWIDTH 480 0
DWIDTH 13 0
BBX 12 12 0 -2
BITMAP
0000
4000
4000
4000
7180
4A40
49C0
4A40
4A40
49A0
0000
0000
ENDCHAR
STARTCHAR p33CF
ENCODING 13263
SWIDTH 480 0
DWIDTH 13 0
BBX 12 12 0 -2
BITMAP
0000
4000
4080
4080
4BE0
5080
6080
5080
4880
4860
0000
0000
ENDCHAR
STARTCHAR p33D0
ENCODING 13264
SWIDTH 480 0
DWIDTH 13 0
BBX 12 12 0 -2
BITMAP
0000
2000
2000
2000
2680
2540
2540
2540
2540
2540
0000
0000
ENDCHAR
STARTCHAR p33D3
ENCODING 13267
SWIDTH 480 0
DWIDTH 13 0
BBX 12 12 0 -2
BITMAP
0000
2000
2000
2000
2440
2280
2100
2100
2280
2440
0000
0000
ENDCHAR
STARTCHAR p33D6
ENCODING 13270
SWIDTH 480 0
DWIDTH 13 0
BBX 12 12 0 -2
BITMAP
0000
0010
0010
0010
D190
AA50
AA50
AA50
AA50
A990
0000
0000
ENDCHAR
STARTCHAR p33D8
ENCODING 13272
SWIDTH 480 0
DWIDTH 13 0
BBX 12 12 0 -2
BITMAP
0000
0000
0000
0000
E340
92A0
92A0
92A0
92A0
EAB0
8000
8000
ENDCHAR
STARTCHAR p33DB
ENCODING 13275
SWIDTH 480 0
DWIDTH 13 0
BBX 12 12 0 -2
BITMAP
0000
0000
0000
0000
3960
4580
2100
1900
4500
3900
0000
0000
ENDCHAR
STARTCHAR p33DC
ENCODING 13276
SWIDTH 480 0
DWIDTH 13 0
BBX 12 12 0 -2
BITMAP
0000
3800
4400
4000
2220
1220
0940
0540
4480
3880
0000
0000
ENDCHAR
STARTCHAR p33DD
ENCODING 13277
SWIDTH 480 0
DWIDTH 13 0
BBX 12 12 0 -2
BITMAP
0000
5500
5500
5500
55C0
5520
5520
2920
2920
29C0
0000
0000
ENDCHAR
STARTCHAR p4E00
ENCODING 19968
SWIDTH 480 0
DWIDTH 13 0
BBX 12 12 0 -2
BITMAP
0000
0000
0000
0000
0000
FFF0
0000
0000
0000
0000
0000
0000
ENDCHAR
STARTCHAR p4E01
ENCODING 19969
SWIDTH 480 0
DWIDTH 13 0
BBX 12 12 0 -2
BITMAP
0000
FFF0
0200
0200
0200
0200
0200
0200
0200
0200
0200
0E00
ENDCHAR
STARTCHAR p4E03
ENCODING 19971
SWIDTH 480 0
DWIDTH 13 0
BBX 12 12 0 -2
BITMAP
0000
0800
0800
0800
0FF0
F800
0800
0800
0800
0820
0820
07E0
ENDCHAR
STARTCHAR p4E07
ENCODING 19975
SWIDTH 480 0
DWIDTH 13 0
BBX 12 12 0 -2
BITMAP
0000
FFF0
0800
0800
0FC0
0840
0840
0840
1040
1040
2040
C380
ENDCHAR
STARTCHAR p4E08
ENCODING 19976
SWIDTH 480 0
DWIDTH 13 0
BBX 12 12 0 -2
BITMAP
0100
0100
7FF0
0100
0100
2100
1100
0A00
0600
0900
30C0
C030
ENDCHAR
STARTCHAR p4E09
ENCODING 19977
SWIDTH 480 0
DWIDTH 13 0
BBX 12 12 0 -2
BITMAP
0000
7FE0
0000
0000
0000
0000
3FC0
0000
0000
0000
0000
FFF0
ENDCHAR
STARTCHAR p4E0A
ENCODING 19978
SWIDTH 480 0
DWIDTH 13 0
BBX 12 12 0 -2
BITMAP
0400
0400
0400
0400
07E0
0400
0400
0400
0400
0400
0400
FFF0
ENDCHAR
STARTCHAR p4E0B
ENCODING 19979
SWIDTH 480 0
DWIDTH 13 0
BBX 12 12 0 -2
BITMAP
0000
FFF0
0400
0400
0700
04C0
0440
0400
0400
0400
0400
0400
ENDCHAR
STARTCHAR p4E0D
ENCODING 19981
SWIDTH 480 0
DWIDTH 13 0
BBX 12 12 0 -2
BITMAP
0000
7FF0
0100
0200
0600
0A80
1240
2220
C210
0200
0200
0200
ENDCHAR
STARTCHAR p4E11
ENCODING 19985
SWIDTH 480 0
DWIDTH 13 0
BBX 12 12 0 -2
BITMAP
0000
7FC0
0840
0840
0840
0840
FFF0
1080
1080
1080
1080
FFF0
ENDCHAR
STARTCHAR p4E14
ENCODING 19988
SWIDTH 480 0
DWIDTH 13 0
BBX 12 12 0 -2
BITMAP
0000
1F80
1080
1080
1F80
1080
1080
1F80
1080
1080
1080
7FE0
ENDCHAR
STARTCHAR p4E15
ENCODING 19989
SWIDTH 480 0
DWIDTH 13 0
BBX 12 12 0 -2
BITMAP
0000
7FE0
0200
0400
0D00
1480
2460
C420
0400
0400
0000
FFF0
ENDCHAR
STARTCHAR p4E16
ENCODING 19990
SWIDTH 480 0
DWIDTH 13 0
BBX 12 12 0 -2
BITMAP
2440
2440
2440
FFF0
2440
2440
2440
27C0
2440
2000
3FF0
2000
ENDCHAR
STARTCHAR p4E18
ENCODING 19992
SWIDTH 480 0
DWIDTH 13 0
BBX 12 12 0 -2
BITMAP
00E0
3F00
2000
2000
3FE0
2080
2080
2080
2080
2080
2080
FFF0
ENDCHAR
STARTCHAR p4E19
ENCODING 19993
SWIDTH 480 0
DWIDTH 13 0
BBX 12 12 0 -2
BITMAP
0000
FFF0
0400
0400
7FE0
4420
4420
4620
4920
50A0
4020
40E0
ENDCHAR
STARTCHAR p4E1E
ENCODING 19998
SWIDTH 480 0
DWIDTH 13 0
BBX 12 12 0 -2
BITMAP
3FC0
0080
0300
0200
7A20
0B40
1280
2240
C230
0E00
0000
FFF0
ENDCHAR
STARTCHAR p4E2D
ENCODING 20013
SWIDTH 480 0
DWIDTH 13 0
BBX 12 12 0 -2
BITMAP
0400
0400
7FE0
4420
4420
4420
7FE0
4420
0400
0400
0400
0400
ENDCHAR
STARTCHAR p4E32
ENCODING 20018
SWIDTH 480 0
DWIDTH 13 0
BBX 12 12 0 -2
BITMAP
0200
3FE0
2220
2220
3FE0
0200
7FE0
4220
4220
7FE0
0200
0200
ENDCHAR
STARTCHAR p4E38
ENCODING 20024
SWIDTH 480 0
DWIDTH 13 0
BBX 12 12 0 -2
BITMAP
0800
0800
0800
7F80
0880
0880
6880
1880
0C80
1290
2090
C070
ENDCHAR
STARTCHAR p4E39
ENCODING 20025
SWIDTH 480 0
DWIDTH 13 0
BBX 12 12 0 -2
BITMAP
1FC0
1040
1440
1240
1240
1040
FFF0
1040
1040
2040
2040
41C0
ENDCHAR
STARTCHAR p4E3B
ENCODING 20027
SWIDTH 480 0
DWIDTH 13 0
BBX 12 12 0 -2
BITMAP
0800
0400
7FE0
0400
0400
0400
7FC0
0400
0400
0400
0400
FFF0
ENDCHAR
STARTCHAR p4E42
ENCODING 20034
SWIDTH 480 0
DWIDTH 13 0
BBX 12 12 0 -2
BITMAP
0000
1040
1040
1040
0880
0880
0500
0200
0500
0880
3040
C030
ENDCHAR
STARTCHAR p4E43
ENCODING 20035
SWIDTH 480 0
DWIDTH 13 0
BBX 12 12 0 -2
BITMAP
0000
7F80
1080
1080
1100
11E0
1120
1020
2020
2020
4020
81C0
ENDCHAR
STARTCHAR p4E45
ENCODING 20037
SWIDTH 480 0
DWIDTH 13 0
BBX 12 12 0 -2
BITMAP
1000
1000
1F00
2100
2100
4200
8200
0500
0880
1040
2020
C010
ENDCHAR
STARTCHAR p4E4B
ENCODING 20043
SWIDTH 480 0
DWIDTH 13 0
BBX 12 12 0 -2
BITMAP
0400
0400
7FE0
0040
0080
0100
0200
0400
2800
3000
4C00
83F0
ENDCHAR
STARTCHAR p4E4D
ENCODING 20045
SWIDTH 480 0
DWIDTH 13 0
BBX 12 12 0 -2
BITMAP
2000
2000
3FF0
4400
8400
07E0
0400
0400
07E0
0400
0400
0400
ENDCHAR
STARTCHAR p4E4E
ENCODING 20046
SWIDTH 480 0
DWIDTH 13 0
BBX 12 12 0 -2
BITMAP
03C0
7C00
0420
4440
2480
0400
FFF0
0400
0400
0400
0400
1C00
ENDCHAR
STARTCHAR p4E4F
ENCODING 20047
SWIDTH 480 0
DWIDTH 13 0
BBX 12 12 0 -2
BITMAP
03C0
7C00
0400
0400
7FC0
0080
0100
0200
2400
6800
5000
8FF0
ENDCHAR
STARTCHAR p4E56
ENCODING 20054
SWIDTH 480 0
DWIDTH 13 0
BBX 12 12 0 -2
BITMAP
07C0
7C00
0400
FFF0
1480
14B0
F4C0
1480
3490
D4F0
0400
0400
ENDCHAR
STARTCHAR p4E58
ENCODING 20056
SWIDTH 480 0
DWIDTH 13 0
BBX 12 12 0 -2
BITMAP
01C0
7E00
0200
FFF0
12A0
72C0
1290
F670
0B00
32C0
C230
0200
ENDCHAR
STARTCHAR p4E59
ENCODING 20057
SWIDTH 480 0
DWIDTH 13 0
BBX 12 12 0 -2
BITMAP
0000
7F80
0100
0200
0400
0800
1000
2000
2000
4020
4020
3FE0
ENDCHAR
STARTCHAR p4E5D
ENCODING 20061
SWIDTH 480 0
DWIDTH 13 0
BBX 12 12 0 -2
BITMAP
0800
0800
0800
7F80
0880
0880
0880
1080
1080
2090
4090
80F0
ENDCHAR
STARTCHAR p4E5E
ENCODING 20062
SWIDTH 480 0
DWIDTH 13 0
BBX 12 12 0 -2
BITMAP
2000
2000
7FE0
4000
9F80
0300
0400
0800
1000
2020
2020
1FE0
ENDCHAR
STARTCHAR p4E5F
ENCODING 20063
SWIDTH 480 0
DWIDTH 13 0
BBX 12 12 0 -2
BITMAP
0200
2200
2200
23E0
3E20
E220
2220
22E0
2200
2010
2010
1FF0
ENDCHAR
STARTCHAR p4E6B
ENCODING 20075
SWIDTH 480 0
DWIDTH 13 0
BBX 12 12 0 -2
BITMAP
2000
FDF0
2510
45F0
9910
0000
1F80
0300
0C00
1020
2020
1FE0
ENDCHAR
STARTCHAR p4E6D
ENCODING 20077
SWIDTH 480 0
DWIDTH 13 0
BBX 12 12 0 -2
BITMAP
7FE0
1000
3FC0
D040
1FC0
0000
3F80
0300
0C00
1000
2020
1FE0
ENDCHAR
STARTCHAR p4E73
ENCODING 20083
SWIDTH 480 0
DWIDTH 13 0
BBX 12 12 0 -2
BITMAP
1D00
E100
A500
9300
7D00
0900
1100
1D00
F100
1110
1110
70F0
ENDCHAR
STARTCHAR p4E76
ENCODING 20086
SWIDTH 480 0
DWIDTH 13 0
BBX 12 12 0 -2
BITMAP
0420
FFF0
4440
7FC0
4440
7FC0
4440
3F80
0300
1C20
2020
1FE0
ENDCHAR
STARTCHAR p4E77
ENCODING 20087
SWIDTH 480 0
DWIDTH 13 0
BBX 12 12 0 -2
BITMAP
4100
2520
8910
5760
0180
5E00
8000
1F80
0700
1820
2020
1FE0
ENDCHAR
STARTCHAR p4E7E
ENCODING 20094
SWIDTH 480 0
DWIDTH 13 0
BBX 12 12 0 -2
BITMAP
2100
F900
21F0
FA00
8C00
F9E0
8840
F880
2100
FA10
2210
21F0
ENDCHAR
STARTCHAR p4E82
ENCODING 20098
SWIDTH 480 0
DWIDTH 13 0
BBX 12 12 0 -2
BITMAP
0E80
7480
4A80
BE80
1480
7E80
5280
7E80
6A80
5290
6A90
4670
ENDCHAR
STARTCHAR p4E86
ENCODING 20102
SWIDTH 480 0
DWIDTH 13 0
BBX 12 12 0 -2
BITMAP
0000
7FE0
0080
0100
0200
0200
0200
0200
0200
0200
0200
0E00
ENDCHAR
STARTCHAR p4E88
ENCODING 20104
SWIDTH 480 0
DWIDTH 13 0
BBX 12 12 0 -2
BITMAP
3FE0
0040
0880
0500
0200
7FF0
0210
0220
0240
0200
0200
0E00
ENDCHAR
STARTCHAR p4E8B
ENCODING 20107
SWIDTH 480 0
DWIDTH 13 0
BBX 12 12 0 -2
BITMAP
0400
FFF0
0400
3FC0
2440
7FE0
0420
FFF0
0420
7FE0
0400
1C00
ENDCHAR
STARTCHAR p4E8C
ENCODING 20108
SWIDTH 480 0
DWIDTH 13 0
BBX 12 12 0 -2
BITMAP
0000
0000
7FE0
0000
0000
0000
0000
0000
0000
0000
FFF0
0000
ENDCHAR
STARTCHAR p4E8E
ENCODING 20110
SWIDTH 480 0
DWIDTH 13 0
BBX 12 12 0 -2
BITMAP
0000
7FE0
0200
0200
0200
FFF0
0200
0200
0200
0200
0200
0E00
ENDCHAR
STARTCHAR p4E90
ENCODING 20112
SWIDTH 480 0
DWIDTH 13 0
BBX 12 12 0 -2
BITMAP
7FE0
0800
0800
FFF0
1000
1000
3FE0
2020
0020
0020
0040
0380
ENDCHAR
STARTCHAR p4E91
ENCODING 20113
SWIDTH 480 0
DWIDTH 13 0
BBX 12 12 0 -2
BITMAP
0000
3FC0
0000
0000
0000
FFF0
0800
0800
1080
2040
7FE0
4020
ENDCHAR
STARTCHAR p4E92
ENCODING 20114
SWIDTH 480 0
DWIDTH 13 0
BBX 12 12 0 -2
BITMAP
0000
7FF0
0800
0800
0FC0
1040
1040
1040
1F80
0080
0080
FFF0
ENDCHAR
STARTCHAR p4E94
ENCODING 20116
SWIDTH 480 0
DWIDTH 13 0
BBX 12 12 0 -2
BITMAP
0000
FFF0
0800
0800
0800
7FC0
0840
0840
1040
1040
1040
FFF0
ENDCHAR
STARTCHAR p4E95
ENCODING 20117
SWIDTH 480 0
DWIDTH 13 0
BBX 12 12 0 -2
BITMAP
1100
1100
7FE0
1100
1100
1100
1100
FFF0
1100
1100
2100
4100
ENDCHAR
STARTCHAR p4E98
ENCODING 20120
SWIDTH 480 0
DWIDTH 13 0
BBX 12 12 0 -2
BITMAP
0000
FFF0
0000
3FC0
2040
2040
3FC0
2040
2040
3FC0
0000
FFF0
ENDCHAR
STARTCHAR p4E9B
ENCODING 20123
SWIDTH 480 0
DWIDTH 13 0
BBX 12 12 0 -2
BITMAP
1100
5130
5DC0
5100
5110
5D10
F0F0
0000
3FC0
0000
0000
FFF0
ENDCHAR
STARTCHAR p4E9E
ENCODING 20126
SWIDTH 480 0
DWIDTH 13 0
BBX 12 12 0 -2
BITMAP
0000
FFF0
0900
0900
79E0
4020
4020
79E0
0900
0900
0900
FFF0
ENDCHAR
STARTCHAR p4EA1
ENCODING 20129
SWIDTH 480 0
DWIDTH 13 0
BBX 12 12 0 -2
BITMAP
0000
0200
0200
FFF0
2000
2000
2000
2000
2000
2000
2000
1FE0
ENDCHAR
STARTCHAR p4EA2
ENCODING 20130
SWIDTH 480 0
DWIDTH 13 0
BBX 12 12 0 -2
BITMAP
0400
0400
7FE0
0000
1F00
1100
1100
1100
1100
1110
2110
C0F0
ENDCHAR
STARTCHAR p4EA4
ENCODING 20132
SWIDTH 480 0
DWIDTH 13 0
BBX 12 12 0 -2
BITMAP
0200
0200
FFF0
1040
2020
C090
1080
0900
0600
0900
30C0
C030
ENDCHAR
STARTCHAR p4EA5
ENCODING 20133
SWIDTH 480 0
DWIDTH 13 0
BBX 12 12 0 -2
BITMAP
0400
0400
FFF0
0800
5100
2220
1440
0880
3100
C680
1840
E020
ENDCHAR
STARTCHAR p4EA6
ENCODING 20134
SWIDTH 480 0
DWIDTH 13 0
BBX 12 12 0 -2
BITMAP
0200
0200
FFF0
0900
0900
2940
2920
4910
9110
1100
2100
4700
ENDCHAR
STARTCHAR p4EA8
ENCODING 20136
SWIDTH 480 0
DWIDTH 13 0
BBX 12 12 0 -2
BITMAP
0200
FFF0
0000
1FC0
1040
1FC0
0000
3FC0
0100
0200
0200
0E00
ENDCHAR
STARTCHAR p4EAB
ENCODING 20139
SWIDTH 480 0
DWIDTH 13 0
BBX 12 12 0 -2
BITMAP
0200
FFF0
0000
3FC0
2040
3FC0
0000
3F80
0100
FFF0
0200
0E00
ENDCHAR
STARTCHAR p4EAC
ENCODING 20140
SWIDTH 480 0
DWIDTH 13 0
BBX 12 12 0 -2
BITMAP
0200
0200
FFF0
0000
1FC0
1040
1040
1FC0
0200
1240
2220
CE10
ENDCHAR
STARTCHAR p4EAD
ENCODING 20141
SWIDTH 480 0
DWIDTH 13 0
BBX 12 12 0 -2
BITMAP
0200
FFF0
3FC0
2040
3FC0
0000
FFF0
8010
3FC0
0200
0200
0E00
ENDCHAR
STARTCHAR p4EAE
ENCODING 20142
SWIDTH 480 0
DWIDTH 13 0
BBX 12 12 0 -2
BITMAP
0200
7FE0
0000
1F80
1080
1F80
0000
7FE0
4920
0900
1110
E1F0
ENDCHAR
STARTCHAR p4EB6
ENCODING 20150
SWIDTH 480 0
DWIDTH 13 0
BBX 12 12 0 -2
BITMAP
0200
FFF0
4020
4FA0
48A0
7FE0
0000
3FC0
2040
3FC0
2040
FFF0
ENDCHAR
STARTCHAR p4EBA
ENCODING 20154
SWIDTH 480 0
DWIDTH 13 0
BBX 12 12 0 -2
BITMAP
0400
0400
0400
0400
0600
0600
0500
0900
0880
1040
2020
C010
ENDCHAR
STARTCHAR p4EC0
ENCODING 20160
SWIDTH 480 0
DWIDTH 13 0
BBX 12 12 0 -2
BITMAP
1080
1080
2080
2080
6FF0
A080
2080
2080
2080
2080
2080
2080
ENDCHAR
STARTCHAR p4EC1
ENCODING 20161
SWIDTH 480 0
DWIDTH 13 0
BBX 12 12 0 -2
BITMAP
1000
1000
27E0
2000
6000
A000
2000
2000
2000
2000
2FF0
2000
ENDCHAR
STARTCHAR p4EC4
ENCODING 20164
SWIDTH 480 0
DWIDTH 13 0
BBX 12 12 0 -2
BITMAP
0000
7FF0
4000
4200
4200
4200
4200
4500
4480
4840
9020
A010
ENDCHAR
STARTCHAR p4EC7
ENCODING 20167
SWIDTH 480 0
DWIDTH 13 0
BBX 12 12 0 -2
BITMAP
1200
1200
2200
2FC0
6240
A240
2240
2240
2440
2450
2850
3070
ENDCHAR
STARTCHAR p4ECA
ENCODING 20170
SWIDTH 480 0
DWIDTH 13 0
BBX 12 12 0 -2
BITMAP
0600
0900
1080
2F40
C030
0000
3FC0
0040
0040
0080
0080
0100
ENDCHAR
STARTCHAR p4ECB
ENCODING 20171
SWIDTH 480 0
DWIDTH 13 0
BBX 12 12 0 -2
BITMAP
0600
0900
1080
2040
D0B0
1080
1080
1080
1080
1080
2080
4080
ENDCHAR
STARTCHAR p4ECD
ENCODING 20173
SWIDTH 480 0
DWIDTH 13 0
BBX 12 12 0 -2
BITMAP
1000
1FE0
2420
2440
6440
A4F0
2490
2410
2410
2810
2810
30E0
ENDCHAR
STARTCHAR p4ED4
ENCODING 20180
SWIDTH 480 0
DWIDTH 13 0
BBX 12 12 0 -2
BITMAP
2000
2FE0
4040
4080
C100
5FF0
4100
4100
4100
4100
4100
4700
ENDCHAR
STARTCHAR p4ED5
ENCODING 20181
SWIDTH 480 0
DWIDTH 13 0
BBX 12 12 0 -2
BITMAP
2100
2100
4100
4100
DFF0
4100
4100
4100
4100
4100
4100
4FE0
ENDCHAR
STARTCHAR p4ED6
ENCODING 20182
SWIDTH 480 0
DWIDTH 13 0
BBX 12 12 0 -2
BITMAP
1100
1500
2560
25A0
6720
AD20
2520
2520
2560
2510
2410
23F0
ENDCHAR
STARTCHAR p4ED7
ENCODING 20183
SWIDTH 480 0
DWIDTH 13 0
BBX 12 12 0 -2
BITMAP
1080
1080
2FF0
2080
6080
A880
2480
2300
2100
2280
2440
2830
ENDCHAR
STARTCHAR p4ED8
ENCODING 20184
SWIDTH 480 0
DWIDTH 13 0
BBX 12 12 0 -2
BITMAP
1040
1040
2040
2FF0
6040
A040
2440
2240
2240
2040
2040
21C0
ENDCHAR
STARTCHAR p4ED9
ENCODING 20185
SWIDTH 480 0
DWIDTH 13 0
BBX 12 12 0 -2
BITMAP
1080
1080
2080
2490
6490
A490
2490
2490
2490
2490
27F0
2410
ENDCHAR
STARTCHAR p4EDD
ENCODING 20189
SWIDTH 480 0
DWIDTH 13 0
BBX 12 12 0 -2
BITMAP
0400
0600
0900
1080
2040
C030
3FC0
0400
0400
0400
0400
FFF0
ENDCHAR
STARTCHAR p4EDF
ENCODING 20191
SWIDTH 480 0
DWIDTH 13 0
BBX 12 12 0 -2
BITMAP
11C0
1700
2100
2100
6100
AFE0
2100
2100
2100
2100
2100
2100
ENDCHAR
STARTCHAR p4EE3
ENCODING 20195
SWIDTH 480 0
DWIDTH 13 0
BBX 12 12 0 -2
BITMAP
1140
1120
2100
21F0
6F00
A100
2100
2100
2080
2090
2050
2030
ENDCHAR
STARTCHAR p4EE4
ENCODING 20196
SWIDTH 480 0
DWIDTH 13 0
BBX 12 12 0 -2
BITMAP
0600
0900
1080
2F40
C030
0000
3FC0
0440
0440
0440
05C0
0400
ENDCHAR
STARTCHAR p4EE5
ENCODING 20197
SWIDTH 480 0
DWIDTH 13 0
BBX 12 12 0 -2
BITMAP
0040
4840
4440
4240
4040
4040
4040
4840
70A0
C120
0610
3810
ENDCHAR
STARTCHAR p4EF0
ENCODING 20208
SWIDTH 480 0
DWIDTH 13 0
BBX 12 12 0 -2
BITMAP
2300
2CF0
4890
4890
C890
4890
4890
4890
4EB0
5880
4080
4080
ENDCHAR
STARTCHAR p4EF2
ENCODING 20210
SWIDTH 480 0
DWIDTH 13 0
BBX 12 12 0 -2
BITMAP
1100
1100
2FF0
2910
6910
A910
2FF0
2910
2100
2100
2100
2100
ENDCHAR
STARTCHAR p4EF6
ENCODING 20214
SWIDTH 480 0
DWIDTH 13 0
BBX 12 12 0 -2
BITMAP
2100
2900
4900
4FE0
C900
5100
4100
5FF0
4100
4100
4100
4100
ENDCHAR
STARTCHAR p4EF7
ENCODING 20215
SWIDTH 480 0
DWIDTH 13 0
BBX 12 12 0 -2
BITMAP
1100
1180
2240
2420
6A50
A240
2240
2240
2240
2240
2440
2840
ENDCHAR
STARTCHAR p4EFB
ENCODING 20219
SWIDTH 480 0
DWIDTH 13 0
BBX 12 12 0 -2
BITMAP
20E0
2F00
4100
4100
C100
4100
5FF0
4100
4100
4100
4100
4FE0
ENDCHAR
STARTCHAR p4F01
ENCODING 20225
SWIDTH 480 0
DWIDTH 13 0
BBX 12 12 0 -2
BITMAP
0200
0500
0880
3040
C230
0200
2200
23C0
2200
2200
2200
FFF0
ENDCHAR
STARTCHAR p4F09
ENCODING 20233
SWIDTH 480 0
DWIDTH 13 0
BBX 12 12 0 -2
BITMAP
1200
1200
2FE0
2000
6780
A480
2480
2480
2480
2480
2890
3070
ENDCHAR
STARTCHAR p4F0A
ENCODING 20234
SWIDTH 480 0
DWIDTH 13 0
BBX 12 12 0 -2
BITMAP
2000
2FE0
4220
4220
DFF0
4220
4220
4FE0
4220
4200
4400
5800
ENDCHAR
STARTCHAR p4F0B
ENCODING 20235
SWIDTH 480 0
DWIDTH 13 0
BBX 12 12 0 -2
BITMAP
2FC0
2440
4480
4480
C5E0
4520
4420
4640
4940
4880
5140
6630
ENDCHAR
STARTCHAR p4F0D
ENCODING 20237
SWIDTH 480 0
DWIDTH 13 0
BBX 12 12 0 -2
BITMAP
2000
2FE0
4200
4200
C200
4FC0
4240
4240
4440
4440
4440
5FF0
ENDCHAR
STARTCHAR p4F0E
ENCODING 20238
SWIDTH 480 0
DWIDTH 13 0
BBX 12 12 0 -2
BITMAP
2100
2100
4FE0
4100
C100
4FC0
4440
4440
4280
4100
46C0
5830
ENDCHAR
STARTCHAR p4F0F
ENCODING 20239
SWIDTH 480 0
DWIDTH 13 0
BBX 12 12 0 -2
BITMAP
2140
2120
4100
5FF0
C100
4100
4280
4280
4440
4440
4820
5010
ENDCHAR
STARTCHAR p4F10
ENCODING 20240
SWIDTH 480 0
DWIDTH 13 0
BBX 12 12 0 -2
BITMAP
1240
1220
2200
23F0
6E00
A210
2120
2140
2080
2190
2250
2C30
ENDCHAR
STARTCHAR p4F11
ENCODING 20241
SWIDTH 480 0
DWIDTH 13 0
BBX 12 12 0 -2
BITMAP
2100
2100
4100
4FE0
C100
4300
4380
4540
4920
5110
4100
4100
ENDCHAR
STARTCHAR p4F2F
ENCODING 20271
SWIDTH 480 0
DWIDTH 13 0
BBX 12 12 0 -2
BITMAP
1080
1100
27E0
2420
6420
A420
27E0
2420
2420
2420
27E0
2420
ENDCHAR
STARTCHAR p4F34
ENCODING 20276
SWIDTH 480 0
DWIDTH 13 0
BBX 12 12 0 -2
BITMAP
2100
2540
4920
5110
CFE0
4100
4100
4100
5FF0
4100
4100
4100
ENDCHAR
STARTCHAR p4F36
ENCODING 20278
SWIDTH 480 0
DWIDTH 13 0
BBX 12 12 0 -2
BITMAP
2100
2280
4440
4BA0
D010
4000
4FE0
4220
4220
4220
42E0
4200
ENDCHAR
STARTCHAR p4F38
ENCODING 20280
SWIDTH 480 0
DWIDTH 13 0
BBX 12 12 0 -2
BITMAP
1080
1080
27F0
2490
6490
A7F0
2490
2490
27F0
2080
2080
2080
ENDCHAR
STARTCHAR p4F3A
ENCODING 20282
SWIDTH 480 0
DWIDTH 13 0
BBX 12 12 0 -2
BITMAP
1000
17F0
2010
6790
A010
2790
2490
2490
2790
2490
2010
2070
ENDCHAR
STARTCHAR p4F3C
ENCODING 20284
SWIDTH 480 0
DWIDTH 13 0
BBX 12 12 0 -2
BITMAP
1420
1520
24A0
24A0
6420
A420
2420
2540
2640
2CA0
2110
2610
ENDCHAR
STARTCHAR p4F3D
ENCODING 20285
SWIDTH 480 0
DWIDTH 13 0
BBX 12 12 0 -2
BITMAP
2400
2400
5F70
4550
C550
4550
4550
4550
4550
4950
4970
5650
ENDCHAR
STARTCHAR p4F43
ENCODING 20291
SWIDTH 480 0
DWIDTH 13 0
BBX 12 12 0 -2
BITMAP
2000
2FE0
4920
4920
C920
4FE0
4920
4920
4920
4920
4FE0
4820
ENDCHAR
STARTCHAR p4F46
ENCODING 20294
SWIDTH 480 0
DWIDTH 13 0
BBX 12 12 0 -2
BITMAP
1000
17E0
2420
2420
67E0
A420
2420
2420
27E0
2420
2000
2FF0
ENDCHAR
STARTCHAR p4F47
ENCODING 20295
SWIDTH 480 0
DWIDTH 13 0
BBX 12 12 0 -2
BITMAP
1100
1100
2FF0
2810
6000
AFF0
2080
2080
2080
2080
2080
2380
ENDCHAR
STARTCHAR p4F48
ENCODING 20296
SWIDTH 480 0
DWIDTH 13 0
BBX 12 12 0 -2
BITMAP
2200
2200
5FF0
4400
C500
4FE0
5520
6520
4520
4520
4560
4100
ENDCHAR
STARTCHAR p4F4D
ENCODING 20301
SWIDTH 480 0
DWIDTH 13 0
BBX 12 12 0 -2
BITMAP
2100
2100
4FE0
4000
C840
4840
4440
4440
4480
4480
4080
5FF0
ENDCHAR
STARTCHAR p4F4E
ENCODING 20302
SWIDTH 480 0
DWIDTH 13 0
BBX 12 12 0 -2
BITMAP
20E0
2F80
4880
4880
CFF0
4880
4880
4880
4850
4E50
5830
4390
ENDCHAR
STARTCHAR p4F4F
ENCODING 20303
SWIDTH 480 0
DWIDTH 13 0
BBX 12 12 0 -2
BITMAP
2200
2100
5FF0
4100
C100
4100
4FE0
4100
4100
4100
4100
5FF0
ENDCHAR
STARTCHAR p4F50
ENCODING 20304
SWIDTH 480 0
DWIDTH 13 0
BBX 12 12 0 -2
BITMAP
1200
1200
2FF0
2200
6200
A400
27E0
2900
3100
2100
2100
2FF0
ENDCHAR
STARTCHAR p4F51
ENCODING 20305
SWIDTH 480 0
DWIDTH 13 0
BBX 12 12 0 -2
BITMAP
2100
2100
4FF0
4200
C200
4400
4FE0
5420
6420
4420
47E0
4420
ENDCHAR
STARTCHAR p4F55
ENCODING 20309
SWIDTH 480 0
DWIDTH 13 0
BBX 12 12 0 -2
BITMAP
1000
17F0
2020
6020
A7A0
24A0
24A0
27A0
24A0
2020
2020
20E0
ENDCHAR
STARTCHAR p4F59
ENCODING 20313
SWIDTH 480 0
DWIDTH 13 0
BBX 12 12 0 -2
BITMAP
0400
0A00
1100
20C0
DF30
0400
0400
FFE0
0400
2480
4460
9C20
ENDCHAR
STARTCHAR p4F5A
ENCODING 20314
SWIDTH 480 0
DWIDTH 13 0
BBX 12 12 0 -2
BITMAP
2100
2900
4900
4FE0
D100
4100
5FF0
4100
4180
4240
4420
5810
ENDCHAR
STARTCHAR p4F5B
ENCODING 20315
SWIDTH 480 0
DWIDTH 13 0
BBX 12 12 0 -2
BITMAP
2280
2280
4FE0
42A0
CFE0
4AA0
4A80
5FF0
5290
4290
44E0
4880
ENDCHAR
STARTCHAR p4F5C
ENCODING 20316
SWIDTH 480 0
DWIDTH 13 0
BBX 12 12 0 -2
BITMAP
1200
1200
23F0
2500
6900
A1E0
2100
2100
21E0
2100
2100
2100
ENDCHAR
STARTCHAR p4F69
ENCODING 20329
SWIDTH 480 0
DWIDTH 13 0
BBX 12 12 0 -2
BITMAP
3FC0
3040
5040
5FC0
D240
5FC0
5AC0
5AC0
5AC0
5BD0
5250
6230
ENDCHAR
STARTCHAR p4F6F
ENCODING 20335
SWIDTH 480 0
DWIDTH 13 0
BBX 12 12 0 -2
BITMAP
1440
1280
2FF0
2100
6100
A7E0
2100
2100
2FF0
2100
2100
2100
ENDCHAR
STARTCHAR p4F70
ENCODING 20336
SWIDTH 480 0
DWIDTH 13 0
BBX 12 12 0 -2
BITMAP
1000
1FF0
2100
2200
67E0
A420
2420
27E0
2420
2420
27E0
2420
ENDCHAR
STARTCHAR p4F73
ENCODING 20339
SWIDTH 480 0
DWIDTH 13 0
BBX 12 12 0 -2
BITMAP
2100
2100
4FE0
4100
C100
5FF0
4100
4100
4FE0
4100
4100
5FF0
ENDCHAR
STARTCHAR p4F76
ENCODING 20342
SWIDTH 480 0
DWIDTH 13 0
BBX 12 12 0 -2
BITMAP
1100
1100
2FF0
2100
6100
A7E0
2000
27E0
2420
2420
27E0
2420
ENDCHAR
STARTCHAR p4F7A
ENCODING 20346
SWIDTH 480 0
DWIDTH 13 0
BBX 12 12 0 -2
BITMAP
2F00
2280
4440
4820
D7D0
4100
4100
47C0
4100
4100
4100
5FF0
ENDCHAR
STARTCHAR p4F7E
ENCODING 20350
SWIDTH 480 0
DWIDTH 13 0
BBX 12 12 0 -2
BITMAP
25C0
2440
4440
4820
D7D0
4440
47C0
4440
47C0
4440
4840
51C0
ENDCHAR
STARTCHAR p4F7F
ENCODING 20351
SWIDTH 480 0
DWIDTH 13 0
BBX 12 12 0 -2
BITMAP
2100
3FF0
4100
4FE0
C920
4920
4FE0
4920
4500
4300
44C0
5830
ENDCHAR
STARTCHAR p4F81
ENCODING 20353
SWIDTH 480 0
DWIDTH 13 0
BBX 12 12 0 -2
BITMAP
2100
2900
4FE0
4900
D100
4100
5FF0
4480
4480
4490
4890
5070
ENDCHAR
STARTCHAR p4F83
ENCODING 20355
SWIDTH 480 0
DWIDTH 13 0
BBX 12 12 0 -2
BITMAP
27E0
2420
4420
4420
C7E0
4000
4540
4540
4540
4550
4950
5070
ENDCHAR
STARTCHAR p4F84
ENCODING 20356
SWIDTH 480 0
DWIDTH 13 0
BBX 12 12 0 -2
BITMAP
1000
1FF0
2240
2420
6FD0
A100
2100
2FE0
2100
2100
2100
3FF0
ENDCHAR
STARTCHAR p4F86
ENCODING 20358
SWIDTH 480 0
DWIDTH 13 0
BBX 12 12 0 -2
BITMAP
0200
0200
FFF0
2240
2240
52A0
9610
0B00
1280
2240
C230
0200
ENDCHAR
STARTCHAR p4F88
ENCODING 20360
SWIDTH 480 0
DWIDTH 13 0
BBX 12 12 0 -2
BITMAP
1200
13E0
2440
2A80
6100
A280
2CF0
2110
26A0
2040
2180
2E00
ENDCHAR
STARTCHAR p4F8A
ENCODING 20362
SWIDTH 480 0
DWIDTH 13 0
BBX 12 12 0 -2
BITMAP
1100
1120
2920
2540
6100
AFF0
2280
2280
2280
2290
2490
28F0
ENDCHAR
STARTCHAR p4F8B
ENCODING 20363
SWIDTH 480 0
DWIDTH 13 0
BBX 12 12 0 -2
BITMAP
2020
3E20
48A0
48A0
CEA0
4AA0
52A0
6AA0
44A0
4420
4820
50E0
ENDCHAR
STARTCHAR p4F8D
ENCODING 20365
SWIDTH 480 0
DWIDTH 13 0
BBX 12 12 0 -2
BITMAP
2100
2FE0
4100
4100
DFF0
4040
4040
5FF0
4040
4840
4440
41C0
ENDCHAR
STARTCHAR p4F8F
ENCODING 20367
SWIDTH 480 0
DWIDTH 13 0
BBX 12 12 0 -2
BITMAP
1100
1500
27E0
2500
6900
A100
2FF0
2180
2340
2520
2910
2100
ENDCHAR
STARTCHAR p4F91
ENCODING 20369
SWIDTH 480 0
DWIDTH 13 0
BBX 12 12 0 -2
BITMAP
1200
1200
2FF0
2400
67E0
AC20
37E0
2420
27E0
2420
2420
24E0
ENDCHAR
STARTCHAR p4F96
ENCODING 20374
SWIDTH 480 0
DWIDTH 13 0
BBX 12 12 0 -2
BITMAP
0600
0900
1080
2F40
C030
7FE0
4920
4920
7FE0
4920
4920
4060
ENDCHAR
STARTCHAR p4F98
ENCODING 20376
SWIDTH 480 0
DWIDTH 13 0
BBX 12 12 0 -2
BITMAP
2100
2FF0
4810
41C0
C700
4100
41F0
4F00
4100
4110
4110
40F0
ENDCHAR
STARTCHAR p4F9B
ENCODING 20379
SWIDTH 480 0
DWIDTH 13 0
BBX 12 12 0 -2
BITMAP
2440
2440
4440
5FF0
C440
4440
4440
5FF0
4000
4440
4820
5010
ENDCHAR
STARTCHAR p4F9D
ENCODING 20381
SWIDTH 480 0
DWIDTH 13 0
BBX 12 12 0 -2
BITMAP
1100
1100
2FF0
2100
6280
A490
2CA0
3440
2440
2420
2720
2C10
ENDCHAR
STARTCHAR p4FAE
ENCODING 20398
SWIDTH 480 0
DWIDTH 13 0
BBX 12 12 0 -2
BITMAP
2400
27F0
4800
57E0
C520
44A0
5FF0
4520
44A0
4FF0
4820
40C0
ENDCHAR
STARTCHAR p4FAF
ENCODING 20399
SWIDTH 480 0
DWIDTH 13 0
BBX 12 12 0 -2
BITMAP
2FC0
2040
4040
5FF0
C400
47E0
4900
4100
5FF0
4280
4440
5830
ENDCHAR
STARTCHAR p4FB5
ENCODING 20405
SWIDTH 480 0
DWIDTH 13 0
BBX 12 12 0 -2
BITMAP
17E0
1020
2FF0
2020
67E0
A000
2FF0
2810
27C0
2240
2180
2E70
ENDCHAR
STARTCHAR p4FB6
ENCODING 20406
SWIDTH 480 0
DWIDTH 13 0
BBX 12 12 0 -2
BITMAP
1000
17E0
2420
2420
67E0
A100
2200
2FF0
2810
2810
2FF0
2810
ENDCHAR
STARTCHAR p4FBF
ENCODING 20415
SWIDTH 480 0
DWIDTH 13 0
BBX 12 12 0 -2
BITMAP
2000
3FF0
4100
4FE0
C920
4FE0
4920
4FE0
4920
4500
4300
5CF0
ENDCHAR
STARTCHAR p4FC2
ENCODING 20418
SWIDTH 480 0
DWIDTH 13 0
BBX 12 12 0 -2
BITMAP
21C0
3E00
2440
5880
4500
C240
44E0
5F20
4100
4940
4920
5110
ENDCHAR
STARTCHAR p4FC3
ENCODING 20419
SWIDTH 480 0
DWIDTH 13 0
BBX 12 12 0 -2
BITMAP
2FE0
2820
4820
4820
CFE0
4100
4100
49E0
4900
4D00
5300
60F0
ENDCHAR
STARTCHAR p4FC4
ENCODING 20420
SWIDTH 480 0
DWIDTH 13 0
BBX 12 12 0 -2
BITMAP
2680
3CA0
4490
4480
DFF0
4480
44A0
46A0
5CC0
4490
4550
5C30
ENDCHAR
STARTCHAR p4FC9
ENCODING 20425
SWIDTH 480 0
DWIDTH 13 0
BBX 12 12 0 -2
BITMAP
2FF0
2100
4100
47E0
C220
4220
4FF0
4000
47E0
4420
4420
47E0
ENDCHAR
STARTCHAR p4FCA
ENCODING 20426
SWIDTH 480 0
DWIDTH 13 0
BBX 12 12 0 -2
BITMAP
1200
1440
2FE0
22A0
6490
A870
2200
23E0
2440
2A80
2180
2E70
ENDCHAR
STARTCHAR p4FCE
ENCODING 20430
SWIDTH 480 0
DWIDTH 13 0
BBX 12 12 0 -2
BITMAP
2000
23E0
2220
5220
8BE0
0220
2220
23E0
3220
4A20
8220
0FF0
ENDCHAR
STARTCHAR p4FD1
ENCODING 20433
SWIDTH 480 0
DWIDTH 13 0
BBX 12 12 0 -2
BITMAP
17E0
1040
2280
2100
6FF0
A910
2FF0
2910
2FF0
2910
2910
2930
ENDCHAR
STARTCHAR p4FD3
ENCODING 20435
SWIDTH 480 0
DWIDTH 13 0
BBX 12 12 0 -2
BITMAP
2FE0
2000
4520
4A40
CA40
4520
4000
4FE0
4100
4100
4100
5FF0
ENDCHAR
STARTCHAR p4FD4
ENCODING 20436
SWIDTH 480 0
DWIDTH 13 0
BBX 12 12 0 -2
BITMAP
17E0
1420
27E0
2420
67E0
A420
2420
27E0
2280
2280
2490
2870
ENDCHAR
STARTCHAR p4FD7
ENCODING 20439
SWIDTH 480 0
DWIDTH 13 0
BBX 12 12 0 -2
BITMAP
2280
2440
4820
5110
C280
4440
4820
57D0
4440
4440
47C0
4440
ENDCHAR
STARTCHAR p4FDA
ENCODING 20442
SWIDTH 480 0
DWIDTH 13 0
BBX 12 12 0 -2
BITMAP
2FE0
2920
4920
4FE0
C920
4920
4FE0
4100
4FE0
4100
4100
5FF0
ENDCHAR
STARTCHAR p4FDD
ENCODING 20445
SWIDTH 480 0
DWIDTH 13 0
BBX 12 12 0 -2
BITMAP
17E0
1420
2420
2420
67E0
A100
2FF0
2180
2340
2520
2910
2100
ENDCHAR
STARTCHAR p4FDF
ENCODING 20447
SWIDTH 480 0
DWIDTH 13 0
BBX 12 12 0 -2
BITMAP
2200
2440
4FE0
4020
C800
4FE0
5100
4100
5FF0
4280
4440
5830
ENDCHAR
STARTCHAR p4FE0
ENCODING 20448
SWIDTH 480 0
DWIDTH 13 0
BBX 12 12 0 -2
BITMAP
2100
2100
5FF0
4100
C920
4920
5550
4100
4280
4440
4820
5010
ENDCHAR
STARTCHAR p4FE1
ENCODING 20449
SWIDTH 480 0
DWIDTH 13 0
BBX 12 12 0 -2
BITMAP
27E0
2000
4FF0
4000
C7E0
4000
47E0
4000
47E0
4420
47E0
4420
ENDCHAR
STARTCHAR p4FEE
ENCODING 20462
SWIDTH 480 0
DWIDTH 13 0
BBX 12 12 0 -2
BITMAP
2200
23F0
4220
5540
D0C0
5730
5080
5320
50C0
5310
4060
4780
ENDCHAR
STARTCHAR p4FEF
ENCODING 20463
SWIDTH 480 0
DWIDTH 13 0
BBX 12 12 0 -2
BITMAP
2100
2100
5FF0
5220
D220
55F0
5C20
5520
54A0
5420
5420
64E0
ENDCHAR
STARTCHAR p4FF1
ENCODING 20465
SWIDTH 480 0
DWIDTH 13 0
BBX 12 12 0 -2
BITMAP
17C0
1440
27C0
2440
67C0
A440
27C0
2440
3FF0
2000
2440
3830
ENDCHAR
STARTCHAR p4FF3
ENCODING 20467
SWIDTH 480 0
DWIDTH 13 0
BBX 12 12 0 -2
BITMAP
2280
2280
5EF0
4280
C280
5EF0
4280
4680
5AF0
4280
4480
5880
ENDCHAR
STARTCHAR p4FF5
ENCODING 20469
SWIDTH 480 0
DWIDTH 13 0
BBX 12 12 0 -2
BITMAP
2100
3FF0
4100
4FE0
C100
5FF0
4200
4510
58A0
4840
4B20
5C10
ENDCHAR
STARTCHAR p4FF8
ENCODING 20472
SWIDTH 480 0
DWIDTH 13 0
BBX 12 12 0 -2
BITMAP
2100
2FF0
4200
4FE0
C440
5FF0
4920
57D0
6100
4FE0
4100
4100
ENDCHAR
STARTCHAR p4FFA
ENCODING 20474
SWIDTH 480 0
DWIDTH 13 0
BBX 12 12 0 -2
BITMAP
2200
2FE0
4480
4840
D220
6FD0
4A40
4FC0
4A40
4FD0
4210
43F0
ENDCHAR
STARTCHAR p5002
ENCODING 20482
SWIDTH 480 0
DWIDTH 13 0
BBX 12 12 0 -2
BITMAP
1220
1220
2440
2EF0
6440
A440
2640
2CF0
2440
2440
2440
2840
ENDCHAR
STARTCHAR p5006
ENCODING 20486
SWIDTH 480 0
DWIDTH 13 0
BBX 12 12 0 -2
BITMAP
2000
3FF0
4100
5FF0
D110
5DD0
5550
5550
5BB0
5110
5110
5170
ENDCHAR
STARTCHAR p5009
ENCODING 20489
SWIDTH 480 0
DWIDTH 13 0
BBX 12 12 0 -2
BITMAP
0F00
30C0
CF30
3FC0
2040
3FC0
2040
3FC0
2000
3FE0
5020
9FE0
ENDCHAR
STARTCHAR p500B
ENCODING 20491
SWIDTH 480 0
DWIDTH 13 0
BBX 12 12 0 -2
BITMAP
2FE0
2820
4920
4BA0
C920
4BA0
4AA0
4BA0
4AA0
4820
4FE0
4820
ENDCHAR
STARTCHAR p500D
ENCODING 20493
SWIDTH 480 0
DWIDTH 13 0
BBX 12 12 0 -2
BITMAP
2100
2FE0
4000
4440
C280
5FF0
4000
4FE0
4820
4820
4FE0
4820
ENDCHAR
STARTCHAR p5011
ENCODING 20497
SWIDTH 480 0
DWIDTH 13 0
BBX 12 12 0 -2
BITMAP
3EF0
3290
5EF0
5290
DEF0
5010
5010
5010
5010
5010
5010
5070
ENDCHAR
STARTCHAR p5012
ENCODING 20498
SWIDTH 480 0
DWIDTH 13 0
BBX 12 12 0 -2
BITMAP
2010
3F10
4850
5250
DF50
4550
4450
5F50
4450
4410
4710
5C70
ENDCHAR
STARTCHAR p5016
ENCODING 20502
SWIDTH 480 0
DWIDTH 13 0
BBX 12 12 0 -2
BITMAP
2100
2FE0
4100
4100
DFF0
4440
4280
5FF0
4100
4FE0
4100
4100
ENDCHAR
STARTCHAR p5019
ENCODING 20505
SWIDTH 480 0
DWIDTH 13 0
BBX 12 12 0 -2
BITMAP
23E0
2020
5020
57F0
D200
53E0
5480
5080
57F0
5140
4220
4C10
ENDCHAR
STARTCHAR p501A
ENCODING 20506
SWIDTH 480 0
DWIDTH 13 0
BBX 12 12 0 -2
BITMAP
1100
1FE0
2280
6440
A820
3FF0
2020
2F20
2920
2F20
2920
20E0
ENDCHAR
STARTCHAR p501C
ENCODING 20508
SWIDTH 480 0
DWIDTH 13 0
BBX 12 12 0 -2
BITMAP
2FF0
2810
4910
4BD0
C910
4BD0
4910
4BD0
4A50
4BD0
4810
5070
ENDCHAR
STARTCHAR p501E
ENCODING 20510
SWIDTH 480 0
DWIDTH 13 0
BBX 12 12 0 -2
BITMAP
2100
2100
5FF0
4000
CFE0
4820
4820
4FE0
4100
4940
5120
6710
ENDCHAR
STARTCHAR p501F
ENCODING 20511
SWIDTH 480 0
DWIDTH 13 0
BBX 12 12 0 -2
BITMAP
2480
2480
5FE0
4480
C480
5FE0
4000
4FC0
4840
4FC0
4840
4FC0
ENDCHAR
STARTCHAR p5021
ENCODING 20513
SWIDTH 480 0
DWIDTH 13 0
BBX 12 12 0 -2
BITMAP
13E0
1220
23E0
2220
63E0
A000
27F0
2410
27F0
2410
27F0
2410
ENDCHAR
STARTCHAR p5023
ENCODING 20515
SWIDTH 480 0
DWIDTH 13 0
BBX 12 12 0 -2
BITMAP
2480
2480
5E80
48F0
CEA0
4B20
4AA0
4AA0
4A40
4A40
52A0
5710
ENDCHAR
STARTCHAR p5024
ENCODING 20516
SWIDTH 480 0
DWIDTH 13 0
BBX 12 12 0 -2
BITMAP
2080
2FF0
4080
43E0
CA20
4BE0
4A20
4BE0
4A20
4BE0
4800
4FF0
ENDCHAR
STARTCHAR p5026
ENCODING 20518
SWIDTH 480 0
DWIDTH 13 0
BBX 12 12 0 -2
BITMAP
2520
2910
47E0
4280
DFF0
4440
4820
57D0
4440
44C0
4420
47E0
ENDCHAR
STARTCHAR p5027
ENCODING 20519
SWIDTH 480 0
DWIDTH 13 0
BBX 12 12 0 -2
BITMAP
2100
3FF0
5010
5010
C7C0
4000
4000
5FF0
4100
4920
5110
4700
ENDCHAR
STARTCHAR p5028
ENCODING 20520
SWIDTH 480 0
DWIDTH 13 0
BBX 12 12 0 -2
BITMAP
2FE0
2820
2820
4FE0
4900
CFF0
4900
4FE0
4C20
5420
57E0
6420
ENDCHAR
STARTCHAR p502A
ENCODING 20522
SWIDTH 480 0
DWIDTH 13 0
BBX 12 12 0 -2
BITMAP
1200
1CE0
2820
2EE0
6820
A820
2FE0
2280
2280
2290
2490
28F0
ENDCHAR
STARTCHAR p502B
ENCODING 20523
SWIDTH 480 0
DWIDTH 13 0
BBX 12 12 0 -2
BITMAP
2100
2280
4440
5BB0
C000
4FE0
4AA0
4AA0
4FE0
4AA0
4AA0
4860
ENDCHAR
STARTCHAR p502C
ENCODING 20524
SWIDTH 480 0
DWIDTH 13 0
BBX 12 12 0 -2
BITMAP
1100
11F0
2100
2FE0
6820
AFE0
2820
2FE0
2100
3FF0
2100
2100
ENDCHAR
STARTCHAR p502D
ENCODING 20525
SWIDTH 480 0
DWIDTH 13 0
BBX 12 12 0 -2
BITMAP
21E0
2F00
4100
5FF0
C540
5930
4200
5FF0
4440
4C80
43C0
5C30
ENDCHAR
STARTCHAR p503B
ENCODING 20539
SWIDTH 480 0
DWIDTH 13 0
BBX 12 12 0 -2
BITMAP
2000
3FF0
4A90
4A90
CEA0
4AA0
4E90
4A90
4A90
4EE0
5A80
4280
ENDCHAR
STARTCHAR p5043
ENCODING 20547
SWIDTH 480 0
DWIDTH 13 0
BBX 12 12 0 -2
BITMAP
2FF0
2A20
4BE0
4A20
CBE0
4900
4FF0
4A40
4980
4E60
4800
4FF0
ENDCHAR
STARTCHAR p5047
ENCODING 20551
SWIDTH 480 0
DWIDTH 13 0
BBX 12 12 0 -2
BITMAP
2EE0
2A20
4A20
4EE0
C800
48E0
4E20
48A0
48A0
4E40
48A0
4910
ENDCHAR
STARTCHAR p5048
ENCODING 20552
SWIDTH 480 0
DWIDTH 13 0
BBX 12 12 0 -2
BITMAP
17E0
1420
27E0
2420
67E0
A200
27F0
2910
26D0
2410
27D0
2060
ENDCHAR
STARTCHAR p5049
ENCODING 20553
SWIDTH 480 0
DWIDTH 13 0
BBX 12 12 0 -2
BITMAP
2200
2FC0
4440
5FF0
CFC0
4840
4FC0
4100
4FE0
4900
5FF0
4100
ENDCHAR
STARTCHAR p504F
ENCODING 20559
SWIDTH 480 0
DWIDTH 13 0
BBX 12 12 0 -2
BITMAP
2FF0
2800
4FE0
4820
CFE0
4800
4FF0
4D50
4FF0
4D50
5550
6430
ENDCHAR
STARTCHAR p5055
ENCODING 20565
SWIDTH 480 0
DWIDTH 13 0
BBX 12 12 0 -2
BITMAP
2880
2890
4EE0
4880
CE90
5870
4200
4FE0
4820
4FE0
4820
4FE0
ENDCHAR
STARTCHAR p505A
ENCODING 20570
SWIDTH 480 0
DWIDTH 13 0
BBX 12 12 0 -2
BITMAP
2880
2880
48F0
5EA0
C920
48A0
5EA0
52A0
5240
5E40
52A0
4110
ENDCHAR
STARTCHAR p505C
ENCODING 20572
SWIDTH 480 0
DWIDTH 13 0
BBX 12 12 0 -2
BITMAP
2100
3FF0
4FC0
4840
CFC0
4000
5FF0
5010
4FE0
4100
4100
4700
ENDCHAR
STARTCHAR p5065
ENCODING 20581
SWIDTH 480 0
DWIDTH 13 0
BBX 12 12 0 -2
BITMAP
2080
39E0
48A0
4BF0
D0A0
5DE0
4480
55E0
4880
4BF0
5480
63F0
ENDCHAR
STARTCHAR p5074
ENCODING 20596
SWIDTH 480 0
DWIDTH 13 0
BBX 12 12 0 -2
BITMAP
2F10
2950
4950
4F50
C950
4F50
4950
4950
4F50
4010
4910
50B0
ENDCHAR
STARTCHAR p5075
ENCODING 20597
SWIDTH 480 0
DWIDTH 13 0
BBX 12 12 0 -2
BITMAP
1100
11F0
2100
27E0
6420
A7E0
2420
27E0
2420
27E0
2240
2C30
ENDCHAR
STARTCHAR p5076
ENCODING 20598
SWIDTH 480 0
DWIDTH 13 0
BBX 12 12 0 -2
BITMAP
17E0
1520
27E0
2520
67E0
A100
2FF0
2950
29D0
2F50
2810
2870
ENDCHAR
STARTCHAR p5078
ENCODING 20600
SWIDTH 480 0
DWIDTH 13 0
BBX 12 12 0 -2
BITMAP
2F00
2280
4440
5BB0
C000
5E50
5A50
56A0
5AA0
56A0
5250
5650
ENDCHAR
STARTCHAR p5080
ENCODING 20608
SWIDTH 480 0
DWIDTH 13 0
BBX 12 12 0 -2
BITMAP
2200
2FE0
4920
4FE0
C920
4920
4FE0
4540
45A0
45E0
4910
51F0
ENDCHAR
STARTCHAR p5085
ENCODING 20613
SWIDTH 480 0
DWIDTH 13 0
BBX 12 12 0 -2
BITMAP
2140
3FF0
4920
4FE0
C920
4FE0
4920
4040
5FF0
4840
4440
44C0
ENDCHAR
STARTCHAR p508D
ENCODING 20621
SWIDTH 480 0
DWIDTH 13 0
BBX 12 12 0 -2
BITMAP
2100
2FE0
4440
4280
DFF0
5110
4FE0
4200
43E0
4220
4420
48C0
ENDCHAR
STARTCHAR p5091
ENCODING 20625
SWIDTH 480 0
DWIDTH 13 0
BBX 12 12 0 -2
BITMAP
2820
2EF0
52A0
4AA0
C5F0
5820
4100
5FF0
4380
4540
5930
4100
ENDCHAR
STARTCHAR p5098
ENCODING 20632
SWIDTH 480 0
DWIDTH 13 0
BBX 12 12 0 -2
BITMAP
0E00
3180
C470
2480
54C0
8D20
2480
54C0
8D20
FFF0
0400
0400
ENDCHAR
STARTCHAR p5099
ENCODING 20633
SWIDTH 480 0
DWIDTH 13 0
BBX 12 12 0 -2
BITMAP
2280
2FE0
4280
5FF0
C800
4FE0
4D20
4FE0
4D20
4FE0
5520
6560
ENDCHAR
STARTCHAR p50AC
ENCODING 20652
SWIDTH 480 0
DWIDTH 13 0
BBX 12 12 0 -2
BITMAP
1490
1490
27F0
2240
6480
AFF0
3480
27E0
2480
27E0
2480
27F0
ENDCHAR
STARTCHAR p50AD
ENCODING 20653
SWIDTH 480 0
DWIDTH 13 0
BBX 12 12 0 -2
BITMAP
2100
2FF0
4900
4FE0
C920
4FF0
4920
4FE0
4D20
4FE0
5520
6560
ENDCHAR
STARTCHAR p50B2
ENCODING 20658
SWIDTH 480 0
DWIDTH 13 0
BBX 12 12 0 -2
BITMAP
2480
3E80
44F0
5EA0
C120
44A0
5EA0
48A0
4E40
4A40
52A0
6D10
ENDCHAR
STARTCHAR p50B3
ENCODING 20659
SWIDTH 480 0
DWIDTH 13 0
BBX 12 12 0 -2
BITMAP
2100
3FF0
2920
4FE0
4920
CFE0
4120
5FF0
4040
5FF0
4440
42C0
ENDCHAR
STARTCHAR p50B5
ENCODING 20661
SWIDTH 480 0
DWIDTH 13 0
BBX 12 12 0 -2
BITMAP
2100
2FF0
4100
47E0
C100
4FF0
4420
47E0
4420
47E0
4240
4C30
ENDCHAR
STARTCHAR p50B7
ENCODING 20663
SWIDTH 480 0
DWIDTH 13 0
BBX 12 12 0 -2
BITMAP
2400
2FF0
57E0
4420
C7E0
4420
5FF0
4400
4FF0
5250
4C90
4360
ENDCHAR
STARTCHAR p50BE
ENCODING 20670
SWIDTH 480 0
DWIDTH 13 0
BBX 12 12 0 -2
BITMAP
21F0
2040
5080
51F0
D510
59F0
5110
51F0
5510
5DF0
40A0
4310
ENDCHAR
STARTCHAR p50C5
ENCODING 20677
SWIDTH 480 0
DWIDTH 13 0
BBX 12 12 0 -2
BITMAP
2440
3FF0
4440
4FE0
C920
4FE0
4100
5FF0
4100
4FE0
4100
5FF0
ENDCHAR
STARTCHAR p50C9
ENCODING 20681
SWIDTH 480 0
DWIDTH 13 0
BBX 12 12 0 -2
BITMAP
0700
0880
1040
2FA0
C010
3DE0
2520
3DE0
1080
1080
2940
4620
ENDCHAR
STARTCHAR p50CA
ENCODING 20682
SWIDTH 480 0
DWIDTH 13 0
BBX 12 12 0 -2
BITMAP
2FE0
2280
4FE0
4AA0
CFE0
4200
5FF0
4420
4FD0
5440
44D0
43F0
ENDCHAR
STARTCHAR p50CF
ENCODING 20687
SWIDTH 480 0
DWIDTH 13 0
BBX 12 12 0 -2
BITMAP
2400
27C0
4880
5FE0
C920
4FE0
4610
5B20
45C0
5AA0
4490
5B00
ENDCHAR
STARTCHAR p50D1
ENCODING 20689
SWIDTH 480 0
DWIDTH 13 0
BBX 12 12 0 -2
BITMAP
2FC0
2400
5FF0
4840
D7A0
6490
5FE0
5020
57A0
54A0
57A0
5060
ENDCHAR
STARTCHAR p50D5
ENCODING 20693
SWIDTH 480 0
DWIDTH 13 0
BBX 12 12 0 -2
BITMAP
2A90
26A0
5FF0
4440
C280
5FF0
4100
4FE0
4100
5FF0
4440
5830
ENDCHAR
STARTCHAR p50D6
ENCODING 20694
SWIDTH 480 0
DWIDTH 13 0
BBX 12 12 0 -2
BITMAP
2100
3FF0
2100
4FE0
4820
CFE0
4280
5FF0
4000
4FE0
4820
4FE0
ENDCHAR
STARTCHAR p50DA
ENCODING 20698
SWIDTH 480 0
DWIDTH 13 0
BBX 12 12 0 -2
BITMAP
2200
3FF0
54A0
4840
DFE0
6850
4FC0
4840
4FC0
4100
4920
5310
ENDCHAR
STARTCHAR p50DE
ENCODING 20702
SWIDTH 480 0
DWIDTH 13 0
BBX 12 12 0 -2
BITMAP
21E0
2E40
5120
4FC0
C840
4FE0
4820
4FF0
4810
5550
6550
40E0
ENDCHAR
STARTCHAR p50E5
ENCODING 20709
SWIDTH 480 0
DWIDTH 13 0
BBX 12 12 0 -2
BITMAP
2100
2FE0
4100
5FF0
C440
5EF0
4440
5EF0
4000
5FF0
4490
58F0
ENDCHAR
STARTCHAR p50E7
ENCODING 20711
SWIDTH 480 0
DWIDTH 13 0
BBX 12 12 0 -2
BITMAP
24C0
2820
5010
4FE0
C960
4DA0
4B20
4FE0
4440
47C0
4440
47C0
ENDCHAR
STARTCHAR p50ED
ENCODING 20717
SWIDTH 480 0
DWIDTH 13 0
BBX 12 12 0 -2
BITMAP
2440
3FF0
5540
5FF0
CC60
56B0
4100
4FE0
4820
4FE0
4820
4FE0
ENDCHAR
STARTCHAR p50F9
ENCODING 20729
SWIDTH 480 0
DWIDTH 13 0
BBX 12 12 0 -2
BITMAP
3FF0
2280
5FF0
5290
DFF0
4820
4FE0
4820
4FE0
4820
4FE0
5830
ENDCHAR
STARTCHAR p50FB
ENCODING 20731
SWIDTH 480 0
DWIDTH 13 0
BBX 12 12 0 -2
BITMAP
2040
3E40
53F0
52A0
DEA0
51F0
5E40
7240
53F0
5240
5E40
5240
ENDCHAR
STARTCHAR p50FF
ENCODING 20735
SWIDTH 480 0
DWIDTH 13 0
BBX 12 12 0 -2
BITMAP
2100
3FF0
5290
4FE0
C280
4FE0
4280
5FF0
4920
57D0
4100
5FF0
ENDCHAR
STARTCHAR p5100
ENCODING 20736
SWIDTH 480 0
DWIDTH 13 0
BBX 12 12 0 -2
BITMAP
2440
3FF0
4100
4FE0
C100
5FF0
44A0
5FF0
4490
5EA0
4450
4DB0
ENDCHAR
STARTCHAR p5101
ENCODING 20737
SWIDTH 480 0
DWIDTH 13 0
BBX 12 12 0 -2
BITMAP
2440
2FF0
5480
47E0
C480
47F0
4000
4EF0
4A90
4B90
4810
4870
ENDCHAR
STARTCHAR p5104
ENCODING 20740
SWIDTH 480 0
DWIDTH 13 0
BBX 12 12 0 -2
BITMAP
2100
2FE0
4440
4280
DFF0
4820
4FE0
4820
4FE0
4500
5450
57D0
ENDCHAR
STARTCHAR p5106
ENCODING 20742
SWIDTH 480 0
DWIDTH 13 0
BBX 12 12 0 -2
BITMAP
2A80
2A80
5F80
4AF0
D0A0
5F20
61A0
5DA0
5540
5D40
41A0
4690
ENDCHAR
STARTCHAR p5109
ENCODING 20745
SWIDTH 480 0
DWIDTH 13 0
BBX 12 12 0 -2
BITMAP
2100
2280
4440
5BB0
C000
4EE0
4AA0
4EE0
4440
4440
4AA0
5110
ENDCHAR
STARTCHAR p5112
ENCODING 20754
SWIDTH 480 0
DWIDTH 13 0
BBX 12 12 0 -2
BITMAP
2FE0
2100
5FF0
5110
CD60
4000
5FF0
4100
5FF0
5290
5290
52B0
ENDCHAR
STARTCHAR p511F
ENCODING 20767
SWIDTH 480 0
DWIDTH 13 0
BBX 12 12 0 -2
BITMAP
2920
2540
5FF0
5010
C7C0
4440
4FE0
4820
4FE0
4820
4FE0
5830
ENDCHAR
STARTCHAR p5121
ENCODING 20769
SWIDTH 480 0
DWIDTH 13 0
BBX 12 12 0 -2
BITMAP
2FE0
2920
4FE0
4920
CFE0
4000
5FF0
5550
5FF0
5550
5FF0
5110
ENDCHAR
STARTCHAR p512A
ENCODING 20778
SWIDTH 480 0
DWIDTH 13 0
BBX 12 12 0 -2
BITMAP
2FE0
2100
47C0
4440
C7C0
4440
5FF0
5550
4FC0
5440
4380
5C70
ENDCHAR
STARTCHAR p5132
ENCODING 20786
SWIDTH 480 0
DWIDTH 13 0
BBX 12 12 0 -2
BITMAP
3C80
21D0
5CA0
43F0
DC40
40A0
5DF0
4290
5CF0
5490
5CF0
5490
ENDCHAR
STARTCHAR p5137
ENCODING 20791
SWIDTH 480 0
DWIDTH 13 0
BBX 12 12 0 -2
BITMAP
3EF0
2000
5EF0
5AD0
C100
5FF0
52A0
5FE0
5480
56E0
5490
6EF0
ENDCHAR
STARTCHAR p513A
ENCODING 20794
SWIDTH 480 0
DWIDTH 13 0
BBX 12 12 0 -2
BITMAP
2AA0
3FA0
4AF0
4FA0
C4A0
5FF0
55A0
5FA0
44F0
5FA0
4AA0
51F0
ENDCHAR
STARTCHAR p513C
ENCODING 20796
SWIDTH 480 0
DWIDTH 13 0
BBX 12 12 0 -2
BITMAP
2F70
2950
4F70
4000
DFF0
5240
5F70
5590
5750
5520
6F60
4190
ENDCHAR
STARTCHAR p5140
ENCODING 20800
SWIDTH 480 0
DWIDTH 13 0
BBX 12 12 0 -2
BITMAP
0000
FFF0
1100
1100
1100
1100
1100
1100
2100
2110
4110
80F0
ENDCHAR
STARTCHAR p5141
ENCODING 20801
SWIDTH 480 0
DWIDTH 13 0
BBX 12 12 0 -2
BITMAP
0400
0400
0880
1040
3FE0
2120
0900
0900
0900
1110
2110
C0F0
ENDCHAR
STARTCHAR p5143
ENCODING 20803
SWIDTH 480 0
DWIDTH 13 0
BBX 12 12 0 -2
BITMAP
0000
7FC0
0000
0000
FFF0
1100
1100
1100
1100
1110
2110
C0F0
ENDCHAR
STARTCHAR p5144
ENCODING 20804
SWIDTH 480 0
DWIDTH 13 0
BBX 12 12 0 -2
BITMAP
3FC0
2040
2040
2040
2040
3FC0
2940
0900
0900
1110
2110
C0F0
ENDCHAR
STARTCHAR p5145
ENCODING 20805
SWIDTH 480 0
DWIDTH 13 0
BBX 12 12 0 -2
BITMAP
0400
0400
FFF0
0880
1040
21E0
7F20
0900
0900
1110
2110
C0F0
ENDCHAR
STARTCHAR p5146
ENCODING 20806
SWIDTH 480 0
DWIDTH 13 0
BBX 12 12 0 -2
BITMAP
0900
0900
4920
2940
2980
0900
1980
2940
C920
1110
2110
C0F0
ENDCHAR
STARTCHAR p5147
ENCODING 20807
SWIDTH 480 0
DWIDTH 13 0
BBX 12 12 0 -2
BITMAP
40A0
5920
4620
4920
50A0
4020
7FE0
4920
0900
1110
2110
C0F0
ENDCHAR
STARTCHAR p5148
ENCODING 20808
SWIDTH 480 0
DWIDTH 13 0
BBX 12 12 0 -2
BITMAP
2200
2200
3FE0
2200
4200
8200
7FF0
0880
0880
1090
2090
C070
ENDCHAR
STARTCHAR p5149
ENCODING 20809
SWIDTH 480 0
DWIDTH 13 0
BBX 12 12 0 -2
BITMAP
0400
4420
2440
2480
0400
FFF0
1100
1100
1100
2110
4110
81F0
ENDCHAR
STARTCHAR p514B
ENCODING 20811
SWIDTH 480 0
DWIDTH 13 0
BBX 12 12 0 -2
BITMAP
0400
FFF0
0400
3FC0
2040
2040
2040
3FC0
0900
0910
1110
61F0
ENDCHAR
STARTCHAR p514C
ENCODING 20812
SWIDTH 480 0
DWIDTH 13 0
BBX 12 12 0 -2
BITMAP
0F80
2080
2040
4020
BFD0
2040
2040
3FC0
0900
0910
1110
61F0
ENDCHAR
STARTCHAR p514D
ENCODING 20813
SWIDTH 480 0
DWIDTH 13 0
BBX 12 12 0 -2
BITMAP
1000
1F80
2080
4100
BFE0
2220
2220
3FE0
0900
0910
1110
60F0
ENDCHAR
STARTCHAR p514E
ENCODING 20814
SWIDTH 480 0
DWIDTH 13 0
BBX 12 12 0 -2
BITMAP
07E0
FC00
0400
7FE0
4420
4420
7FE0
4A20
0A80
1250
2210
C1F0
ENDCHAR
STARTCHAR p5152
ENCODING 20818
SWIDTH 480 0
DWIDTH 13 0
BBX 12 12 0 -2
BITMAP
19E0
6020
4020
79E0
4020
4020
7FE0
4920
0900
1110
2110
C0F0
ENDCHAR
STARTCHAR p515C
ENCODING 20828
SWIDTH 480 0
DWIDTH 13 0
BBX 12 12 0 -2
BITMAP
0400
6F60
4920
4F20
4920
4920
6F60
0000
0900
0910
1110
61F0
ENDCHAR
STARTCHAR p5162
ENCODING 20834
SWIDTH 480 0
DWIDTH 13 0
BBX 12 12 0 -2
BITMAP
2080
FBF0
2080
FBE0
8A20
8A20
FBE0
5140
5540
5950
B250
8470
ENDCHAR
STARTCHAR p5165
ENCODING 20837
SWIDTH 480 0
DWIDTH 13 0
BBX 12 12 0 -2
BITMAP
0000
3E00
0200
0200
0200
0200
0500
0500
0880
1080
2040
C030
ENDCHAR
STARTCHAR p5167
ENCODING 20839
SWIDTH 480 0
DWIDTH 13 0
BBX 12 12 0 -2
BITMAP
1E00
0200
0200
7FE0
4220
4220
4520
48A0
5060
4020
4020
40E0
ENDCHAR
STARTCHAR p5168
ENCODING 20840
SWIDTH 480 0
DWIDTH 13 0
BBX 12 12 0 -2
BITMAP
3E00
0900
1080
2040
4020
BFD0
0400
0400
3F80
0400
0400
FFF0
ENDCHAR
STARTCHAR p5169
ENCODING 20841
SWIDTH 480 0
DWIDTH 13 0
BBX 12 12 0 -2
BITMAP
0000
FFF0
0200
7FE0
4220
73A0
52A0
5AA0
6760
4220
4220
4260
ENDCHAR
STARTCHAR p516A
ENCODING 20842
SWIDTH 480 0
DWIDTH 13 0
BBX 12 12 0 -2
BITMAP
3E00
0900
1080
2F40
C030
7920
6920
5A40
6A40
5A40
4920
5920
ENDCHAR
STARTCHAR p516B
ENCODING 20843
SWIDTH 480 0
DWIDTH 13 0
BBX 12 12 0 -2
BITMAP
0000
0F80
0080
1080
1080
1080
1080
1080
2040
2040
4020
8010
ENDCHAR
STARTCHAR p516C
ENCODING 20844
SWIDTH 480 0
DWIDTH 13 0
BBX 12 12 0 -2
BITMAP
1380
1080
1080
2040
2040
4420
8410
0800
0880
1040
23E0
7C20
ENDCHAR
STARTCHAR p516D
ENCODING 20845
SWIDTH 480 0
DWIDTH 13 0
BBX 12 12 0 -2
BITMAP
0400
0400
0400
FFF0
0000
1100
1100
1080
2080
2040
4020
8010
ENDCHAR
STARTCHAR p516E
ENCODING 20846
SWIDTH 480 0
DWIDTH 13 0
BBX 12 12 0 -2
BITMAP
0F80
2080
2040
4020
BFD0
0800
0800
1FC0
1040
0040
0040
0380
ENDCHAR
STARTCHAR p5171
ENCODING 20849
SWIDTH 480 0
DWIDTH 13 0
BBX 12 12 0 -2
BITMAP
1100
1100
1100
7FE0
1100
1100
1100
FFF0
0000
1100
2080
C060
ENDCHAR
STARTCHAR p5175
ENCODING 20853
SWIDTH 480 0
DWIDTH 13 0
BBX 12 12 0 -2
BITMAP
01C0
3E00
2000
2000
3FE0
2080
2080
2080
FFF0
0000
2040
C030
ENDCHAR
STARTCHAR p5176
ENCODING 20854
SWIDTH 480 0
DWIDTH 13 0
BBX 12 12 0 -2
BITMAP
1080
1080
7FE0
1080
1F80
1080
1F80
1080
FFF0
0000
1080
6060
ENDCHAR
STARTCHAR p5177
ENCODING 20855
SWIDTH 480 0
DWIDTH 13 0
BBX 12 12 0 -2
BITMAP
3FC0
2040
3FC0
2040
3FC0
2040
3FC0
2040
FFF0
1080
2040
C030
ENDCHAR
STARTCHAR p5178
ENCODING 20856
SWIDTH 480 0
DWIDTH 13 0
BBX 12 12 0 -2
BITMAP
0900
0900
7FE0
4920
4920
7FE0
4920
4920
FFF0
0000
30C0
C030
ENDCHAR
STARTCHAR p517C
ENCODING 20860
SWIDTH 480 0
DWIDTH 13 0
BBX 12 12 0 -2
BITMAP
23C0
4020
BFD0
0A00
7FC0
0A40
FFF0
0A40
7FC0
2A80
4A40
8A30
ENDCHAR
STARTCHAR p5180
ENCODING 20864
SWIDTH 480 0
DWIDTH 13 0
BBX 12 12 0 -2
BITMAP
0930
79C0
0910
FFF0
2440
3FC0
2440
3FC0
1080
FFF0
2040
C030
ENDCHAR
STARTCHAR p5186
ENCODING 20870
SWIDTH 480 0
DWIDTH 13 0
BBX 12 12 0 -2
BITMAP
7FE0
4420
4420
4420
4420
4420
7FE0
4020
4020
4020
4020
40E0
ENDCHAR
STARTCHAR p518A
ENCODING 20874
SWIDTH 480 0
DWIDTH 13 0
BBX 12 12 0 -2
BITMAP
7FE0
4920
4920
4920
4920
FFF0
4920
4920
4920
4920
4920
4060
ENDCHAR
STARTCHAR p518D
ENCODING 20877
SWIDTH 480 0
DWIDTH 13 0
BBX 12 12 0 -2
BITMAP
0000
FFF0
0400
7FC0
4440
7FC0
4440
4440
FFF0
4040
4040
40C0
ENDCHAR
STARTCHAR p5192
ENCODING 20882
SWIDTH 480 0
DWIDTH 13 0
BBX 12 12 0 -2
BITMAP
7FE0
4020
5FA0
4020
5FA0
3FC0
2040
3FC0
2040
3FC0
2040
3FC0
ENDCHAR
STARTCHAR p5195
ENCODING 20885
SWIDTH 480 0
DWIDTH 13 0
BBX 12 12 0 -2
BITMAP
3FE0
2020
2FA0
2020
1F80
2100
7FE0
A220
3FE0
0900
3110
C0F0
ENDCHAR
STARTCHAR p5197
ENCODING 20887
SWIDTH 480 0
DWIDTH 13 0
BBX 12 12 0 -2
BITMAP
0000
7FE0
4020
8040
1F00
1100
1100
1100
1100
1110
2110
C0F0
ENDCHAR
STARTCHAR p51A0
ENCODING 20896
SWIDTH 480 0
DWIDTH 13 0
BBX 12 12 0 -2
BITMAP
FFF0
8010
8050
3840
03F0
0040
FD40
2940
2840
28D0
4810
8FF0
ENDCHAR
STARTCHAR p51A5
ENCODING 20901
SWIDTH 480 0
DWIDTH 13 0
BBX 12 12 0 -2
BITMAP
FFF0
8010
3FC0
2040
3FC0
2040
3FC0
0200
FFF0
0000
18C0
E030
ENDCHAR
STARTCHAR p51AA
ENCODING 20906
SWIDTH 480 0
DWIDTH 13 0
BBX 12 12 0 -2
BITMAP
FFF0
8910
7FE0
3FC0
2040
3FC0
2040
FFF0
4220
BFD0
2240
22C0
ENDCHAR
STARTCHAR p51AC
ENCODING 20908
SWIDTH 480 0
DWIDTH 13 0
BBX 12 12 0 -2
BITMAP
0800
0FC0
1080
6900
0600
0900
30C0
C630
0100
0C00
0300
0080
ENDCHAR
STARTCHAR p51B6
ENCODING 20918
SWIDTH 480 0
DWIDTH 13 0
BBX 12 12 0 -2
BITMAP
0100
8100
4240
2220
04F0
0F10
2000
27E0
4420
4420
87E0
8420
ENDCHAR
STARTCHAR p51B7
ENCODING 20919
SWIDTH 480 0
DWIDTH 13 0
BBX 12 12 0 -2
BITMAP
8300
4280
4440
0820
1790
0000
5FE0
4220
4220
8220
82E0
0200
ENDCHAR
STARTCHAR p51BD
ENCODING 20925
SWIDTH 480 0
DWIDTH 13 0
BBX 12 12 0 -2
BITMAP
8010
5F90
4450
0450
0750
0950
4950
5550
4250
8410
8810
3070
ENDCHAR
STARTCHAR p51C4
ENCODING 20932
SWIDTH 480 0
DWIDTH 13 0
BBX 12 12 0 -2
BITMAP
0100
9FF0
4100
2FE0
0120
1FF0
4120
4FE0
5FF0
8440
8380
9C60
ENDCHAR
STARTCHAR p51C6
ENCODING 20934
SWIDTH 480 0
DWIDTH 13 0
BBX 12 12 0 -2
BITMAP
8240
4480
47F0
0C80
1480
07E0
2480
2480
47E0
4480
8480
87F0
ENDCHAR
STARTCHAR p51C9
ENCODING 20937
SWIDTH 480 0
DWIDTH 13 0
BBX 12 12 0 -2
BITMAP
8100
4100
5FF0
0000
0FE0
0820
2820
2FE0
4100
4940
9120
A710
ENDCHAR
STARTCHAR p51CB
ENCODING 20939
SWIDTH 480 0
DWIDTH 13 0
BBX 12 12 0 -2
BITMAP
8FF0
4910
2BD0
0910
0BD0
2910
2BD0
4A50
4BD0
8A50
8810
1030
ENDCHAR
STARTCHAR p51CC
ENCODING 20940
SWIDTH 480 0
DWIDTH 13 0
BBX 12 12 0 -2
BITMAP
0100
8FE0
4100
1FF0
0490
08F0
5400
47C0
4C40
9280
8300
1CE0
ENDCHAR
STARTCHAR p51CD
ENCODING 20941
SWIDTH 480 0
DWIDTH 13 0
BBX 12 12 0 -2
BITMAP
0100
9FF0
4100
0FE0
0920
2FE0
2920
4FE0
4380
8540
8920
3110
ENDCHAR
STARTCHAR p51DC
ENCODING 20956
SWIDTH 480 0
DWIDTH 13 0
BBX 12 12 0 -2
BITMAP
8100
5FF0
4820
0BA0
0AA0
0FE0
4000
4FE0
4100
9FF0
8540
1930
ENDCHAR
STARTCHAR p51DD
ENCODING 20957
SWIDTH 480 0
DWIDTH 13 0
BBX 12 12 0 -2
BITMAP
15F0
9810
52A0
1E40
0020
11F0
5E50
6940
BF70
8940
95C0
2270
ENDCHAR
STARTCHAR p51DE
ENCODING 20958
SWIDTH 480 0
DWIDTH 13 0
BBX 12 12 0 -2
BITMAP
9EF0
5490
1E90
12B0
1280
5E90
5490
9EF0
8000
2920
2490
4490
ENDCHAR
STARTCHAR p51E1
ENCODING 20961
SWIDTH 480 0
DWIDTH 13 0
BBX 12 12 0 -2
BITMAP
0000
1F80
1080
1080
1080
1480
1280
1280
2080
2090
4090
8070
ENDCHAR
STARTCHAR p51F0
ENCODING 20976
SWIDTH 480 0
DWIDTH 13 0
BBX 12 12 0 -2
BITMAP
7FC0
4440
5F40
5140
5F40
5140
7FC0
4440
5F40
4450
BFB0
8010
ENDCHAR
STARTCHAR p51F1
ENCODING 20977
SWIDTH 480 0
DWIDTH 13 0
BBX 12 12 0 -2
BITMAP
1000
55C0
7D40
0140
FD40
0140
7D40
4540
7D40
4950
3D50
E270
ENDCHAR
STARTCHAR p51F6
ENCODING 20982
SWIDTH 480 0
DWIDTH 13 0
BBX 12 12 0 -2
BITMAP
0000
4090
5090
4910
4510
4210
4510
4890
5090
4010
7FF0
4010
ENDCHAR
STARTCHAR p51F8
ENCODING 20984
SWIDTH 480 0
DWIDTH 13 0
BBX 12 12 0 -2
BITMAP
0F80
0880
0880
0880
0880
78F0
4010
4010
4010
4010
7FF0
4010
ENDCHAR
STARTCHAR p51F9
ENCODING 20985
SWIDTH 480 0
DWIDTH 13 0
BBX 12 12 0 -2
BITMAP
0000
79F0
4910
4910
4910
4910
4F10
4010
4010
4010
7FF0
4010
ENDCHAR
STARTCHAR p51FA
ENCODING 20986
SWIDTH 480 0
DWIDTH 13 0
BBX 12 12 0 -2
BITMAP
0200
2240
2240
2240
3FC0
2240
0200
4220
4220
4220
7FE0
4020
ENDCHAR
STARTCHAR p51FD
ENCODING 20989
SWIDTH 480 0
DWIDTH 13 0
BBX 12 12 0 -2
BITMAP
0000
FFF0
0800
4E20
62A0
5320
4220
52A0
6260
4C20
4020
7FE0
ENDCHAR
STARTCHAR p5200
ENCODING 20992
SWIDTH 480 0
DWIDTH 13 0
BBX 12 12 0 -2
BITMAP
0000
7FE0
0420
0420
0420
0420
0420
0820
0820
1020
2020
C1C0
ENDCHAR
STARTCHAR p5203
ENCODING 20995
SWIDTH 480 0
DWIDTH 13 0
BBX 12 12 0 -2
BITMAP
0000
3FE0
0420
0420
1420
0C20
0620
0920
0820
1020
2020
C1C0
ENDCHAR
STARTCHAR p5206
ENCODING 20998
SWIDTH 480 0
DWIDTH 13 0
BBX 12 12 0 -2
BITMAP
0780
1080
1080
2040
4020
BFD0
0840
0840
0840
1040
2040
C380
ENDCHAR
STARTCHAR p5207
ENCODING 20999
SWIDTH 480 0
DWIDTH 13 0
BBX 12 12 0 -2
BITMAP
2000
23F0
2090
3C90
E090
2090
2090
2490
2510
1D10
0210
0C60
ENDCHAR
STARTCHAR p5208
ENCODING 21000
SWIDTH 480 0
DWIDTH 13 0
BBX 12 12 0 -2
BITMAP
0410
0490
8490
4890
2890
1090
1890
1490
2210
2210
4010
8070
ENDCHAR
STARTCHAR p520A
ENCODING 21002
SWIDTH 480 0
DWIDTH 13 0
BBX 12 12 0 -2
BITMAP
0010
7C90
1090
1090
1090
FE90
1090
1090
1090
1010
1010
1070
ENDCHAR
STARTCHAR p520E
ENCODING 21006
SWIDTH 480 0
DWIDTH 13 0
BBX 12 12 0 -2
BITMAP
4010
4010
7E50
AA50
2A50
4A50
5250
9250
2250
4210
8210
0C70
ENDCHAR
STARTCHAR p5211
ENCODING 21009
SWIDTH 480 0
DWIDTH 13 0
BBX 12 12 0 -2
BITMAP
0010
7E50
2450
2450
2450
FF50
2450
2450
2450
2410
4410
8470
ENDCHAR
STARTCHAR p5217
ENCODING 21015
SWIDTH 480 0
DWIDTH 13 0
BBX 12 12 0 -2
BITMAP
0010
FE10
2090
2090
3C90
4490
A490
1890
0890
1010
2010
C070
ENDCHAR
STARTCHAR p521D
ENCODING 21021
SWIDTH 480 0
DWIDTH 13 0
BBX 12 12 0 -2
BITMAP
2000
27F0
F910
0910
1110
2110
6910
B110
2A10
2210
2410
2860
ENDCHAR
STARTCHAR p5224
ENCODING 21028
SWIDTH 480 0
DWIDTH 13 0
BBX 12 12 0 -2
BITMAP
1010
5490
5290
9290
7C90
1090
1090
FE90
1090
1010
2010
4070
ENDCHAR
STARTCHAR p5225
ENCODING 21029
SWIDTH 480 0
DWIDTH 13 0
BBX 12 12 0 -2
BITMAP
7C10
4490
4490
7C90
2090
2090
3C90
2490
2490
4410
4410
9870
ENDCHAR
STARTCHAR p5229
ENCODING 21033
SWIDTH 480 0
DWIDTH 13 0
BBX 12 12 0 -2
BITMAP
1C10
7090
1090
1090
FE90
1090
3890
5490
9290
1010
1010
1070
ENDCHAR
STARTCHAR p522A
ENCODING 21034
SWIDTH 480 0
DWIDTH 13 0
BBX 12 12 0 -2
BITMAP
7F10
5550
5550
5550
5550
FFD0
5550
5550
5550
5510
5510
4370
ENDCHAR
STARTCHAR p522E
ENCODING 21038
SWIDTH 480 0
DWIDTH 13 0
BBX 12 12 0 -2
BITMAP
1C10
7010
1090
1090
FE90
1090
1090
7C90
4490
4410
7C10
4470
ENDCHAR
STARTCHAR p5230
ENCODING 21040
SWIDTH 480 0
DWIDTH 13 0
BBX 12 12 0 -2
BITMAP
0010
FE10
2090
2490
4E90
F290
1090
1090
7C90
1090
1E10
F070
ENDCHAR
STARTCHAR p5236
ENCODING 21046
SWIDTH 480 0
DWIDTH 13 0
BBX 12 12 0 -2
BITMAP
1010
5090
7C90
9090
1090
FE90
1090
7E90
5290
5210
5610
1070
ENDCHAR
STARTCHAR p5237
ENCODING 21047
SWIDTH 480 0
DWIDTH 13 0
BBX 12 12 0 -2
BITMAP
7E10
4290
4290
7E90
4890
4890
7E90
6A90
6A90
6A10
AE10
8870
ENDCHAR
STARTCHAR p5238
ENCODING 21048
SWIDTH 480 0
DWIDTH 13 0
BBX 12 12 0 -2
BITMAP
2440
4420
3FC0
0900
FFF0
1080
2040
5FA0
8890
0880
1080
6700
ENDCHAR
STARTCHAR p5239
ENCODING 21049
SWIDTH 480 0
DWIDTH 13 0
BBX 12 12 0 -2
BITMAP
4210
2490
1890
2490
C290
1090
1090
FE90
3890
5410
9210
1070
ENDCHAR
STARTCHAR p523A
ENCODING 21050
SWIDTH 480 0
DWIDTH 13 0
BBX 12 12 0 -2
BITMAP
1010
FE90
1090
1090
FE90
9290
9290
9690
3890
5410
9210
1070
ENDCHAR
STARTCHAR p523B
ENCODING 21051
SWIDTH 480 0
DWIDTH 13 0
BBX 12 12 0 -2
BITMAP
1010
1010
FE90
1090
A290
4490
2890
3290
C490
0810
3410
C270
ENDCHAR
STARTCHAR p5243
ENCODING 21059
SWIDTH 480 0
DWIDTH 13 0
BBX 12 12 0 -2
BITMAP
4210
2450
FE50
1250
7E50
5050
5050
FF50
9150
3110
5610
9070
ENDCHAR
STARTCHAR p5247
ENCODING 21063
SWIDTH 480 0
DWIDTH 13 0
BBX 12 12 0 -2
BITMAP
7C10
4490
4490
7C90
4490
7C90
4490
4490
7C90
0010
4410
8270
ENDCHAR
STARTCHAR p524A
ENCODING 21066
SWIDTH 480 0
DWIDTH 13 0
BBX 12 12 0 -2
BITMAP
1010
5410
9290
1090
7C90
4490
7C90
4490
7C90
4410
4410
4C70
ENDCHAR
STARTCHAR p524B
ENCODING 21067
SWIDTH 480 0
DWIDTH 13 0
BBX 12 12 0 -2
BITMAP
1020
FEA0
10A0
7CA0
44A0
44A0
7CA0
28A0
2820
2860
4810
8FF0
ENDCHAR
STARTCHAR p524C
ENCODING 21068
SWIDTH 480 0
DWIDTH 13 0
BBX 12 12 0 -2
BITMAP
1010
FE90
1090
7E90
5290
5290
7E90
1090
3890
5410
9210
1070
ENDCHAR
STARTCHAR p524D
ENCODING 21069
SWIDTH 480 0
DWIDTH 13 0
BBX 12 12 0 -2
BITMAP
1080
0900
FFF0
0000
7820
4920
7920
4920
7920
4920
4920
5860
ENDCHAR
STARTCHAR p5254
ENCODING 21076
SWIDTH 480 0
DWIDTH 13 0
BBX 12 12 0 -2
BITMAP
7C10
4490
7C90
4490
7C90
2090
7E90
AA90
4A90
9210
2210
4C70
ENDCHAR
STARTCHAR p5256
ENCODING 21078
SWIDTH 480 0
DWIDTH 13 0
BBX 12 12 0 -2
BITMAP
1010
FE10
0090
4490
2890
FE90
0090
7C90
4490
4410
7C10
4470
ENDCHAR
STARTCHAR p525B
ENCODING 21083
SWIDTH 480 0
DWIDTH 13 0
BBX 12 12 0 -2
BITMAP
FF10
8110
C550
A950
FD50
9150
D550
D550
FD50
C510
8110
8770
ENDCHAR
STARTCHAR p525D
ENCODING 21085
SWIDTH 480 0
DWIDTH 13 0
BBX 12 12 0 -2
BITMAP
2010
3C90
4490
7C90
0890
FE90
9090
5690
3890
5490
9210
7070
ENDCHAR
STARTCHAR p5261
ENCODING 21089
SWIDTH 480 0
DWIDTH 13 0
BBX 12 12 0 -2
BITMAP
1010
5290
5490
9890
2490
C290
1090
5290
5490
9810
2410
C370
ENDCHAR
STARTCHAR p5269
ENCODING 21097
SWIDTH 480 0
DWIDTH 13 0
BBX 12 12 0 -2
BITMAP
1E10
7010
1050
FF50
5550
D650
7550
D750
3850
5410
9310
1070
ENDCHAR
STARTCHAR p526A
ENCODING 21098
SWIDTH 480 0
DWIDTH 13 0
BBX 12 12 0 -2
BITMAP
0880
FFF0
7C20
5520
6520
5520
4C60
0000
FFE0
0820
1020
E1C0
ENDCHAR
STARTCHAR p526F
ENCODING 21103
SWIDTH 480 0
DWIDTH 13 0
BBX 12 12 0 -2
BITMAP
FE10
0010
7C90
4490
7C90
0090
FE90
9290
FE90
9210
FE10
8270
ENDCHAR
STARTCHAR p5272
ENCODING 21106
SWIDTH 480 0
DWIDTH 13 0
BBX 12 12 0 -2
BITMAP
1010
FF10
9150
7E50
1050
7E50
1050
FF50
0050
7E10
4210
7E70
ENDCHAR
STARTCHAR p5275
ENCODING 21109
SWIDTH 480 0
DWIDTH 13 0
BBX 12 12 0 -2
BITMAP
1C10
2210
7F50
A250
3E50
2250
3E50
2050
3E50
6210
BE10
2230
ENDCHAR
STARTCHAR p527D
ENCODING 21117
SWIDTH 480 0
DWIDTH 13 0
BBX 12 12 0 -2
BITMAP
7F10
1450
7F50
5550
7F50
0050
3E50
0050
7F50
0810
4A10
9970
ENDCHAR
STARTCHAR p527F
ENCODING 21119
SWIDTH 480 0
DWIDTH 13 0
BBX 12 12 0 -2
BITMAP
5210
A490
5290
7C90
5490
7C90
5490
7C90
1090
FE10
5410
9270
ENDCHAR
STARTCHAR p5283
ENCODING 21123
SWIDTH 480 0
DWIDTH 13 0
BBX 12 12 0 -2
BITMAP
1010
7E50
1250
FF50
1250
FF50
5250
7E50
5250
7E10
0010
FF70
ENDCHAR
STARTCHAR p5287
ENCODING 21127
SWIDTH 480 0
DWIDTH 13 0
BBX 12 12 0 -2
BITMAP
1E10
1050
7F50
5150
7E50
5150
7F50
4850
5550
6E10
9510
AC70
ENDCHAR
STARTCHAR p5288
ENCODING 21128
SWIDTH 480 0
DWIDTH 13 0
BBX 12 12 0 -2
BITMAP
7880
4BE0
7940
47F0
7880
ABE0
3880
0000
7FE0
0820
3020
C1C0
ENDCHAR
STARTCHAR p5289
ENCODING 21129
SWIDTH 480 0
DWIDTH 13 0
BBX 12 12 0 -2
BITMAP
EF10
8510
A550
EB50
3850
C650
3850
1050
FE50
9410
5F10
F070
ENDCHAR
STARTCHAR p528D
ENCODING 21133
SWIDTH 480 0
DWIDTH 13 0
BBX 12 12 0 -2
BITMAP
0810
1450
2250
DDD0
0050
7750
5550
7750
2250
2210
5510
88B0
ENDCHAR
STARTCHAR p5291
ENCODING 21137
SWIDTH 480 0
DWIDTH 13 0
BBX 12 12 0 -2
BITMAP
0810
FF10
1550
EA50
AB50
AD50
4250
7E50
4250
7E10
4210
8270
ENDCHAR
STARTCHAR p5292
ENCODING 21138
SWIDTH 480 0
DWIDTH 13 0
BBX 12 12 0 -2
BITMAP
1000
29F0
4450
BA50
0050
EED0
AB50
EE50
4450
4490
AA90
9360
ENDCHAR
STARTCHAR p529B
ENCODING 21147
SWIDTH 480 0
DWIDTH 13 0
BBX 12 12 0 -2
BITMAP
0400
0400
0400
7FE0
0420
0420
0420
0820
0820
1020
2020
C1C0
ENDCHAR
STARTCHAR p529F
ENCODING 21151
SWIDTH 480 0
DWIDTH 13 0
BBX 12 12 0 -2
BITMAP
0100
0100
F900
27F0
2110
2110
2110
2110
3A10
E210
0410
08E0
ENDCHAR
STARTCHAR p52A0
ENCODING 21152
SWIDTH 480 0
DWIDTH 13 0
BBX 12 12 0 -2
BITMAP
2000
2000
FDF0
2510
2510
2510
2510
2510
2510
4510
45F0
9910
ENDCHAR
STARTCHAR p52A3
ENCODING 21155
SWIDTH 480 0
DWIDTH 13 0
BBX 12 12 0 -2
BITMAP
2240
2220
4250
8E90
0300
7C00
0400
7FE0
0420
0820
3020
C1C0
ENDCHAR
STARTCHAR p52A4
ENCODING 21156
SWIDTH 480 0
DWIDTH 13 0
BBX 12 12 0 -2
BITMAP
0C80
7080
4080
41F0
7E90
4890
4890
4890
4890
4910
8910
8A60
ENDCHAR
STARTCHAR p52A9
ENCODING 21161
SWIDTH 480 0
DWIDTH 13 0
BBX 12 12 0 -2
BITMAP
0080
7880
4BF0
4890
7890
4890
4890
7890
4910
4D10
F210
0460
ENDCHAR
STARTCHAR p52AA
ENCODING 21162
SWIDTH 480 0
DWIDTH 13 0
BBX 12 12 0 -2
BITMAP
2000
FDF0
4510
C8A0
3040
CDB0
0000
0400
7FE0
0820
3020
C1C0
ENDCHAR
STARTCHAR p52AB
ENCODING 21163
SWIDTH 480 0
DWIDTH 13 0
BBX 12 12 0 -2
BITMAP
1080
1080
7C80
11F0
1090
FE90
2090
2890
4890
5D10
E510
0260
ENDCHAR
STARTCHAR p52BE
ENCODING 21182
SWIDTH 480 0
DWIDTH 13 0
BBX 12 12 0 -2
BITMAP
1080
1080
FE80
21F0
4490
2890
1290
2490
C910
1510
2210
C460
ENDCHAR
STARTCHAR p52C1
ENCODING 21185
SWIDTH 480 0
DWIDTH 13 0
BBX 12 12 0 -2
BITMAP
FE80
0080
5480
A9F0
A890
5490
0090
7C90
1110
1D10
F220
04E0
ENDCHAR
STARTCHAR p52C3
ENCODING 21187
SWIDTH 480 0
DWIDTH 13 0
BBX 12 12 0 -2
BITMAP
1080
FE80
1080
FFF0
8290
7C90
0890
1090
1C90
F110
1110
7260
ENDCHAR
STARTCHAR p52C5
ENCODING 21189
SWIDTH 480 0
DWIDTH 13 0
BBX 12 12 0 -2
BITMAP
1080
FE80
11F0
7C90
5490
5490
7C90
1090
3910
5510
9210
1460
ENDCHAR
STARTCHAR p52C7
ENCODING 21191
SWIDTH 480 0
DWIDTH 13 0
BBX 12 12 0 -2
BITMAP
3FC0
0880
3FE0
2220
3FE0
2220
3FE0
0400
7FE0
0820
3020
C1C0
ENDCHAR
STARTCHAR p52C9
ENCODING 21193
SWIDTH 480 0
DWIDTH 13 0
BBX 12 12 0 -2
BITMAP
2100
3900
4BE0
9120
7D20
5520
5520
7D20
2A20
2AC0
4810
87F0
ENDCHAR
STARTCHAR p52CD
ENCODING 21197
SWIDTH 480 0
DWIDTH 13 0
BBX 12 12 0 -2
BITMAP
1080
1080
FC80
01F0
7C90
4490
7C90
1090
5890
5510
9510
3260
ENDCHAR
STARTCHAR p52D2
ENCODING 21202
SWIDTH 480 0
DWIDTH 13 0
BBX 12 12 0 -2
BITMAP
4880
FC80
4BF0
7890
1090
FC90
9490
FC90
1110
FD10
1210
1460
ENDCHAR
STARTCHAR p52D5
ENCODING 21205
SWIDTH 480 0
DWIDTH 13 0
BBX 12 12 0 -2
BITMAP
7C80
1080
FE80
11F0
7C90
5490
7C90
5490
FE90
1110
1D10
F260
ENDCHAR
STARTCHAR p52D6
ENCODING 21206
SWIDTH 480 0
DWIDTH 13 0
BBX 12 12 0 -2
BITMAP
FE80
BA80
8280
BBF0
8290
7C90
4490
7C90
4490
7D10
4510
7E60
ENDCHAR
STARTCHAR p52D8
ENCODING 21208
SWIDTH 480 0
DWIDTH 13 0
BBX 12 12 0 -2
BITMAP
2480
7E80
2480
3DF0
2490
3C90
2490
FE90
5490
6690
4110
7D60
ENDCHAR
STARTCHAR p52D9
ENCODING 21209
SWIDTH 480 0
DWIDTH 13 0
BBX 12 12 0 -2
BITMAP
F900
09F0
5220
2540
F880
2940
6630
6100
A7E0
A120
2220
6CE0
ENDCHAR
STARTCHAR p52DB
ENCODING 21211
SWIDTH 480 0
DWIDTH 13 0
BBX 12 12 0 -2
BITMAP
7C80
4480
7C80
03F0
7C90
4490
7C90
4490
7C90
4510
7D10
C660
ENDCHAR
STARTCHAR p52DD
ENCODING 21213
SWIDTH 480 0
DWIDTH 13 0
BBX 12 12 0 -2
BITMAP
7AA0
4C90
6BE0
5940
4FF0
4A20
6D10
5BE0
4920
4920
4A20
9CC0
ENDCHAR
ENDFONT
